<?xml version="1.0" standalone="no"?>
<!DOCTYPE svg PUBLIC "-//W3C//DTD SVG 1.1//EN" "http://www.w3.org/Graphics/SVG/1.1/DTD/svg11.dtd">
<!--Generator: Xara Designer (www.xara.com), SVG filter version: 6.1.0.16-->
<svg stroke-width="0.501" stroke-linejoin="bevel" fill-rule="evenodd" xmlns:xlink="http://www.w3.org/1999/xlink" xmlns="http://www.w3.org/2000/svg" version="1.1" overflow="visible" width="160.241pt" height="74.177pt" viewBox="0 0 160.241 74.177">
 <defs>
	</defs>
 <g id="Document" fill="none" stroke="black" font-family="Times New Roman" font-size="16" transform="scale(1 -1)">
  <g id="Spread" transform="translate(0 -74.177)">
   <g id="Layer 1">
    <g id="Group">
     <g id="Group_1" stroke-linejoin="miter" stroke="none" fill="#000000">
      <path d="M 3.366,40.943 C 10.532,60.086 51.246,73.033 94.244,69.843 C 137.242,66.652 166.323,48.526 159.156,29.383 C 151.99,10.24 111.276,-2.707 68.278,0.483 C 25.28,3.674 -3.801,21.8 3.366,40.943 Z" marker-start="none" marker-end="none"/>
     </g>
     <g id="Group_2" stroke-linejoin="miter" stroke="none" fill="#ffffff">
      <path d="M 1.116,43.793 C 8.282,62.936 48.996,75.883 91.994,72.693 C 134.992,69.502 164.073,51.376 156.906,32.233 C 149.74,13.09 109.026,0.143 66.028,3.333 C 23.03,6.524 -6.051,24.65 1.116,43.793 Z" marker-start="none" marker-end="none"/>
     </g>
     <path d="M 0.5,37.91 L 158.123,37.91" fill="none" stroke-width="1" stroke-linecap="round" stroke-linejoin="round" stroke-miterlimit="79.8403193612775"/>
     <path d="M 0.64,35.924 L 157.381,36.001" fill="none" stroke-width="1" stroke-linecap="round" stroke-linejoin="miter" stroke="#00017f" stroke-miterlimit="79.8403193612775"/>
     <g id="Group_3" stroke-linejoin="miter" stroke="none">
      <path d="M 71.675,11.534 C 34.042,13.772 8.592,26.485 14.863,39.911 C 21.133,53.337 56.766,62.416 94.397,60.178 C 115.668,58.913 133.049,54.3 143.007,48.105 C 133.748,52.575 119.639,55.826 102.831,56.804 C 68.961,58.773 36.893,50.777 31.248,38.952 C 25.603,27.127 48.513,15.929 82.383,13.96 C 101.531,12.845 120.103,14.917 133.649,19.065 C 118.37,13.215 95.419,10.121 71.675,11.534 Z" fill="#000000" marker-start="none" marker-end="none"/>
      <path d="M 74.11,11.778 C 37.417,13.977 12.6,26.472 18.716,39.666 C 24.831,52.86 59.574,61.783 96.266,59.584 C 117.006,58.34 133.954,53.807 143.664,47.718 C 134.636,52.112 120.879,55.307 104.49,56.268 C 71.466,58.204 40.196,50.345 34.693,38.724 C 29.19,27.103 51.527,16.098 84.551,14.162 C 103.221,13.067 121.331,15.103 134.541,19.18 C 119.642,13.431 97.264,10.39 74.11,11.778 Z" fill="#00017f" marker-start="none" marker-end="none"/>
     </g>
     <text xml:space="preserve" transform="translate(24.84 25.194) scale(1 -1)" font-family="HarvestItal" stroke-width="0.75" stroke="#ffffff" stroke-linejoin="miter" stroke-linecap="round" fill="#000000" stroke-miterlimit="79.8403193612775"><tspan x="33.044" y="0" font-size="31.213">R</tspan><tspan x="49.808" y="0" font-size="24.97">O</tspan><tspan x="63.121" y="0" font-size="24.97">O</tspan><tspan x="76.434" y="0" font-size="24.97">F</tspan><tspan x="87.492" y="0" font-size="24.97">I</tspan><tspan x="93.66" y="0" font-size="24.97">N</tspan><tspan x="107.595" y="0" font-size="24.97">G</tspan></text>
     <g id="Group_4" stroke-linejoin="miter" stroke-linecap="round">
      <g id="Group_5" font-size="55.123" font-family="HarvestItal" stroke="#000000" stroke-width="2" fill="#191919" stroke-miterlimit="79.8403193612775">
       <text xml:space="preserve" transform="translate(22.738 12.744) scale(1 -1)"><tspan x="1.924" y="0">G</tspan></text>
       <text xml:space="preserve" transform="translate(5.244 33.49) scale(1 -1)"><tspan x="1.157" y="0">K</tspan></text>
      </g>
      <g id="Group_6">
       <text xml:space="preserve" transform="translate(22.358 12.45) scale(1 -1)" font-family="HarvestItal" font-size="55.123" stroke-width="0.869" fill="#ffffff" stroke="#191919" stroke-miterlimit="79.8403193612775"><tspan x="1.924" y="0">G</tspan></text>
       <g id="Group_7" fill-rule="nonzero" stroke="none" stroke-width="1.573" fill="#e5e5e5" stroke-miterlimit="79.8403193612775">
        <g id="Group_8">
         <path d="M 30.204,13.531 C 29.012,14.798 28.414,16.846 28.414,19.675 C 28.414,21.881 28.817,24.911 29.626,28.768 L 30.341,32.021 C 30.421,32.341 30.503,32.658 30.583,32.97 L 30.587,32.975 L 32.33,38.953 L 40.907,31.836 L 39.48,25.792 C 39.336,25.131 39.183,24.433 39.019,23.698 C 38.857,22.963 38.777,22.264 38.777,21.603 C 38.777,19.62 39.548,18.627 41.091,18.627 C 41.495,18.627 41.862,18.692 42.194,18.82 C 42.524,18.949 42.838,19.105 43.131,19.289 C 43.83,19.765 44.37,20.4 44.756,21.188 C 45.144,21.979 45.592,23.419 46.107,25.512 L 46.438,26.944 L 42.944,26.95 L 43.623,29.599 L 54.627,20.535 L 52.612,12.45 L 45.557,12.45 L 46.051,15.586 L 45.225,14.816 C 43.315,13.168 41.367,12.197 39.383,11.904 C 37.987,11.721 36.828,11.63 35.911,11.63 C 33.301,11.63 31.4,12.263 30.204,13.531 Z" marker-start="none" marker-end="none"/>
        </g>
       </g>
       <text xml:space="preserve" transform="translate(22.358 12.45) scale(1 -1)" font-family="HarvestItal" font-size="55.123" stroke-width="0.869" stroke="#000000" stroke-miterlimit="79.8403193612775"><tspan x="1.924" y="0">G</tspan></text>
       <text xml:space="preserve" transform="translate(4.864 33.196) scale(1 -1)" font-family="HarvestItal" font-size="55.123" stroke-width="0.869" fill="#ffffff" stroke="#191919" stroke-miterlimit="79.8403193612775"><tspan x="1.157" y="0">K</tspan></text>
       <g id="Group_9" fill-rule="nonzero" stroke="none" stroke-width="1.573" fill="#e5e5e5" stroke-miterlimit="79.8403193612775">
        <g id="Group_10">
         <path d="M 30.643,33.196 L 27.08,33.196 L 24.631,45.243 L 39.307,33.154 L 30.63,33.154 C 30.634,33.169 30.639,33.181 30.643,33.196 Z M 8.281,33.196 L 13.548,54.372 L 23.373,46.28 L 21.51,44 L 18.81,33.196 L 8.281,33.196 Z" marker-start="none" marker-end="none"/>
        </g>
       </g>
       <text xml:space="preserve" transform="translate(4.864 33.196) scale(1 -1)" font-family="HarvestItal" font-size="55.123" stroke-width="0.869" stroke="#000000" stroke-miterlimit="79.8403193612775"><tspan x="1.157" y="0">K</tspan></text>
      </g>
     </g>
    </g>
   </g>
  </g>
 </g>
</svg>
