<svg width="150" height="150" viewBox="0 0 150 150" fill="none" xmlns="http://www.w3.org/2000/svg">
<circle cx="75" cy="75" r="73" fill="#171696" stroke="white" stroke-width="4"/>
<g filter="url(#filter0_d)">
<g filter="url(#filter1_d)">
<path d="M136.251 63.661H112.208L112.338 63.0103L113.246 59.3703C113.503 58.3306 113.675 57.3121 113.762 56.3149C113.847 55.3177 113.892 54.2992 113.892 53.2595C113.892 50.2254 112.333 48.7071 109.214 48.7071C108.696 48.7071 107.68 48.9476 106.161 49.4238C104.648 49.9 103.262 51.2203 102.005 53.3868C100.748 55.5534 99.3433 59.2783 97.785 64.5616L93.0981 81.1941L89.5665 96.1339C89.2271 97.6945 88.8664 99.3401 88.4821 101.073C88.0978 102.806 87.9068 104.451 87.9068 106.012C87.9068 110.689 89.7269 113.028 93.3646 113.028C94.3194 113.028 95.1846 112.877 95.9649 112.573C96.7453 112.271 97.4808 111.901 98.1739 111.47C99.8195 110.345 101.097 108.85 102.007 106.99C102.92 105.128 103.981 101.731 105.192 96.7963L105.97 93.4203L97.7331 93.4062L101.805 77.5564H133.002L120.526 127.591H103.893L105.06 120.197L103.113 122.013C98.6077 125.9 94.0176 128.187 89.3379 128.878C86.0467 129.312 83.3167 129.526 81.1525 129.526C74.9993 129.526 70.5176 128.034 67.7003 125.044C64.8854 122.057 63.4779 117.227 63.4756 110.557C63.4779 105.359 64.4304 98.2132 66.3353 89.1178L68.0233 81.4534C72.4437 63.7836 77.2955 51.6564 82.5788 45.0741C87.8668 38.4919 95.6632 34.5524 105.97 33.2534C109.613 32.7324 112.904 32.4731 115.848 32.4731C123.473 32.4731 129.063 34.0762 132.611 37.2801C136.166 40.4864 137.941 45.2934 137.941 51.7036C137.941 53.698 137.724 56.2088 137.29 59.2406C137.205 60.6269 136.859 62.1003 136.251 63.661Z" fill="white"/>
<path d="M136.251 63.661H112.208L112.338 63.0103L113.246 59.3703C113.503 58.3306 113.675 57.3121 113.762 56.3149C113.847 55.3177 113.892 54.2992 113.892 53.2595C113.892 50.2254 112.333 48.7071 109.214 48.7071C108.696 48.7071 107.68 48.9476 106.161 49.4238C104.648 49.9 103.262 51.2203 102.005 53.3868C100.748 55.5534 99.3433 59.2783 97.785 64.5616L93.0981 81.1941L89.5665 96.1339C89.2271 97.6945 88.8664 99.3401 88.4821 101.073C88.0978 102.806 87.9068 104.451 87.9068 106.012C87.9068 110.689 89.7269 113.028 93.3646 113.028C94.3194 113.028 95.1846 112.877 95.9649 112.573C96.7453 112.271 97.4808 111.901 98.1739 111.47C99.8195 110.345 101.097 108.85 102.007 106.99C102.92 105.128 103.981 101.731 105.192 96.7963L105.97 93.4203L97.7331 93.4062L101.805 77.5564H133.002L120.526 127.591H103.893L105.06 120.197L103.113 122.013C98.6077 125.9 94.0176 128.187 89.3379 128.878C86.0467 129.312 83.3167 129.526 81.1525 129.526C74.9993 129.526 70.5176 128.034 67.7003 125.044C64.8854 122.057 63.4779 117.227 63.4756 110.557C63.4779 105.359 64.4304 98.2132 66.3353 89.1178L68.0233 81.4534C72.4437 63.7836 77.2955 51.6564 82.5788 45.0741C87.8668 38.4919 95.6632 34.5524 105.97 33.2534C109.613 32.7324 112.904 32.4731 115.848 32.4731C123.473 32.4731 129.063 34.0762 132.611 37.2801C136.166 40.4864 137.941 45.2934 137.941 51.7036C137.941 53.698 137.724 56.2088 137.29 59.2406C137.205 60.6269 136.859 62.1003 136.251 63.661Z" stroke="white" stroke-width="6" stroke-miterlimit="79.8403" stroke-linecap="round" stroke-linejoin="round"/>
</g>
<path d="M67.6985 125.042C64.8883 122.055 63.4785 117.227 63.4785 110.558C63.4785 105.357 64.4286 98.2136 66.3359 89.1206L68.0215 81.4515C68.2101 80.697 68.4034 79.9497 68.592 79.2141L68.6015 79.2024L72.7107 65.1089L92.9313 81.8876L89.5671 96.1366C89.2276 97.6949 88.8669 99.3405 88.4803 101.073C88.0984 102.806 87.9098 104.454 87.9098 106.012C87.9098 110.687 89.7274 113.028 93.3651 113.028C94.3176 113.028 95.1828 112.875 95.9655 112.573C96.7435 112.269 97.4837 111.902 98.1745 111.468C99.8224 110.346 101.096 108.848 102.006 106.991C102.92 105.126 103.976 101.731 105.191 96.7967L105.971 93.4207L97.7336 93.4066L99.3344 87.1614L125.277 108.53L120.526 127.591H103.894L105.059 120.198L103.111 122.013C98.6083 125.898 94.0158 128.187 89.3384 128.878C86.0473 129.31 83.3149 129.524 81.153 129.524C74.9998 129.524 70.5181 128.032 67.6985 125.042Z" fill="#E0E0E0"/>
<path d="M136.251 63.661H112.208L112.338 63.0103L113.246 59.3703C113.503 58.3306 113.675 57.3121 113.762 56.3149C113.847 55.3177 113.892 54.2992 113.892 53.2595C113.892 50.2254 112.333 48.7071 109.214 48.7071C108.696 48.7071 107.68 48.9476 106.161 49.4238C104.648 49.9 103.262 51.2202 102.005 53.3868C100.748 55.5534 99.3433 59.2783 97.785 64.5616L93.0981 81.1941L89.5665 96.1339C89.2271 97.6945 88.8664 99.3401 88.4821 101.073C88.0978 102.806 87.9068 104.451 87.9068 106.012C87.9068 110.689 89.7269 113.028 93.3646 113.028C94.3194 113.028 95.1846 112.877 95.9649 112.573C96.7453 112.271 97.4808 111.901 98.1739 111.47C99.8195 110.345 101.097 108.85 102.007 106.99C102.92 105.128 103.981 101.731 105.192 96.7963L105.97 93.4203L97.7331 93.4062L101.805 77.5564H133.002L120.526 127.591H103.893L105.06 120.197L103.113 122.013C98.6077 125.9 94.0176 128.187 89.3379 128.878C86.0467 129.312 83.3167 129.526 81.1525 129.526C74.9993 129.526 70.5176 128.034 67.7003 125.044C64.8854 122.057 63.4779 117.227 63.4756 110.557C63.4779 105.359 64.4304 98.2132 66.3353 89.1178L68.0233 81.4534C72.4437 63.7836 77.2955 51.6564 82.5788 45.0741C87.8668 38.4919 95.6632 34.5524 105.97 33.2534C109.613 32.7324 112.904 32.4731 115.848 32.4731C123.473 32.4731 129.063 34.0762 132.611 37.2801C136.166 40.4864 137.941 45.2934 137.941 51.7036C137.941 53.698 137.724 56.2088 137.29 59.2406C137.205 60.6269 136.859 62.1003 136.251 63.661Z" stroke="#191919" stroke-width="2.5" stroke-miterlimit="79.8403" stroke-linecap="round" stroke-linejoin="round"/>
</g>
<g filter="url(#filter2_d)">
<path d="M11.1204 106.881L33.1888 18.1174H56.7355L48.1068 52.7577L73.3802 18.1174H98.1616L66.1068 57.0743L79.4212 106.881H53.1615L46.7514 75.3204L40.7104 82.7168L34.6671 106.881H11.1204Z" fill="white" stroke="white" stroke-width="6" stroke-miterlimit="79.8403" stroke-linecap="round" stroke-linejoin="round"/>
<path d="M61.1349 106.881H53.166L47.6886 79.937L80.5127 106.975H61.1059C61.1148 106.942 61.126 106.915 61.1349 106.881ZM11.1204 106.881L22.9005 59.5192L44.8749 77.6176L40.7082 82.7171L34.6694 106.881H11.1204Z" fill="#E0E0E0"/>
<path d="M11.1204 106.881L33.1888 18.1177H56.7356L48.1068 52.7579L73.3802 18.1177H98.1616L66.1068 57.0746L79.4212 106.881H53.1615L46.7514 75.3206L40.7104 82.717L34.6671 106.881H11.1204Z" stroke="black" stroke-width="2.5" stroke-miterlimit="79.8403" stroke-linecap="round" stroke-linejoin="round"/>
</g>
<g filter="url(#filter3_d)">
<path d="M12.71 90.6538L20.4485 59.5319L33.246 59.5319C37.7426 59.5319 39.9903 61.3904 39.9903 65.1087C39.9903 66.4631 39.6731 68.0058 39.0375 69.7341C38.0833 72.4138 36.2802 74.1726 33.6268 75.0077L32.8929 75.2237C33.9301 75.3677 34.7583 75.822 35.3773 76.585C35.9977 77.3495 36.3079 78.3217 36.3079 79.5029C36.3079 79.9641 36.2789 80.338 36.2207 80.6261C36.1639 80.9141 36.1196 81.1315 36.0919 81.2756L34.5395 87.4119L34.4536 87.9741C34.3387 88.6942 34.2805 89.3133 34.2805 89.8326C34.2805 90.2065 34.2805 90.4807 34.2805 90.6538L26.1985 90.6538C26.1417 90.2508 26.1126 89.9918 26.1126 89.8769C26.1126 89.5307 26.2594 88.6527 26.553 87.2415L26.7289 86.4632L28.0943 80.7978C28.1234 80.7396 28.158 80.5748 28.201 80.3006C28.2439 80.0278 28.2661 79.8187 28.2661 79.6747C28.2661 78.4948 27.5778 77.9062 26.2012 77.9062L24.1364 77.909L20.9665 90.6538L12.71 90.6538ZM27.1831 72.6299C27.7606 72.6285 28.4253 72.4415 29.1759 72.0676C29.9279 71.6342 30.5054 70.921 30.9098 69.9266C31.3141 68.9323 31.5163 68.1042 31.5163 67.4408C31.5163 66.1155 30.6646 65.4536 28.9599 65.4522L27.226 65.4522L25.4493 72.6257L27.1831 72.6299Z" fill="#171696" stroke="white" stroke-width="1.5" stroke-miterlimit="79.8403" stroke-linecap="round"/>
<path d="M36.7467 84.9477C37.0916 82.3899 37.2771 81.0521 37.2993 80.9371C37.4142 80.3375 37.6801 79.2545 38.0956 77.6869C39.0401 74.161 39.9277 71.6489 40.7587 70.1505C41.519 68.7449 42.5908 67.6162 43.9743 66.7631C45.2414 66.0015 46.5681 65.5528 47.9516 65.4143C48.3657 65.3907 48.7576 65.3616 49.1274 65.327C49.4957 65.2924 49.9001 65.2758 50.3377 65.2758C52.5964 65.2758 54.2333 65.7369 55.2484 66.6593C56.2621 67.5816 56.7704 69.0911 56.7704 71.1878C56.7704 72.8011 56.4477 74.967 55.801 77.6869C54.9022 81.3983 54.009 84.0891 53.1213 85.7606C52.2336 87.4307 51.0869 88.7048 49.6799 89.58C48.4349 90.3639 47.0985 90.825 45.6694 90.9635C44.9769 91.0328 44.3191 91.0674 43.6973 91.0674C41.3915 91.0674 39.6452 90.6062 38.4584 89.6839C37.2702 88.7616 36.6775 87.4945 36.6775 85.8811C36.6775 85.7426 36.6886 85.5764 36.7121 85.3798C36.7343 85.1845 36.7467 85.0405 36.7467 84.9477ZM43.3553 85.6387C43.4245 86.3755 43.8621 86.7439 44.6681 86.7439C44.8758 86.7439 45.0836 86.7092 45.2913 86.64C45.8896 86.4794 46.3853 85.9946 46.7773 85.1887C47.1692 84.3813 47.7231 82.6655 48.4377 80.0384C48.644 79.2075 49.0013 77.5484 49.5082 75.0598C50.0164 72.5712 50.2699 71.1531 50.2699 70.8069C50.2699 70.0231 49.8309 69.6312 48.9556 69.6312C48.8642 69.6312 48.6787 69.6547 48.4031 69.7004C47.7799 69.886 47.273 70.3873 46.8811 71.2057C46.4892 72.0228 45.9353 73.7345 45.2221 76.3394C45.06 76.892 44.7097 78.3669 44.1682 80.764C43.6253 83.1612 43.3553 84.4505 43.3553 84.6361L43.3553 85.6387Z" fill="#171696" stroke="white" stroke-width="1.5" stroke-miterlimit="79.8403" stroke-linecap="round"/>
<path d="M55.1835 84.9477C55.5283 82.3899 55.7139 81.0521 55.7361 80.9371C55.851 80.3375 56.1169 79.2545 56.5324 77.6869C57.4768 74.161 58.3645 71.6489 59.1954 70.1505C59.9557 68.7449 61.0276 67.6162 62.4111 66.7631C63.6782 66.0015 65.0049 65.5528 66.3884 65.4143C66.8025 65.3907 67.1944 65.3616 67.5641 65.327C67.9325 65.2924 68.3369 65.2758 68.7745 65.2758C71.0332 65.2758 72.6701 65.7369 73.6852 66.6593C74.6989 67.5816 75.2072 69.0911 75.2072 71.1878C75.2072 72.8011 74.8845 74.967 74.2378 77.6869C73.339 81.3983 72.4458 84.0891 71.5581 85.7606C70.6704 87.4307 69.5237 88.7048 68.1167 89.58C66.8717 90.3639 65.5353 90.825 64.1061 90.9635C63.4137 91.0328 62.7559 91.0674 62.1341 91.0674C59.8283 91.0674 58.082 90.6062 56.8952 89.6839C55.707 88.7616 55.1143 87.4945 55.1143 85.8811C55.1143 85.7426 55.1253 85.5764 55.1489 85.3798C55.171 85.1845 55.1835 85.0405 55.1835 84.9477ZM61.792 85.6387C61.8613 86.3755 62.2989 86.7439 63.1049 86.7439C63.3126 86.7439 63.5203 86.7092 63.7281 86.64C64.3263 86.4794 64.8221 85.9946 65.214 85.1887C65.6059 84.3813 66.1599 82.6655 66.8745 80.0384C67.0808 79.2075 67.4381 77.5484 67.945 75.0598C68.4532 72.5712 68.7066 71.1531 68.7066 70.8069C68.7066 70.0231 68.2676 69.6312 67.3924 69.6312C67.301 69.6312 67.1154 69.6547 66.8399 69.7004C66.2167 69.886 65.7098 70.3873 65.3179 71.2057C64.926 72.0228 64.372 73.7345 63.6588 76.3394C63.4968 76.892 63.1464 78.3669 62.605 80.764C62.0621 83.1612 61.792 84.4505 61.792 84.6361L61.792 85.6387Z" fill="#171696" stroke="white" stroke-width="1.5" stroke-miterlimit="79.8403" stroke-linecap="round"/>
<path d="M72.4451 90.6533L78.634 65.7564L93.3994 65.7564L92.1211 70.9828L83.9602 70.9828L82.8537 75.406L90.4607 75.406L89.2157 80.3874L81.6087 80.3874L79.0495 90.6533L72.4451 90.6533Z" fill="#171696" stroke="white" stroke-width="1.5" stroke-miterlimit="79.8403" stroke-linecap="round"/>
<path d="M87.7581 90.6533L93.947 65.7564L100.553 65.7564L94.3625 90.6533L87.7581 90.6533Z" fill="#171696" stroke="white" stroke-width="1.5" stroke-miterlimit="79.8403" stroke-linecap="round"/>
<path d="M96.2971 90.6533L102.489 65.7564L109.614 65.7564L110.129 80.7641L113.863 65.7564L119.845 65.7564L113.619 90.6533L106.634 90.6533L106.017 75.7149L102.282 90.6533L96.2971 90.6533Z" fill="#171696" stroke="white" stroke-width="1.5" stroke-miterlimit="79.8403" stroke-linecap="round"/>
<path d="M136.135 73.6419L129.738 73.6419L129.773 73.4688L130.014 72.5008C130.083 72.2238 130.129 71.9538 130.151 71.6879C130.174 71.422 130.185 71.1506 130.185 70.875C130.185 70.0676 129.771 69.6632 128.942 69.6632C128.803 69.6632 128.533 69.727 128.129 69.8544C127.726 69.9804 127.357 70.3321 127.024 70.9082C126.689 71.4843 126.315 72.4759 125.899 73.8829L124.653 78.3075L123.713 82.2835C123.623 82.6989 123.527 83.1365 123.425 83.5977C123.322 84.0588 123.272 84.4965 123.272 84.9119C123.272 86.1569 123.755 86.7787 124.724 86.7787C124.977 86.7787 125.208 86.7385 125.416 86.6582C125.624 86.5765 125.819 86.4796 126.003 86.3632C126.442 86.0641 126.781 85.6667 127.024 85.1723C127.266 84.6765 127.549 83.7722 127.871 82.4593L128.078 81.5606L125.887 81.5578L126.97 77.3395L135.271 77.3395L131.951 90.6535L127.525 90.6535L127.837 88.6857L127.317 89.169C126.119 90.2035 124.898 90.8128 123.653 90.9956C122.776 91.1119 122.051 91.1687 121.475 91.1687C119.838 91.1687 118.644 90.7712 117.895 89.9763C117.146 89.1814 116.772 87.8963 116.77 86.1209C116.772 84.7374 117.025 82.836 117.532 80.4167L117.981 78.3768C119.158 73.6752 120.448 70.4485 121.854 68.6966C123.261 66.9448 125.336 65.8964 128.078 65.5516C129.047 65.4131 129.924 65.3439 130.706 65.3439C132.735 65.3439 134.222 65.7704 135.167 66.6235C136.113 67.4766 136.585 68.7548 136.585 70.4609C136.585 70.9913 136.528 71.6602 136.412 72.4662C136.39 72.836 136.297 73.2279 136.135 73.6419Z" fill="#171696" stroke="white" stroke-width="1.5" stroke-miterlimit="79.8403" stroke-linecap="round"/>
</g>
<mask id="mask0" mask-type="alpha" maskUnits="userSpaceOnUse" x="106" y="55" width="37" height="15">
<path d="M139.5 55.1158L108.204 55.1158L106.762 69.9297L142.5 69L139.5 55.1158Z" fill="#C4C4C4"/>
</mask>
<g mask="url(#mask0)">
<g filter="url(#filter4_d)">
<path d="M136.251 63.661H112.208L112.338 63.0103L113.246 59.3703C113.503 58.3306 113.675 57.3121 113.762 56.3149C113.847 55.3177 113.892 54.2992 113.892 53.2595C113.892 50.2254 112.333 48.7071 109.214 48.7071C108.696 48.7071 107.68 48.9476 106.161 49.4238C104.648 49.9 103.262 51.2203 102.005 53.3868C100.748 55.5534 99.3433 59.2783 97.785 64.5616L93.0981 81.1941L89.5665 96.1339C89.2271 97.6945 88.8664 99.3401 88.4821 101.073C88.0978 102.806 87.9068 104.451 87.9068 106.012C87.9068 110.689 89.7269 113.028 93.3646 113.028C94.3194 113.028 95.1846 112.877 95.9649 112.573C96.7453 112.271 97.4808 111.901 98.1739 111.47C99.8195 110.345 101.097 108.85 102.007 106.99C102.92 105.128 103.981 101.731 105.192 96.7963L105.97 93.4203L97.7331 93.4062L101.805 77.5564H133.002L120.526 127.591H103.893L105.06 120.197L103.113 122.013C98.6077 125.9 94.0176 128.187 89.3379 128.878C86.0467 129.312 83.3167 129.526 81.1525 129.526C74.9993 129.526 70.5176 128.034 67.7003 125.044C64.8854 122.057 63.4779 117.227 63.4756 110.557C63.4779 105.359 64.4304 98.2132 66.3353 89.1178L68.0233 81.4534C72.4437 63.7836 77.2955 51.6564 82.5788 45.0741C87.8668 38.4919 95.6632 34.5524 105.97 33.2534C109.613 32.7324 112.904 32.4731 115.848 32.4731C123.473 32.4731 129.063 34.0762 132.611 37.2801C136.166 40.4864 137.941 45.2934 137.941 51.7036C137.941 53.698 137.724 56.2088 137.29 59.2406C137.205 60.6269 136.859 62.1003 136.251 63.661Z" fill="white" stroke="white" stroke-width="6" stroke-miterlimit="79.8403" stroke-linecap="round" stroke-linejoin="round"/>
<path d="M136.251 63.661H112.208L112.338 63.0103L113.246 59.3703C113.503 58.3306 113.675 57.3121 113.762 56.3149C113.847 55.3177 113.892 54.2992 113.892 53.2595C113.892 50.2254 112.333 48.7071 109.214 48.7071C108.696 48.7071 107.68 48.9476 106.161 49.4238C104.648 49.9 103.262 51.2203 102.005 53.3868C100.748 55.5534 99.3433 59.2783 97.785 64.5616L93.0981 81.1941L89.5665 96.1339C89.2271 97.6945 88.8664 99.3401 88.4821 101.073C88.0978 102.806 87.9068 104.451 87.9068 106.012C87.9068 110.689 89.7269 113.028 93.3646 113.028C94.3194 113.028 95.1846 112.877 95.9649 112.573C96.7453 112.271 97.4808 111.901 98.1739 111.47C99.8195 110.345 101.097 108.85 102.007 106.99C102.92 105.128 103.981 101.731 105.192 96.7963L105.97 93.4203L97.7331 93.4062L101.805 77.5564H133.002L120.526 127.591H103.893L105.06 120.197L103.113 122.013C98.6077 125.9 94.0176 128.187 89.3379 128.878C86.0467 129.312 83.3167 129.526 81.1525 129.526C74.9993 129.526 70.5176 128.034 67.7003 125.044C64.8854 122.057 63.4779 117.227 63.4756 110.557C63.4779 105.359 64.4304 98.2132 66.3353 89.1178L68.0233 81.4534C72.4437 63.7836 77.2955 51.6564 82.5788 45.0741C87.8668 38.4919 95.6632 34.5524 105.97 33.2534C109.613 32.7324 112.904 32.4731 115.848 32.4731C123.473 32.4731 129.063 34.0762 132.611 37.2801C136.166 40.4864 137.941 45.2934 137.941 51.7036C137.941 53.698 137.724 56.2088 137.29 59.2406C137.205 60.6269 136.859 62.1003 136.251 63.661Z" fill="white" stroke="#191919" stroke-width="2.5" stroke-miterlimit="79.8403" stroke-linecap="round" stroke-linejoin="round"/>
</g>
</g>
<defs>
<filter id="filter0_d" x="56.4756" y="29.4731" width="88.4654" height="111.053" filterUnits="userSpaceOnUse" color-interpolation-filters="sRGB">
<feFlood flood-opacity="0" result="BackgroundImageFix"/>
<feColorMatrix in="SourceAlpha" type="matrix" values="0 0 0 0 0 0 0 0 0 0 0 0 0 0 0 0 0 0 127 0"/>
<feOffset dy="4"/>
<feGaussianBlur stdDeviation="2"/>
<feColorMatrix type="matrix" values="0 0 0 0 0 0 0 0 0 0 0 0 0 0 0 0 0 0 0.25 0"/>
<feBlend mode="normal" in2="BackgroundImageFix" result="effect1_dropShadow"/>
<feBlend mode="normal" in="SourceGraphic" in2="effect1_dropShadow" result="shape"/>
</filter>
<filter id="filter1_d" x="56.4756" y="29.4731" width="88.4654" height="111.053" filterUnits="userSpaceOnUse" color-interpolation-filters="sRGB">
<feFlood flood-opacity="0" result="BackgroundImageFix"/>
<feColorMatrix in="SourceAlpha" type="matrix" values="0 0 0 0 0 0 0 0 0 0 0 0 0 0 0 0 0 0 127 0"/>
<feOffset dy="4"/>
<feGaussianBlur stdDeviation="2"/>
<feColorMatrix type="matrix" values="0 0 0 0 0 0 0 0 0 0 0 0 0 0 0 0 0 0 0.25 0"/>
<feBlend mode="normal" in2="BackgroundImageFix" result="effect1_dropShadow"/>
<feBlend mode="normal" in="SourceGraphic" in2="effect1_dropShadow" result="shape"/>
</filter>
<filter id="filter2_d" x="8.12036" y="15.1174" width="101.041" height="102.763" filterUnits="userSpaceOnUse" color-interpolation-filters="sRGB">
<feFlood flood-opacity="0" result="BackgroundImageFix"/>
<feColorMatrix in="SourceAlpha" type="matrix" values="0 0 0 0 0 0 0 0 0 0 0 0 0 0 0 0 0 0 127 0"/>
<feOffset dx="4" dy="4"/>
<feGaussianBlur stdDeviation="2"/>
<feColorMatrix type="matrix" values="0 0 0 0 0 0 0 0 0 0 0 0 0 0 0 0 0 0 0.25 0"/>
<feBlend mode="normal" in2="BackgroundImageFix" result="effect1_dropShadow"/>
<feBlend mode="normal" in="SourceGraphic" in2="effect1_dropShadow" result="shape"/>
</filter>
<filter id="filter3_d" x="7.75073" y="58.782" width="133.584" height="41.1368" filterUnits="userSpaceOnUse" color-interpolation-filters="sRGB">
<feFlood flood-opacity="0" result="BackgroundImageFix"/>
<feColorMatrix in="SourceAlpha" type="matrix" values="0 0 0 0 0 0 0 0 0 0 0 0 0 0 0 0 0 0 127 0"/>
<feOffset dy="4"/>
<feGaussianBlur stdDeviation="2"/>
<feColorMatrix type="matrix" values="0 0 0 0 0 0 0 0 0 0 0 0 0 0 0 0 0 0 0.25 0"/>
<feBlend mode="normal" in2="BackgroundImageFix" result="effect1_dropShadow"/>
<feBlend mode="normal" in="SourceGraphic" in2="effect1_dropShadow" result="shape"/>
</filter>
<filter id="filter4_d" x="56.4756" y="29.4731" width="88.4654" height="111.053" filterUnits="userSpaceOnUse" color-interpolation-filters="sRGB">
<feFlood flood-opacity="0" result="BackgroundImageFix"/>
<feColorMatrix in="SourceAlpha" type="matrix" values="0 0 0 0 0 0 0 0 0 0 0 0 0 0 0 0 0 0 127 0"/>
<feOffset dy="4"/>
<feGaussianBlur stdDeviation="2"/>
<feColorMatrix type="matrix" values="0 0 0 0 0 0 0 0 0 0 0 0 0 0 0 0 0 0 0.25 0"/>
<feBlend mode="normal" in2="BackgroundImageFix" result="effect1_dropShadow"/>
<feBlend mode="normal" in="SourceGraphic" in2="effect1_dropShadow" result="shape"/>
</filter>
</defs>
</svg>
