<svg width="83" height="17" viewBox="0 0 83 17" fill="none" xmlns="http://www.w3.org/2000/svg">
<path d="M0.5 12.375V9H3.875V12.375H0.5ZM1.625 10.125V11.25H2.75V10.125H1.625ZM0.5 7.875V4.5H3.875V7.875H0.5ZM1.625 5.625V6.75H2.75V5.625H1.625ZM0.5 3.375V0H3.875V3.375H0.5ZM1.625 1.125V2.25H2.75V1.125H1.625ZM6.125 6.75V5.625H16.25V6.75H6.125ZM14 10.125V11.25H6.125V10.125H14ZM6.125 1.125H18.5V2.25H6.125V1.125ZM0.5 16.875V13.5H3.875V16.875H0.5ZM1.625 14.625V15.75H2.75V14.625H1.625ZM6.125 15.75V14.625H16.25V15.75H6.125Z" fill="#F2C94C"/>
<path d="M41.5 1.4502L49.7705 9.7295L48.9795 10.5205L48.25 9.7998V16.875H42.625V11.25H40.375V16.875H34.75V9.7998L34.0205 10.5205L33.2295 9.7295L41.5 1.4502ZM47.125 15.75V8.6748L41.5 3.0498L35.875 8.6748V15.75H39.25V10.125H43.75V15.75H47.125Z" fill="#F2C94C"/>
<path d="M71.25 6.75H72.375V7.875H71.25V6.75ZM74.625 13.5H75.75V14.625H74.625V13.5ZM78 6.75H79.125V7.875H78V6.75ZM74.625 6.75H75.75V7.875H74.625V6.75ZM71.25 9H72.375V10.125H71.25V9ZM67.875 9H69V10.125H67.875V9ZM78 9H79.125V10.125H78V9ZM74.625 9H75.75V10.125H74.625V9ZM71.25 11.25H72.375V12.375H71.25V11.25ZM67.875 11.25H69V12.375H67.875V11.25ZM78 11.25H79.125V12.375H78V11.25ZM74.625 11.25H75.75V12.375H74.625V11.25ZM71.25 13.5H72.375V14.625H71.25V13.5ZM67.875 13.5H69V14.625H67.875V13.5ZM82.5 1.125V16.875H64.5V1.125H67.875V0H69V1.125H78V0H79.125V1.125H82.5ZM65.625 2.25V4.5H81.375V2.25H79.125V3.375H78V2.25H69V3.375H67.875V2.25H65.625ZM81.375 15.75V5.625H65.625V15.75H81.375Z" fill="#F2C94C"/>
</svg>
