<svg width="60" height="82" viewBox="0 0 60 82" fill="none" xmlns="http://www.w3.org/2000/svg">
<g clip-path="url(#clip0)">
<rect y="0.873169" width="60" height="80.8" rx="2" fill="#4285F4"/>
<path d="M22.3999 44.4732H39.1999V77.5696C36.0768 79.2796 33.5176 80.0772 30.9681 80.1184C28.4164 80.1596 25.7483 79.446 22.3999 77.9104V44.4732Z" fill="#F2C94C" stroke="#333333" stroke-width="2.4"/>
<path d="M39.1679 71.8604C35.6431 76.616 31.7 77.4656 23.0225 77.4604" stroke="#333333" stroke-width="2.4"/>
<path d="M39.1679 66.0731C35.6431 70.8291 31.7 71.6787 23.0225 71.6731" stroke="#333333" stroke-width="2.4"/>
<path d="M39.1679 60.2859C35.6431 65.0419 31.7 65.8915 23.0225 65.8859" stroke="#333333" stroke-width="2.4"/>
<path d="M39.1679 54.4991C35.6431 59.2551 31.7 60.1047 23.0225 60.0991" stroke="#333333" stroke-width="2.4"/>
<path d="M39.1679 48.712C35.6431 53.468 31.7 54.3176 23.0225 54.312" stroke="#333333" stroke-width="2.4"/>
<path d="M38.4692 50.0732C32.5913 52.7512 29.1912 52.8688 22.9255 50.0732L2.3999 20.4732H57.5999L38.4692 50.0732Z" fill="#F2C94C" stroke="#333333" stroke-width="2.8" stroke-linejoin="round"/>
<path d="M58 17.0732C58 20.4613 55.4268 23.9799 50.2628 26.7685C45.1792 29.5138 38.0187 31.2732 30 31.2732C21.9813 31.2732 14.8209 29.5138 9.73708 26.7685C4.57312 23.9799 2 20.4613 2 17.0732C2 13.685 4.57312 10.1664 9.73708 7.37785C14.8209 4.63258 21.9813 2.87317 30 2.87317C38.0187 2.87317 45.1792 4.63258 50.2628 7.37785C55.4268 10.1664 58 13.685 58 17.0732Z" fill="#F2C94C" stroke="#333333" stroke-width="4"/>
<path d="M14.9119 8.37289L46.1119 25.2209" stroke="#333333" stroke-width="4.8"/>
<path d="M44.6882 8.37289L13.4882 25.2209" stroke="#333333" stroke-width="4.8"/>
</g>
<defs>
<clipPath id="clip0">
<rect y="0.873169" width="60" height="80.8" rx="2" fill="white"/>
</clipPath>
</defs>
</svg>
