<svg width="82" height="18" viewBox="0 0 82 18" fill="none" xmlns="http://www.w3.org/2000/svg">
<path d="M16.375 6.75V18H7.375V16.875H0.625V2.25H5.125C5.125 1.94531 5.184 1.65527 5.301 1.37988C5.424 1.10449 5.585 0.86719 5.784 0.66797C5.989 0.46289 6.227 0.30176 6.496 0.18457C6.771 0.0615198 7.064 0 7.375 0C7.68 0 7.97 0.0615198 8.245 0.18457C8.521 0.30176 8.758 0.46289 8.957 0.66797C9.162 0.86719 9.323 1.10449 9.44 1.37988C9.563 1.65527 9.625 1.94531 9.625 2.25H14.125V6.75H16.375ZM4 3.375V4.5H10.75V3.375H8.5C8.5 3.2812 8.5 3.1846 8.5 3.085C8.506 2.97949 8.509 2.87402 8.509 2.76855C8.509 2.56934 8.497 2.37305 8.474 2.17969C8.456 1.98047 8.406 1.80469 8.324 1.65234C8.248 1.49414 8.134 1.36816 7.981 1.27441C7.835 1.1748 7.633 1.125 7.375 1.125C7.117 1.125 6.912 1.1748 6.76 1.27441C6.613 1.36816 6.499 1.49414 6.417 1.65234C6.341 1.80469 6.291 1.98047 6.268 2.17969C6.25 2.37305 6.241 2.56934 6.241 2.76855C6.241 2.87402 6.241 2.97949 6.241 3.085C6.247 3.1846 6.25 3.2812 6.25 3.375H4ZM7.375 15.75V6.75H13V3.375H11.875V5.625H2.875V3.375H1.75V15.75H7.375ZM15.25 7.875H8.5V16.875H15.25V7.875Z" fill="#F2C94C"/>
<path d="M45 1.125V16.875H40.5V12.375H39.375V16.875H34.875V1.125H45ZM43.875 2.25H36V15.75H38.25V11.25H41.625V15.75H43.875V2.25ZM38.25 5.625H37.125V3.375H38.25V5.625ZM40.5 5.625H39.375V3.375H40.5V5.625ZM38.25 9H37.125V6.75H38.25V9ZM40.5 9H39.375V6.75H40.5V9ZM42.75 5.625H41.625V3.375H42.75V5.625ZM42.75 9H41.625V6.75H42.75V9Z" fill="#F2C94C"/>
<path d="M81.5 2.25V15.75H63.5V2.25H68.325L69.45 1.125H75.55L76.675 2.25H81.5ZM80.375 3.375H76.2L75.075 2.25H69.925L68.8 3.375H64.625V14.625H80.375V3.375ZM72.5 4.5C73.121 4.5 73.704 4.6172 74.249 4.8516C74.8 5.0859 75.277 5.4082 75.682 5.8184C76.092 6.2227 76.414 6.7002 76.648 7.251C76.883 7.7959 77 8.3789 77 9C77 9.6211 76.883 10.207 76.648 10.7578C76.414 11.3027 76.092 11.7803 75.682 12.1904C75.277 12.5947 74.8 12.9141 74.249 13.1484C73.704 13.3828 73.121 13.5 72.5 13.5C71.879 13.5 71.293 13.3828 70.742 13.1484C70.197 12.9141 69.72 12.5947 69.31 12.1904C68.905 11.7803 68.586 11.3027 68.352 10.7578C68.117 10.207 68 9.6211 68 9C68 8.3789 68.117 7.7959 68.352 7.251C68.586 6.7002 68.905 6.2227 69.31 5.8184C69.72 5.4082 70.197 5.0859 70.742 4.8516C71.293 4.6172 71.879 4.5 72.5 4.5ZM72.5 12.375C72.963 12.375 73.399 12.2871 73.81 12.1113C74.22 11.9297 74.577 11.6865 74.882 11.3818C75.187 11.0771 75.427 10.7197 75.603 10.3096C75.784 9.8994 75.875 9.4629 75.875 9C75.875 8.5371 75.784 8.1006 75.603 7.6904C75.427 7.2803 75.187 6.9229 74.882 6.6182C74.577 6.3135 74.22 6.0732 73.81 5.8975C73.399 5.7158 72.963 5.625 72.5 5.625C72.037 5.625 71.601 5.7158 71.19 5.8975C70.78 6.0732 70.423 6.3135 70.118 6.6182C69.813 6.9229 69.57 7.2803 69.389 7.6904C69.213 8.1006 69.125 8.5371 69.125 9C69.125 9.4629 69.213 9.8994 69.389 10.3096C69.57 10.7197 69.813 11.0771 70.118 11.3818C70.423 11.6865 70.78 11.9297 71.19 12.1113C71.601 12.2871 72.037 12.375 72.5 12.375ZM66.312 4.5C66.465 4.5 66.597 4.5557 66.708 4.667C66.819 4.7783 66.875 4.9102 66.875 5.0625C66.875 5.2148 66.819 5.3467 66.708 5.458C66.597 5.5693 66.465 5.625 66.312 5.625C66.16 5.625 66.028 5.5693 65.917 5.458C65.806 5.3467 65.75 5.2148 65.75 5.0625C65.75 4.9102 65.806 4.7783 65.917 4.667C66.028 4.5557 66.16 4.5 66.312 4.5Z" fill="#F2C94C"/>
</svg>
