<svg width="36" height="36" viewBox="0 0 36 36" fill="none" xmlns="http://www.w3.org/2000/svg">
<path d="M18.0954 34.0454C27.0325 34.0454 34.2774 26.8005 34.2774 17.8634C34.2774 8.92632 27.0325 1.6814 18.0954 1.6814C9.15838 1.6814 1.91345 8.92632 1.91345 17.8634C1.91345 26.8005 9.15838 34.0454 18.0954 34.0454Z" stroke="white" stroke-width="2"/>
<rect x="16" y="16" width="4" height="4" stroke="white" stroke-width="2"/>
<rect x="16" y="24" width="4" height="4" stroke="white" stroke-width="2"/>
<rect x="24" y="24" width="4" height="4" stroke="white" stroke-width="2"/>
<rect x="8" y="24" width="4" height="4" stroke="white" stroke-width="2"/>
<rect x="8" y="16" width="4" height="4" stroke="white" stroke-width="2"/>
<rect x="8" y="8" width="4" height="4" stroke="white" stroke-width="2"/>
<rect x="24" y="16" width="4" height="4" stroke="white" stroke-width="2"/>
<rect x="24" y="8" width="4" height="4" stroke="white" stroke-width="2"/>
<rect x="16" y="8" width="4" height="4" stroke="white" stroke-width="2"/>
<rect x="3" y="1.72949" width="32" height="32" stroke="white"/>
</svg>
