<svg width="32" height="32" viewBox="0 0 32 32" fill="none" xmlns="http://www.w3.org/2000/svg">
<path d="M31 16C31 24.2843 24.2843 31 16 31C7.71573 31 1 24.2843 1 16C1 7.71573 7.71573 1 16 1C24.2843 1 31 7.71573 31 16Z" stroke="white" stroke-width="2"/>
<rect x="14" y="14.1187" width="4" height="4" stroke="white" stroke-width="2"/>
<rect x="14" y="22.1187" width="4" height="4" stroke="white" stroke-width="2"/>
<rect x="22" y="22.1187" width="4" height="4" stroke="white" stroke-width="2"/>
<rect x="6" y="22.1187" width="4" height="4" stroke="white" stroke-width="2"/>
<rect x="6" y="14.1187" width="4" height="4" stroke="white" stroke-width="2"/>
<rect x="6" y="6.11865" width="4" height="4" stroke="white" stroke-width="2"/>
<rect x="22" y="14.1187" width="4" height="4" stroke="white" stroke-width="2"/>
<rect x="22" y="6.11865" width="4" height="4" stroke="white" stroke-width="2"/>
<rect x="14" y="6.11865" width="4" height="4" stroke="white" stroke-width="2"/>
</svg>
