<svg width="32" height="32" viewBox="0 0 32 32" fill="none" xmlns="http://www.w3.org/2000/svg">
<path d="M31 16C31 24.2843 24.2843 31 16 31C7.71573 31 1 24.2843 1 16C1 7.71573 7.71573 1 16 1C24.2843 1 31 7.71573 31 16Z" stroke="#F2C94C" stroke-width="2"/>
<path d="M31 16C31 16.6356 30.7098 17.32 30.0237 18.0297C29.333 18.7441 28.2852 19.4332 26.9129 20.0336C24.1712 21.2331 20.3137 22 16 22C11.6863 22 7.82877 21.2331 5.08711 20.0336C3.71479 19.4332 2.66703 18.7441 1.97631 18.0297C1.29024 17.32 1 16.6356 1 16C1 15.3644 1.29024 14.68 1.97631 13.9703C2.66703 13.2559 3.71479 12.5668 5.08711 11.9664C7.82877 10.7669 11.6863 10 16 10C20.3137 10 24.1712 10.7669 26.9129 11.9664C28.2852 12.5668 29.333 13.2559 30.0237 13.9703C30.7098 14.68 31 15.3644 31 16Z" stroke="#F2C94C" stroke-width="2"/>
<path d="M20 16C20 18.2091 18.2091 20 16 20C13.7909 20 12 18.2091 12 16C12 13.7909 13.7909 12 16 12C18.2091 12 20 13.7909 20 16Z" stroke="#F2C94C" stroke-width="2"/>
<rect width="32" height="32" stroke="white"/>
</svg>
