<svg width="150" height="202" viewBox="0 0 150 202" fill="none" xmlns="http://www.w3.org/2000/svg">
<path d="M56 109H98V191.741C90.1923 196.016 83.7943 198.01 77.4204 198.113C71.0412 198.216 64.371 196.432 56 192.593V109Z" fill="#C46D12" stroke="#333333" stroke-width="6"/>
<path d="M97.9199 177.468C89.1079 189.357 79.2501 191.481 57.5562 191.468" stroke="#333333" stroke-width="6"/>
<path d="M97.9199 163C89.1079 174.89 79.2501 177.014 57.5562 177" stroke="#333333" stroke-width="6"/>
<path d="M97.9199 148.532C89.1079 160.422 79.2501 162.546 57.5562 162.532" stroke="#333333" stroke-width="6"/>
<path d="M97.9199 134.065C89.1079 145.955 79.2501 148.079 57.5562 148.065" stroke="#333333" stroke-width="6"/>
<path d="M97.9199 119.597C89.1079 131.487 79.2501 133.611 57.5562 133.597" stroke="#333333" stroke-width="6"/>
<path d="M96.1733 123C81.4784 129.695 72.9783 129.989 57.3141 123L6 49H144L96.1733 123Z" fill="#C46D12" stroke="#333333" stroke-width="7" stroke-linejoin="round"/>
<path d="M145 40.5C145 48.9704 138.567 57.7669 125.657 64.7383C112.948 71.6015 95.0467 76 75 76C54.9533 76 37.0523 71.6015 24.3427 64.7383C11.4328 57.7669 5 48.9704 5 40.5C5 32.0296 11.4328 23.2331 24.3427 16.2617C37.0523 9.39854 54.9533 5 75 5C95.0467 5 112.948 9.39854 125.657 16.2617C138.567 23.2331 145 32.0296 145 40.5Z" fill="#C46D12" stroke="#333333" stroke-width="10"/>
<line y1="-6" x2="88.6459" y2="-6" transform="matrix(0.879905 0.475149 -0.879905 0.475149 32 21.6001)" stroke="#333333" stroke-width="12"/>
<line y1="-6" x2="88.6459" y2="-6" transform="matrix(-0.879905 0.475149 0.879905 0.475149 117 21.6001)" stroke="#333333" stroke-width="12"/>
</svg>
