<svg width="60" height="80" viewBox="0 0 60 80" fill="none" xmlns="http://www.w3.org/2000/svg">
<path d="M7.5 43.5329V40.1579H10.875V43.5329H7.5ZM8.625 41.2829V42.4079H9.75V41.2829H8.625ZM7.5 39.0329V35.6579H10.875V39.0329H7.5ZM8.625 36.7829V37.9079H9.75V36.7829H8.625ZM7.5 34.5329V31.1579H10.875V34.5329H7.5ZM8.625 32.2829V33.4079H9.75V32.2829H8.625ZM13.125 37.9079V36.7829H23.25V37.9079H13.125ZM21 41.2829V42.4079H13.125V41.2829H21ZM13.125 32.2829H25.5V33.4079H13.125V32.2829ZM7.5 48.0329V44.6579H10.875V48.0329H7.5ZM8.625 45.7829V46.9079H9.75V45.7829H8.625ZM13.125 46.9079V45.7829H23.25V46.9079H13.125Z" fill="#171696"/>
<path d="M51.375 37.9079V49.1579H42.375V48.0329H35.625V33.4079H40.125C40.125 33.1032 40.1836 32.8132 40.3008 32.5378C40.4238 32.2624 40.585 32.0251 40.7842 31.8259C40.9893 31.6208 41.2266 31.4597 41.4961 31.3425C41.7715 31.2194 42.0645 31.1579 42.375 31.1579C42.6797 31.1579 42.9697 31.2194 43.2451 31.3425C43.5205 31.4597 43.7578 31.6208 43.957 31.8259C44.1621 32.0251 44.3232 32.2624 44.4404 32.5378C44.5635 32.8132 44.625 33.1032 44.625 33.4079H49.125V37.9079H51.375ZM39 34.5329V35.6579H45.75V34.5329H43.5C43.5 34.4391 43.5 34.3425 43.5 34.2429C43.5059 34.1374 43.5088 34.0319 43.5088 33.9265C43.5088 33.7272 43.4971 33.5309 43.4736 33.3376C43.4561 33.1384 43.4062 32.9626 43.3242 32.8102C43.248 32.652 43.1338 32.5261 42.9814 32.4323C42.835 32.3327 42.6328 32.2829 42.375 32.2829C42.1172 32.2829 41.9121 32.3327 41.7598 32.4323C41.6133 32.5261 41.499 32.652 41.417 32.8102C41.3408 32.9626 41.291 33.1384 41.2676 33.3376C41.25 33.5309 41.2412 33.7272 41.2412 33.9265C41.2412 34.0319 41.2412 34.1374 41.2412 34.2429C41.2471 34.3425 41.25 34.4391 41.25 34.5329H39ZM42.375 46.9079V37.9079H48V34.5329H46.875V36.7829H37.875V34.5329H36.75V46.9079H42.375ZM50.25 39.0329H43.5V48.0329H50.25V39.0329Z" fill="#171696"/>
<path d="M16.5 9.4502L24.7705 17.7295L23.9795 18.5205L23.25 17.7998V24.875H17.625V19.25H15.375V24.875H9.75V17.7998L9.02051 18.5205L8.22949 17.7295L16.5 9.4502ZM22.125 23.75V16.6748L16.5 11.0498L10.875 16.6748V23.75H14.25V18.125H18.75V23.75H22.125Z" fill="#171696"/>
<path d="M48 9.125V24.875H43.5V20.375H42.375V24.875H37.875V9.125H48ZM46.875 10.25H39V23.75H41.25V19.25H44.625V23.75H46.875V10.25ZM41.25 13.625H40.125V11.375H41.25V13.625ZM43.5 13.625H42.375V11.375H43.5V13.625ZM41.25 17H40.125V14.75H41.25V17ZM43.5 17H42.375V14.75H43.5V17ZM45.75 13.625H44.625V11.375H45.75V13.625ZM45.75 17H44.625V14.75H45.75V17Z" fill="#171696"/>
<path d="M14.25 61.0658H15.375V62.1908H14.25V61.0658ZM17.625 67.8158H18.75V68.9408H17.625V67.8158ZM21 61.0658H22.125V62.1908H21V61.0658ZM17.625 61.0658H18.75V62.1908H17.625V61.0658ZM14.25 63.3158H15.375V64.4408H14.25V63.3158ZM10.875 63.3158H12V64.4408H10.875V63.3158ZM21 63.3158H22.125V64.4408H21V63.3158ZM17.625 63.3158H18.75V64.4408H17.625V63.3158ZM14.25 65.5658H15.375V66.6908H14.25V65.5658ZM10.875 65.5658H12V66.6908H10.875V65.5658ZM21 65.5658H22.125V66.6908H21V65.5658ZM17.625 65.5658H18.75V66.6908H17.625V65.5658ZM14.25 67.8158H15.375V68.9408H14.25V67.8158ZM10.875 67.8158H12V68.9408H10.875V67.8158ZM25.5 55.4408V71.1908H7.5V55.4408H10.875V54.3158H12V55.4408H21V54.3158H22.125V55.4408H25.5ZM8.625 56.5658V58.8158H24.375V56.5658H22.125V57.6908H21V56.5658H12V57.6908H10.875V56.5658H8.625ZM24.375 70.0658V59.9408H8.625V70.0658H24.375Z" fill="#171696"/>
<path d="M52.5 56.5658V70.0658H34.5V56.5658H39.3252L40.4502 55.4408H46.5498L47.6748 56.5658H52.5ZM51.375 57.6908H47.2002L46.0752 56.5658H40.9248L39.7998 57.6908H35.625V68.9408H51.375V57.6908ZM43.5 58.8158C44.1211 58.8158 44.7041 58.933 45.249 59.1674C45.7998 59.4017 46.2773 59.724 46.6816 60.1342C47.0918 60.5385 47.4141 61.016 47.6484 61.5668C47.8828 62.1117 48 62.6947 48 63.3158C48 63.9369 47.8828 64.5228 47.6484 65.0736C47.4141 65.6185 47.0918 66.0961 46.6816 66.5062C46.2773 66.9105 45.7998 67.2299 45.249 67.4642C44.7041 67.6986 44.1211 67.8158 43.5 67.8158C42.8789 67.8158 42.293 67.6986 41.7422 67.4642C41.1973 67.2299 40.7197 66.9105 40.3096 66.5062C39.9053 66.0961 39.5859 65.6185 39.3516 65.0736C39.1172 64.5228 39 63.9369 39 63.3158C39 62.6947 39.1172 62.1117 39.3516 61.5668C39.5859 61.016 39.9053 60.5385 40.3096 60.1342C40.7197 59.724 41.1973 59.4017 41.7422 59.1674C42.293 58.933 42.8789 58.8158 43.5 58.8158ZM43.5 66.6908C43.9629 66.6908 44.3994 66.6029 44.8096 66.4271C45.2197 66.2455 45.5771 66.0023 45.8818 65.6976C46.1865 65.3929 46.4268 65.0355 46.6025 64.6254C46.7842 64.2152 46.875 63.7787 46.875 63.3158C46.875 62.8529 46.7842 62.4164 46.6025 62.0062C46.4268 61.5961 46.1865 61.2386 45.8818 60.934C45.5771 60.6293 45.2197 60.389 44.8096 60.2133C44.3994 60.0316 43.9629 59.9408 43.5 59.9408C43.0371 59.9408 42.6006 60.0316 42.1904 60.2133C41.7803 60.389 41.4229 60.6293 41.1182 60.934C40.8135 61.2386 40.5703 61.5961 40.3887 62.0062C40.2129 62.4164 40.125 62.8529 40.125 63.3158C40.125 63.7787 40.2129 64.2152 40.3887 64.6254C40.5703 65.0355 40.8135 65.3929 41.1182 65.6976C41.4229 66.0023 41.7803 66.2455 42.1904 66.4271C42.6006 66.6029 43.0371 66.6908 43.5 66.6908ZM37.3125 58.8158C37.4648 58.8158 37.5967 58.8715 37.708 58.9828C37.8193 59.0941 37.875 59.226 37.875 59.3783C37.875 59.5306 37.8193 59.6625 37.708 59.7738C37.5967 59.8851 37.4648 59.9408 37.3125 59.9408C37.1602 59.9408 37.0283 59.8851 36.917 59.7738C36.8057 59.6625 36.75 59.5306 36.75 59.3783C36.75 59.226 36.8057 59.0941 36.917 58.9828C37.0283 58.8715 37.1602 58.8158 37.3125 58.8158Z" fill="#171696"/>
</svg>
