<svg width="512" height="512" viewBox="0 0 512 512" fill="none" xmlns="http://www.w3.org/2000/svg">
<circle cx="256" cy="256" r="249.173" fill="#171696" stroke="white" stroke-width="13.6533"/>
<g filter="url(#filter0_d)">
<g filter="url(#filter1_d)">
<path d="M465.069 217.296H383.005L383.447 215.075L386.545 202.651C387.423 199.102 388.01 195.626 388.308 192.222C388.597 188.818 388.75 185.341 388.75 181.793C388.75 171.436 383.431 166.254 372.785 166.254C371.015 166.254 367.546 167.075 362.364 168.7C357.198 170.326 352.466 174.832 348.177 182.227C343.888 189.622 339.092 202.337 333.773 220.37L317.775 277.143L305.72 328.137C304.562 333.464 303.33 339.081 302.019 344.996C300.707 350.91 300.055 356.527 300.055 361.854C300.055 377.82 306.268 385.802 318.684 385.802C321.943 385.802 324.897 385.287 327.56 384.249C330.224 383.219 332.735 381.956 335.1 380.483C340.717 376.645 345.079 371.543 348.185 365.194C351.299 358.837 354.92 347.241 359.057 330.398L361.712 318.875L333.596 318.827L347.493 264.726H453.98L411.395 435.509H354.623L358.606 410.274L351.959 416.47C336.581 429.74 320.913 437.545 304.94 439.903C293.706 441.384 284.388 442.116 277 442.116C255.997 442.116 240.7 437.022 231.084 426.818C221.475 416.623 216.671 400.134 216.663 377.369C216.671 359.625 219.922 335.235 226.424 304.189L232.186 278.028C247.274 217.715 263.835 176.321 281.869 153.853C299.919 131.386 326.53 117.939 361.712 113.505C374.145 111.727 385.379 110.842 395.429 110.842C421.454 110.842 440.533 116.314 452.644 127.25C464.779 138.194 470.839 154.602 470.839 176.482C470.839 183.289 470.098 191.86 468.618 202.208C468.328 206.94 467.145 211.969 465.069 217.296Z" fill="white"/>
<path d="M465.069 217.296H383.005L383.447 215.075L386.545 202.651C387.423 199.102 388.01 195.626 388.308 192.222C388.597 188.818 388.75 185.341 388.75 181.793C388.75 171.436 383.431 166.254 372.785 166.254C371.015 166.254 367.546 167.075 362.364 168.7C357.198 170.326 352.466 174.832 348.177 182.227C343.888 189.622 339.092 202.337 333.773 220.37L317.775 277.143L305.72 328.137C304.562 333.464 303.33 339.081 302.019 344.996C300.707 350.91 300.055 356.527 300.055 361.854C300.055 377.82 306.268 385.802 318.684 385.802C321.943 385.802 324.897 385.287 327.56 384.249C330.224 383.219 332.735 381.956 335.1 380.483C340.717 376.645 345.079 371.543 348.185 365.194C351.299 358.837 354.92 347.241 359.057 330.398L361.712 318.875L333.596 318.827L347.493 264.726H453.98L411.395 435.509H354.623L358.606 410.274L351.959 416.47C336.581 429.74 320.913 437.545 304.94 439.903C293.706 441.384 284.388 442.116 277 442.116C255.997 442.116 240.7 437.022 231.084 426.818C221.475 416.623 216.671 400.134 216.663 377.369C216.671 359.625 219.922 335.235 226.424 304.189L232.186 278.028C247.274 217.715 263.835 176.321 281.869 153.853C299.919 131.386 326.53 117.939 361.712 113.505C374.145 111.727 385.379 110.842 395.429 110.842C421.454 110.842 440.533 116.314 452.644 127.25C464.779 138.194 470.839 154.602 470.839 176.482C470.839 183.289 470.098 191.86 468.618 202.208C468.328 206.94 467.145 211.969 465.069 217.296Z" stroke="white" stroke-width="20.48" stroke-miterlimit="79.8403" stroke-linecap="round" stroke-linejoin="round"/>
</g>
<path d="M231.078 426.812C221.486 416.616 216.673 400.136 216.673 377.371C216.673 359.619 219.916 335.236 226.426 304.198L232.18 278.021C232.824 275.446 233.484 272.895 234.127 270.384L234.16 270.344L248.186 222.239L317.206 279.51L305.722 328.146C304.564 333.466 303.332 339.082 302.013 344.997C300.709 350.912 300.065 356.537 300.065 361.856C300.065 377.813 306.27 385.804 318.686 385.804C321.937 385.804 324.891 385.281 327.562 384.251C330.218 383.213 332.745 381.957 335.102 380.477C340.727 376.646 345.073 371.536 348.179 365.195C351.301 358.83 354.906 347.242 359.05 330.4L361.714 318.876L333.598 318.828L339.062 297.511L427.612 370.45L411.397 435.511H354.625L358.6 410.275L351.953 416.471C336.583 429.733 320.907 437.547 304.942 439.904C293.708 441.377 284.382 442.109 277.002 442.109C255.999 442.109 240.702 437.016 231.078 426.812Z" fill="#E0E0E0"/>
<path d="M465.069 217.296H383.005L383.447 215.075L386.545 202.651C387.423 199.102 388.01 195.626 388.308 192.222C388.597 188.818 388.75 185.341 388.75 181.793C388.75 171.436 383.431 166.254 372.785 166.254C371.015 166.254 367.546 167.075 362.364 168.7C357.198 170.326 352.466 174.832 348.177 182.227C343.888 189.622 339.092 202.337 333.773 220.37L317.775 277.143L305.72 328.137C304.562 333.464 303.33 339.081 302.019 344.996C300.707 350.91 300.055 356.527 300.055 361.854C300.055 377.82 306.268 385.802 318.684 385.802C321.943 385.802 324.897 385.287 327.56 384.249C330.224 383.219 332.735 381.956 335.1 380.483C340.717 376.645 345.079 371.543 348.185 365.194C351.299 358.837 354.92 347.241 359.057 330.398L361.712 318.875L333.596 318.827L347.493 264.726H453.98L411.395 435.509H354.623L358.606 410.274L351.959 416.47C336.581 429.74 320.913 437.545 304.94 439.903C293.706 441.384 284.388 442.116 277 442.116C255.997 442.116 240.7 437.022 231.084 426.818C221.475 416.623 216.671 400.134 216.663 377.369C216.671 359.625 219.922 335.235 226.424 304.189L232.186 278.028C247.274 217.715 263.835 176.321 281.869 153.853C299.919 131.386 326.53 117.939 361.712 113.505C374.145 111.727 385.379 110.842 395.429 110.842C421.454 110.842 440.533 116.314 452.644 127.25C464.779 138.194 470.839 154.602 470.839 176.482C470.839 183.289 470.098 191.86 468.618 202.208C468.328 206.94 467.145 211.969 465.069 217.296Z" stroke="#191919" stroke-width="8.53333" stroke-miterlimit="79.8403" stroke-linecap="round" stroke-linejoin="round"/>
</g>
<g filter="url(#filter2_d)">
<path d="M37.9575 364.82L113.284 61.8412H193.657L164.205 180.08L250.471 61.8412H335.058L225.645 194.814L271.091 364.82H181.458L159.578 257.094L138.958 282.34L118.331 364.82H37.9575Z" fill="white" stroke="white" stroke-width="20.48" stroke-miterlimit="79.8403" stroke-linecap="round" stroke-linejoin="round"/>
<path d="M208.674 364.821H181.473L162.777 272.852L274.817 365.142H208.575C208.605 365.027 208.643 364.936 208.674 364.821ZM37.9575 364.821L78.167 203.159L153.173 264.935L138.951 282.341L118.338 364.821H37.9575Z" fill="#E0E0E0"/>
<path d="M37.9575 364.821L113.284 61.8419H193.657L164.205 180.081L250.471 61.8419H335.058L225.645 194.815L271.091 364.821H181.458L159.578 257.095L138.958 282.341L118.331 364.821H37.9575Z" stroke="black" stroke-width="8.53333" stroke-miterlimit="79.8403" stroke-linecap="round" stroke-linejoin="round"/>
</g>
<g filter="url(#filter3_d)">
<path d="M43.3833 309.432L69.7977 203.202L113.48 203.202C128.828 203.202 136.5 209.546 136.5 222.238C136.5 226.861 135.418 232.127 133.248 238.026C129.991 247.173 123.837 253.176 114.78 256.026L112.274 256.764C115.815 257.255 118.642 258.806 120.755 261.41C122.872 264.02 123.931 267.338 123.931 271.37C123.931 272.944 123.832 274.22 123.633 275.204C123.439 276.187 123.288 276.929 123.194 277.421L117.895 298.366L117.602 300.285C117.209 302.743 117.011 304.856 117.011 306.629C117.011 307.905 117.011 308.841 117.011 309.432L89.4241 309.432C89.2303 308.056 89.131 307.172 89.131 306.78C89.131 305.598 89.6321 302.601 90.6342 297.784L91.2345 295.128L95.8953 275.79C95.9946 275.591 96.1128 275.029 96.2593 274.093C96.4058 273.162 96.4815 272.448 96.4815 271.956C96.4815 267.929 94.1322 265.92 89.4335 265.92L82.3856 265.929L71.5656 309.432L43.3833 309.432ZM92.785 247.91C94.7561 247.905 97.0251 247.267 99.5871 245.991C102.154 244.511 104.125 242.077 105.505 238.683C106.886 235.289 107.576 232.462 107.576 230.198C107.576 225.674 104.669 223.415 98.8497 223.41L92.9315 223.41L86.8668 247.896L92.785 247.91Z" fill="#171696" stroke="white" stroke-width="5.12" stroke-miterlimit="79.8403" stroke-linecap="round"/>
<path d="M125.429 289.955C126.606 281.224 127.239 276.658 127.315 276.265C127.707 274.219 128.615 270.522 130.033 265.171C133.257 253.136 136.287 244.562 139.123 239.447C141.718 234.649 145.377 230.797 150.099 227.885C154.424 225.285 158.952 223.753 163.675 223.281C165.088 223.2 166.426 223.101 167.688 222.983C168.945 222.865 170.326 222.808 171.819 222.808C179.529 222.808 185.116 224.382 188.581 227.53C192.041 230.678 193.776 235.831 193.776 242.987C193.776 248.494 192.675 255.887 190.467 265.171C187.399 277.839 184.351 287.024 181.321 292.729C178.291 298.43 174.377 302.779 169.574 305.766C165.324 308.442 160.763 310.016 155.885 310.489C153.521 310.725 151.276 310.843 149.153 310.843C141.283 310.843 135.322 309.269 131.271 306.121C127.216 302.973 125.192 298.648 125.192 293.141C125.192 292.668 125.23 292.101 125.311 291.43C125.386 290.763 125.429 290.271 125.429 289.955ZM147.986 292.313C148.222 294.828 149.716 296.086 152.467 296.086C153.176 296.086 153.885 295.967 154.594 295.731C156.636 295.183 158.329 293.528 159.666 290.777C161.004 288.021 162.895 282.165 165.334 273.198C166.038 270.361 167.258 264.698 168.988 256.204C170.723 247.71 171.588 242.869 171.588 241.688C171.588 239.012 170.089 237.674 167.102 237.674C166.79 237.674 166.156 237.755 165.216 237.911C163.089 238.544 161.359 240.255 160.021 243.049C158.683 245.838 156.792 251.68 154.358 260.572C153.805 262.458 152.609 267.492 150.761 275.675C148.908 283.857 147.986 288.258 147.986 288.891L147.986 292.313Z" fill="#171696" stroke="white" stroke-width="5.12" stroke-miterlimit="79.8403" stroke-linecap="round"/>
<path d="M188.36 289.955C189.537 281.224 190.17 276.658 190.246 276.265C190.638 274.219 191.546 270.522 192.964 265.171C196.188 253.136 199.218 244.562 202.054 239.447C204.649 234.649 208.308 230.797 213.03 227.885C217.355 225.285 221.883 223.753 226.606 223.281C228.019 223.2 229.357 223.101 230.619 222.983C231.876 222.865 233.257 222.808 234.75 222.808C242.46 222.808 248.047 224.382 251.512 227.53C254.972 230.678 256.707 235.831 256.707 242.987C256.707 248.494 255.606 255.887 253.398 265.171C250.33 277.839 247.281 287.024 244.251 292.729C241.221 298.43 237.308 302.779 232.505 305.766C228.255 308.442 223.694 310.016 218.816 310.489C216.452 310.725 214.207 310.843 212.084 310.843C204.214 310.843 198.253 309.269 194.202 306.121C190.146 302.973 188.123 298.648 188.123 293.141C188.123 292.668 188.161 292.101 188.241 291.43C188.317 290.763 188.36 290.271 188.36 289.955ZM210.917 292.313C211.153 294.828 212.647 296.086 215.398 296.086C216.107 296.086 216.816 295.967 217.525 295.731C219.567 295.183 221.259 293.528 222.597 290.777C223.935 288.021 225.826 282.165 228.265 273.198C228.969 270.361 230.189 264.698 231.919 256.204C233.654 247.71 234.519 242.869 234.519 241.688C234.519 239.012 233.02 237.674 230.033 237.674C229.721 237.674 229.087 237.755 228.147 237.911C226.02 238.544 224.289 240.255 222.952 243.049C221.614 245.838 219.723 251.68 217.289 260.572C216.736 262.458 215.54 267.492 213.692 275.675C211.839 283.857 210.917 288.258 210.917 288.891L210.917 292.313Z" fill="#171696" stroke="white" stroke-width="5.12" stroke-miterlimit="79.8403" stroke-linecap="round"/>
<path d="M247.279 309.43L268.404 224.448L318.803 224.448L314.44 242.288L286.584 242.288L282.807 257.386L308.772 257.386L304.523 274.389L278.558 274.389L269.822 309.43L247.279 309.43Z" fill="#171696" stroke="white" stroke-width="5.12" stroke-miterlimit="79.8403" stroke-linecap="round"/>
<path d="M299.547 309.43L320.672 224.448L343.22 224.448L322.09 309.43L299.547 309.43Z" fill="#171696" stroke="white" stroke-width="5.12" stroke-miterlimit="79.8403" stroke-linecap="round"/>
<path d="M328.694 309.43L349.829 224.448L374.149 224.448L375.907 275.675L388.651 224.448L409.072 224.448L387.819 309.43L363.977 309.43L361.873 258.44L349.124 309.43L328.694 309.43Z" fill="#171696" stroke="white" stroke-width="5.12" stroke-miterlimit="79.8403" stroke-linecap="round"/>
<path d="M464.673 251.365L442.839 251.365L442.957 250.774L443.78 247.47C444.016 246.524 444.172 245.602 444.248 244.695C444.328 243.787 444.366 242.861 444.366 241.92C444.366 239.164 442.953 237.784 440.121 237.784C439.648 237.784 438.727 238.001 437.346 238.436C435.971 238.866 434.713 240.067 433.574 242.033C432.43 244 431.154 247.384 429.736 252.187L425.482 267.29L422.272 280.861C421.965 282.279 421.639 283.773 421.289 285.347C420.939 286.921 420.769 288.415 420.769 289.833C420.769 294.082 422.419 296.205 425.723 296.205C426.588 296.205 427.377 296.068 428.086 295.793C428.795 295.515 429.462 295.184 430.09 294.787C431.589 293.766 432.747 292.409 433.574 290.721C434.401 289.029 435.366 285.942 436.467 281.461L437.171 278.393L429.693 278.384L433.39 263.986L461.723 263.986L450.393 309.431L435.285 309.431L436.349 302.714L434.576 304.363C430.488 307.895 426.318 309.974 422.069 310.598C419.077 310.995 416.6 311.189 414.633 311.189C409.046 311.189 404.971 309.833 402.414 307.119C399.857 304.406 398.58 300.019 398.576 293.959C398.58 289.237 399.445 282.747 401.176 274.489L402.707 267.526C406.725 251.478 411.131 240.464 415.928 234.484C420.731 228.505 427.812 224.927 437.171 223.75C440.48 223.277 443.473 223.04 446.143 223.04C453.068 223.04 458.145 224.496 461.369 227.408C464.597 230.32 466.209 234.683 466.209 240.507C466.209 242.317 466.015 244.6 465.618 247.351C465.543 248.613 465.226 249.951 464.673 251.365Z" fill="#171696" stroke="white" stroke-width="5.12" stroke-miterlimit="79.8403" stroke-linecap="round"/>
</g>
<mask id="mask0" mask-type="alpha" maskUnits="userSpaceOnUse" x="364" y="188" width="123" height="51">
<path d="M476.16 188.129L369.337 188.128L364.415 238.693L486.4 235.52L476.16 188.129Z" fill="#C4C4C4"/>
</mask>
<g mask="url(#mask0)">
<g filter="url(#filter4_d)">
<path d="M465.069 217.296H383.005L383.447 215.075L386.545 202.651C387.423 199.102 388.01 195.626 388.308 192.222C388.597 188.818 388.75 185.341 388.75 181.793C388.75 171.436 383.431 166.254 372.785 166.254C371.015 166.254 367.546 167.075 362.364 168.7C357.198 170.326 352.466 174.832 348.177 182.227C343.888 189.622 339.092 202.337 333.773 220.37L317.775 277.143L305.72 328.137C304.562 333.464 303.33 339.081 302.019 344.996C300.707 350.91 300.055 356.527 300.055 361.854C300.055 377.82 306.268 385.802 318.684 385.802C321.943 385.802 324.897 385.287 327.56 384.249C330.224 383.219 332.735 381.956 335.1 380.483C340.717 376.645 345.079 371.543 348.185 365.194C351.299 358.837 354.92 347.241 359.057 330.398L361.712 318.875L333.596 318.827L347.493 264.726H453.98L411.395 435.509H354.623L358.606 410.274L351.959 416.47C336.581 429.74 320.913 437.545 304.94 439.903C293.706 441.384 284.388 442.116 277 442.116C255.997 442.116 240.7 437.022 231.084 426.818C221.475 416.623 216.671 400.134 216.663 377.369C216.671 359.625 219.922 335.235 226.424 304.189L232.186 278.028C247.274 217.715 263.835 176.321 281.869 153.853C299.919 131.386 326.53 117.939 361.712 113.505C374.145 111.727 385.379 110.842 395.429 110.842C421.454 110.842 440.533 116.314 452.644 127.25C464.779 138.194 470.839 154.602 470.839 176.482C470.839 183.289 470.098 191.86 468.618 202.208C468.328 206.94 467.145 211.969 465.069 217.296Z" fill="white" stroke="white" stroke-width="20.48" stroke-miterlimit="79.8403" stroke-linecap="round" stroke-linejoin="round"/>
<path d="M465.069 217.296H383.005L383.447 215.075L386.545 202.651C387.423 199.102 388.01 195.626 388.308 192.222C388.597 188.818 388.75 185.341 388.75 181.793C388.75 171.436 383.431 166.254 372.785 166.254C371.015 166.254 367.546 167.075 362.364 168.7C357.198 170.326 352.466 174.832 348.177 182.227C343.888 189.622 339.092 202.337 333.773 220.37L317.775 277.143L305.72 328.137C304.562 333.464 303.33 339.081 302.019 344.996C300.707 350.91 300.055 356.527 300.055 361.854C300.055 377.82 306.268 385.802 318.684 385.802C321.943 385.802 324.897 385.287 327.56 384.249C330.224 383.219 332.735 381.956 335.1 380.483C340.717 376.645 345.079 371.543 348.185 365.194C351.299 358.837 354.92 347.241 359.057 330.398L361.712 318.875L333.596 318.827L347.493 264.726H453.98L411.395 435.509H354.623L358.606 410.274L351.959 416.47C336.581 429.74 320.913 437.545 304.94 439.903C293.706 441.384 284.388 442.116 277 442.116C255.997 442.116 240.7 437.022 231.084 426.818C221.475 416.623 216.671 400.134 216.663 377.369C216.671 359.625 219.922 335.235 226.424 304.189L232.186 278.028C247.274 217.715 263.835 176.321 281.869 153.853C299.919 131.386 326.53 117.939 361.712 113.505C374.145 111.727 385.379 110.842 395.429 110.842C421.454 110.842 440.533 116.314 452.644 127.25C464.779 138.194 470.839 154.602 470.839 176.482C470.839 183.289 470.098 191.86 468.618 202.208C468.328 206.94 467.145 211.969 465.069 217.296Z" fill="white" stroke="#191919" stroke-width="8.53333" stroke-miterlimit="79.8403" stroke-linecap="round" stroke-linejoin="round"/>
</g>
</g>
<defs>
<filter id="filter0_d" x="192.77" y="100.602" width="301.962" height="379.061" filterUnits="userSpaceOnUse" color-interpolation-filters="sRGB">
<feFlood flood-opacity="0" result="BackgroundImageFix"/>
<feColorMatrix in="SourceAlpha" type="matrix" values="0 0 0 0 0 0 0 0 0 0 0 0 0 0 0 0 0 0 127 0"/>
<feOffset dy="13.6533"/>
<feGaussianBlur stdDeviation="6.82667"/>
<feColorMatrix type="matrix" values="0 0 0 0 0 0 0 0 0 0 0 0 0 0 0 0 0 0 0.25 0"/>
<feBlend mode="normal" in2="BackgroundImageFix" result="effect1_dropShadow"/>
<feBlend mode="normal" in="SourceGraphic" in2="effect1_dropShadow" result="shape"/>
</filter>
<filter id="filter1_d" x="192.77" y="100.602" width="301.962" height="379.061" filterUnits="userSpaceOnUse" color-interpolation-filters="sRGB">
<feFlood flood-opacity="0" result="BackgroundImageFix"/>
<feColorMatrix in="SourceAlpha" type="matrix" values="0 0 0 0 0 0 0 0 0 0 0 0 0 0 0 0 0 0 127 0"/>
<feOffset dy="13.6533"/>
<feGaussianBlur stdDeviation="6.82667"/>
<feColorMatrix type="matrix" values="0 0 0 0 0 0 0 0 0 0 0 0 0 0 0 0 0 0 0.25 0"/>
<feBlend mode="normal" in2="BackgroundImageFix" result="effect1_dropShadow"/>
<feBlend mode="normal" in="SourceGraphic" in2="effect1_dropShadow" result="shape"/>
</filter>
<filter id="filter2_d" x="27.7175" y="51.6011" width="344.888" height="350.766" filterUnits="userSpaceOnUse" color-interpolation-filters="sRGB">
<feFlood flood-opacity="0" result="BackgroundImageFix"/>
<feColorMatrix in="SourceAlpha" type="matrix" values="0 0 0 0 0 0 0 0 0 0 0 0 0 0 0 0 0 0 127 0"/>
<feOffset dx="13.6533" dy="13.6533"/>
<feGaussianBlur stdDeviation="6.82667"/>
<feColorMatrix type="matrix" values="0 0 0 0 0 0 0 0 0 0 0 0 0 0 0 0 0 0 0.25 0"/>
<feBlend mode="normal" in2="BackgroundImageFix" result="effect1_dropShadow"/>
<feBlend mode="normal" in="SourceGraphic" in2="effect1_dropShadow" result="shape"/>
</filter>
<filter id="filter3_d" x="26.4556" y="200.642" width="455.967" height="140.414" filterUnits="userSpaceOnUse" color-interpolation-filters="sRGB">
<feFlood flood-opacity="0" result="BackgroundImageFix"/>
<feColorMatrix in="SourceAlpha" type="matrix" values="0 0 0 0 0 0 0 0 0 0 0 0 0 0 0 0 0 0 127 0"/>
<feOffset dy="13.6533"/>
<feGaussianBlur stdDeviation="6.82667"/>
<feColorMatrix type="matrix" values="0 0 0 0 0 0 0 0 0 0 0 0 0 0 0 0 0 0 0.25 0"/>
<feBlend mode="normal" in2="BackgroundImageFix" result="effect1_dropShadow"/>
<feBlend mode="normal" in="SourceGraphic" in2="effect1_dropShadow" result="shape"/>
</filter>
<filter id="filter4_d" x="192.77" y="100.602" width="301.962" height="379.061" filterUnits="userSpaceOnUse" color-interpolation-filters="sRGB">
<feFlood flood-opacity="0" result="BackgroundImageFix"/>
<feColorMatrix in="SourceAlpha" type="matrix" values="0 0 0 0 0 0 0 0 0 0 0 0 0 0 0 0 0 0 127 0"/>
<feOffset dy="13.6533"/>
<feGaussianBlur stdDeviation="6.82667"/>
<feColorMatrix type="matrix" values="0 0 0 0 0 0 0 0 0 0 0 0 0 0 0 0 0 0 0.25 0"/>
<feBlend mode="normal" in2="BackgroundImageFix" result="effect1_dropShadow"/>
<feBlend mode="normal" in="SourceGraphic" in2="effect1_dropShadow" result="shape"/>
</filter>
</defs>
</svg>
