<svg width="512" height="512" viewBox="0 0 512 512" fill="none" xmlns="http://www.w3.org/2000/svg">
<circle cx="256" cy="256" r="249.173" fill="#171696" stroke="#171696" stroke-width="13.6533"/>
<g filter="url(#filter0_d)">
<g filter="url(#filter1_d)">
<path d="M474.408 219.405H399.998L400.4 217.391L403.209 206.125C404.004 202.908 404.537 199.756 404.807 196.669C405.07 193.583 405.208 190.431 405.208 187.213C405.208 177.822 400.385 173.124 390.732 173.124C389.127 173.124 385.982 173.868 381.283 175.342C376.599 176.816 372.308 180.902 368.419 187.607C364.53 194.312 360.182 205.841 355.359 222.192L340.853 273.669L329.923 319.906C328.873 324.737 327.756 329.83 326.567 335.192C325.378 340.555 324.787 345.648 324.787 350.479C324.787 364.955 330.419 372.193 341.678 372.193C344.633 372.193 347.311 371.726 349.726 370.785C352.141 369.851 354.417 368.705 356.563 367.37C361.656 363.889 365.61 359.263 368.427 353.507C371.25 347.742 374.534 337.228 378.284 321.957L380.692 311.508L355.198 311.464L367.799 262.41H464.353L425.74 417.263H374.264L377.876 394.381L371.849 400C357.905 412.031 343.699 419.109 329.216 421.247C319.03 422.589 310.58 423.253 303.882 423.253C284.838 423.253 270.968 418.635 262.249 409.383C253.537 400.138 249.181 385.188 249.173 364.546C249.181 348.457 252.128 326.342 258.024 298.192L263.248 274.471C276.929 219.784 291.945 182.251 308.297 161.88C324.663 141.508 348.792 129.316 380.692 125.295C391.965 123.683 402.151 122.88 411.264 122.88C434.861 122.88 452.161 127.842 463.142 137.758C474.145 147.681 479.639 162.558 479.639 182.397C479.639 188.57 478.968 196.341 477.626 205.724C477.363 210.014 476.29 214.575 474.408 219.405Z" fill="white"/>
<path d="M474.408 219.405H399.998L400.4 217.391L403.209 206.125C404.004 202.908 404.537 199.756 404.807 196.669C405.07 193.583 405.208 190.431 405.208 187.213C405.208 177.822 400.385 173.124 390.732 173.124C389.127 173.124 385.982 173.868 381.283 175.342C376.599 176.816 372.308 180.902 368.419 187.607C364.53 194.312 360.182 205.841 355.359 222.192L340.853 273.669L329.923 319.906C328.873 324.737 327.756 329.83 326.567 335.192C325.378 340.555 324.787 345.648 324.787 350.479C324.787 364.955 330.419 372.193 341.678 372.193C344.633 372.193 347.311 371.726 349.726 370.785C352.141 369.851 354.417 368.705 356.563 367.37C361.656 363.889 365.61 359.263 368.427 353.507C371.25 347.742 374.534 337.228 378.284 321.957L380.692 311.508L355.198 311.464L367.799 262.41H464.353L425.74 417.263H374.264L377.876 394.381L371.849 400C357.905 412.031 343.699 419.109 329.216 421.247C319.03 422.589 310.58 423.253 303.882 423.253C284.838 423.253 270.968 418.635 262.249 409.383C253.537 400.138 249.181 385.188 249.173 364.546C249.181 348.457 252.128 326.342 258.024 298.192L263.248 274.471C276.929 219.784 291.945 182.251 308.297 161.88C324.663 141.508 348.792 129.316 380.692 125.295C391.965 123.683 402.151 122.88 411.264 122.88C434.861 122.88 452.161 127.842 463.142 137.758C474.145 147.681 479.639 162.558 479.639 182.397C479.639 188.57 478.968 196.341 477.626 205.724C477.363 210.014 476.29 214.575 474.408 219.405Z" stroke="white" stroke-width="20.48" stroke-miterlimit="79.8403" stroke-linecap="round" stroke-linejoin="round"/>
</g>
<path d="M262.244 409.376C253.546 400.131 249.183 385.188 249.183 364.547C249.183 348.451 252.124 326.342 258.026 298.2L263.243 274.464C263.827 272.13 264.425 269.817 265.009 267.54L265.038 267.504L277.756 223.885L340.338 275.814L329.926 319.914C328.875 324.737 327.759 329.83 326.562 335.193C325.38 340.556 324.796 345.656 324.796 350.479C324.796 364.948 330.422 372.193 341.68 372.193C344.628 372.193 347.306 371.719 349.728 370.785C352.136 369.844 354.427 368.706 356.565 367.363C361.665 363.89 365.605 359.257 368.422 353.507C371.253 347.736 374.522 337.229 378.279 321.957L380.695 311.509L355.201 311.465L360.155 292.136L440.445 358.272L425.743 417.263H374.266L377.871 394.382L371.844 400C357.908 412.025 343.694 419.109 329.218 421.247C319.032 422.583 310.576 423.247 303.885 423.247C284.841 423.247 270.97 418.628 262.244 409.376Z" fill="#E0E0E0"/>
<path d="M474.408 219.405H399.998L400.4 217.391L403.209 206.125C404.004 202.908 404.537 199.756 404.807 196.669C405.07 193.583 405.208 190.431 405.208 187.213C405.208 177.822 400.385 173.124 390.732 173.124C389.127 173.124 385.982 173.868 381.283 175.342C376.599 176.816 372.308 180.902 368.419 187.607C364.53 194.312 360.182 205.841 355.359 222.192L340.853 273.669L329.923 319.906C328.873 324.737 327.756 329.83 326.567 335.192C325.378 340.555 324.787 345.648 324.787 350.479C324.787 364.955 330.419 372.193 341.678 372.193C344.633 372.193 347.311 371.726 349.726 370.785C352.141 369.851 354.417 368.705 356.563 367.37C361.656 363.889 365.61 359.263 368.427 353.507C371.25 347.742 374.534 337.228 378.284 321.957L380.692 311.508L355.198 311.464L367.799 262.41H464.353L425.74 417.263H374.264L377.876 394.381L371.849 400C357.905 412.031 343.699 419.109 329.216 421.247C319.03 422.589 310.58 423.253 303.882 423.253C284.838 423.253 270.968 418.635 262.249 409.383C253.537 400.138 249.181 385.188 249.173 364.546C249.181 348.457 252.128 326.342 258.024 298.192L263.248 274.471C276.929 219.784 291.945 182.251 308.297 161.88C324.663 141.508 348.792 129.316 380.692 125.295C391.965 123.683 402.151 122.88 411.264 122.88C434.861 122.88 452.161 127.842 463.142 137.758C474.145 147.681 479.639 162.558 479.639 182.397C479.639 188.57 478.968 196.341 477.626 205.724C477.363 210.014 476.29 214.575 474.408 219.405Z" stroke="#171696" stroke-width="8.53333" stroke-miterlimit="79.8403" stroke-linecap="round" stroke-linejoin="round"/>
</g>
<g filter="url(#filter2_d)">
<path d="M37.5469 364.911L112.147 64.853H191.746L162.577 181.952L248.012 64.853H331.783L223.425 196.544L268.433 364.911H179.664L157.995 258.223L137.574 283.226L117.145 364.911H37.5469Z" fill="white" stroke="white" stroke-width="20.48" stroke-miterlimit="79.8403" stroke-linecap="round" stroke-linejoin="round"/>
<path d="M206.617 364.909H179.679L161.163 273.826L272.123 365.227H206.519C206.549 365.113 206.587 365.022 206.617 364.909ZM37.5469 364.909L77.3686 204.805L151.652 265.986L137.566 283.224L117.153 364.909H37.5469Z" fill="#E0E0E0"/>
<path d="M37.5469 364.912L112.147 64.8538H191.746L162.577 181.953L248.012 64.8538H331.783L223.425 196.545L268.433 364.912H179.664L157.995 258.224L137.574 283.227L117.145 364.912H37.5469Z" stroke="#171696" stroke-width="8.53333" stroke-miterlimit="79.8403" stroke-linecap="round" stroke-linejoin="round"/>
</g>
<defs>
<filter id="filter0_d" x="225.28" y="112.64" width="278.253" height="348.16" filterUnits="userSpaceOnUse" color-interpolation-filters="sRGB">
<feFlood flood-opacity="0" result="BackgroundImageFix"/>
<feColorMatrix in="SourceAlpha" type="matrix" values="0 0 0 0 0 0 0 0 0 0 0 0 0 0 0 0 0 0 127 0"/>
<feOffset dy="13.6533"/>
<feGaussianBlur stdDeviation="6.82667"/>
<feColorMatrix type="matrix" values="0 0 0 0 0 0 0 0 0 0 0 0 0 0 0 0 0 0 0.25 0"/>
<feBlend mode="normal" in2="BackgroundImageFix" result="effect1_dropShadow"/>
<feBlend mode="normal" in="SourceGraphic" in2="effect1_dropShadow" result="shape"/>
</filter>
<filter id="filter1_d" x="225.28" y="112.64" width="278.253" height="348.16" filterUnits="userSpaceOnUse" color-interpolation-filters="sRGB">
<feFlood flood-opacity="0" result="BackgroundImageFix"/>
<feColorMatrix in="SourceAlpha" type="matrix" values="0 0 0 0 0 0 0 0 0 0 0 0 0 0 0 0 0 0 127 0"/>
<feOffset dy="13.6533"/>
<feGaussianBlur stdDeviation="6.82667"/>
<feColorMatrix type="matrix" values="0 0 0 0 0 0 0 0 0 0 0 0 0 0 0 0 0 0 0.25 0"/>
<feBlend mode="normal" in2="BackgroundImageFix" result="effect1_dropShadow"/>
<feBlend mode="normal" in="SourceGraphic" in2="effect1_dropShadow" result="shape"/>
</filter>
<filter id="filter2_d" x="27.3069" y="54.6133" width="342.023" height="347.845" filterUnits="userSpaceOnUse" color-interpolation-filters="sRGB">
<feFlood flood-opacity="0" result="BackgroundImageFix"/>
<feColorMatrix in="SourceAlpha" type="matrix" values="0 0 0 0 0 0 0 0 0 0 0 0 0 0 0 0 0 0 127 0"/>
<feOffset dx="13.6533" dy="13.6533"/>
<feGaussianBlur stdDeviation="6.82667"/>
<feColorMatrix type="matrix" values="0 0 0 0 0 0 0 0 0 0 0 0 0 0 0 0 0 0 0.25 0"/>
<feBlend mode="normal" in2="BackgroundImageFix" result="effect1_dropShadow"/>
<feBlend mode="normal" in="SourceGraphic" in2="effect1_dropShadow" result="shape"/>
</filter>
</defs>
</svg>
