<svg version="1" xmlns="http://www.w3.org/2000/svg" width="933.333" height="933.333" viewBox="0 0 700.000000 700.000000"><path d="M322.5 1.1c-73 6-140.4 33.5-197.2 80.6-12.9 10.6-37.6 36-48.6 49.8C8.5 216.8-16 329.3 10.6 435.2c26.5 105.7 102.1 194.2 202 236.6 30.1 12.8 59.2 20.7 93.7 25.4 23.3 3.2 64.1 3.2 87.4 0 41.8-5.7 76.2-16.1 111.6-33.8 48.6-24.2 88-56.3 121-98.7 63.9-82 87.8-189.1 65.2-291.2-12-54.3-37.3-105.3-73.6-148.5-36.6-43.6-85.6-79.1-138-100C431 5.5 374.3-3.1 322.5 1.1zM269.7 77c3.8 2.3 6.3 6.7 6.3 11 0 1.7-5 22.9-11 47.2-6.1 24.2-10.9 44.4-10.8 44.9.2.4 17.1-22.4 37.7-50.6 25.9-35.6 38.4-51.9 40.5-53 2.8-1.4 9.7-1.6 65.4-1.3l62.4.3 3.2 3.6c4.3 4.7 5.3 9.8 2.9 14.7-1 2.1-34.1 43-73.6 91L320.9 272l12.8 48c11.2 42 14.3 52.1 14.3 46.6 0-2.8 11.4-42.9 17-59.6 17.4-52.2 33.7-83.1 55.6-105.2 24.9-25 55.8-38.7 100.9-44.8 38.9-5.2 71.3-3.3 94.7 5.4 27.6 10.4 44.6 30.9 51.4 62.2 4.4 20.6.4 68.8-6.9 82-4.3 7.6-2.4 7.4-63 7.4-58 0-56.5.1-61.5-5.3-3.8-4-3.8-8.9-.2-23.8 2.5-10.2 3.3-15.8 3.4-23.4l.1-10-3.3-.3c-1.8-.2-5.5.4-8.2 1.3-12.1 4-17.7 16.8-36.5 83.1-10.8 37.8-24.9 94.6-31 124.6-5.9 29.4-1 39.9 15.1 32.4 11-5.1 16.5-14.1 23.3-38.2l3.9-13.9-10.7-.5c-5.8-.3-11.6-1.1-12.7-1.7-4.4-2.5-7.4-7.2-7.4-11.5 0-4.5 16.3-69.4 18.7-74.5.8-1.8 3-4.2 4.8-5.3 3.2-2 4.4-2 74.5-1.8l71.2.3 3.3 3.7c1.9 2 3.7 5.1 4 7 .5 2.5-6.1 30.4-26.5 111.8-14.9 59.7-27.8 109.5-28.6 110.7-3.4 5.3-4.2 5.4-47.8 5.1l-40.4-.3-2.6-2.4c-1.4-1.4-3.1-3.9-3.8-5.7l-1.1-3.2-5.1 3.1c-7 4.1-19.7 9.4-28.1 11.8-14.7 4.1-45 6.5-61.5 5-29.1-2.7-49.2-13.2-61.7-31.9-5.1-7.8-9.9-21-11.9-32.8-.9-5.5-1.8-10.9-2-12.2l-.4-2.2h-42.1c-46.6 0-46.9 0-50.8-6.4-1.3-2-5.8-22.5-13.6-61.1-6.4-31.9-12.1-58.4-12.5-58.8-.4-.5-2.2 1-4 3.3-3 3.8-4.4 8.5-17.2 59.8-14.8 59.3-14.7 58.9-21.5 61.8-4.8 2.1-114.8 2-119.7 0-3.8-1.6-7.1-5.7-8-10.1-.5-2.2 9.2-42.7 35.9-150 20.1-80.9 43.3-174.4 51.6-207.8C141 79.8 141.4 78.4 147.4 76c1.2-.5 28.4-.9 60.6-.9 56.3-.1 58.6 0 61.7 1.9z"/><path d="M149.7 84.2c-1.1.9-16.6 61.7-52.7 206.7-28 113-51 206.7-51 208.2 0 6.1-1 6 60.9 5.7 50.5-.3 56.4-.5 57.4-1.9.7-.9 7.4-26.6 15.1-57.2l13.8-55.5 9.6-11.8c8.9-11 9.6-11.6 10.3-9.3.5 1.3 6.7 31.6 13.9 67.4 11 54.1 13.5 65.3 15.2 66.7 1.9 1.7 6.4 1.8 63.4 1.8 63.4 0 65.7-.1 66.9-4.1.3-.9-13.2-53.3-30-116.3l-30.7-114.5 73.4-89.1c52.2-63.5 73.4-90 73.6-92 .2-1.6-.4-3.4-1.3-4.4-1.5-1.5-7.3-1.6-61.8-1.4l-60.1.3-49.4 67.8c-27.2 37.3-49.7 67.6-49.9 67.3-.3-.2 6.8-29.7 15.7-65.5 15.5-62.4 16.1-65.2 14.6-67.6L265 83h-56.8c-43.9 0-57.2.3-58.5 1.2zM254 95.6c0 1-8.3 35.2-18.5 76.2S217 247.5 217 248.9c0 3.5 1.7 5.1 5.5 5.1 3 0 5.8-3.7 61.5-80l58.3-80h49.4c27.1 0 49.3.2 49.3.4s-31.7 39-70.5 86.1c-46.6 56.6-70.5 86.5-70.5 88 0 1.2 13.3 51.8 29.5 112.6 16.2 60.7 29.5 110.7 29.5 111.1 0 .4-24.5.8-54.4.8h-54.3l-1.7-8.8c-7.5-38.3-26.9-132.1-27.6-133.9-1-2.5-5.1-3.9-7.3-2.6-.9.4-8.1 8.8-16.1 18.6-10.9 13.4-14.9 19-15.9 22.5-.8 2.6-7 27.1-13.8 54.4L155.5 493h-48.2c-26.6 0-48.3-.2-48.3-.5s3.6-15 8.1-32.8c4.4-17.7 26.2-105.4 48.4-194.8 22.2-89.5 40.9-164.5 41.5-166.8l1.1-4.1H206c43.9 0 48 .1 48 1.6z"/><path d="M546 162.6c-14.2 1.1-39.1 4.8-50 7.4-40.6 10-69.9 30.6-89.9 63.3-10.9 17.8-22.8 45-32.5 73.7-9.3 27.8-21.6 72.4-21.6 78.5 0 3.1 4.8 22.6 5.9 23.7.4.4 2.4-7.4 4.5-17.5 7.1-33.7 20.7-79.3 32.1-108.2 10-25.4 23.2-48.9 34.7-62.1 26.4-30.3 66.4-45.3 125.3-47.1 28.3-.9 46.4 2.1 62.8 10.3 14.9 7.5 26.3 23 30.4 41.4 3 13.4 2.2 42.9-1.8 62.7l-1 5.3h-90.6l2.3-10.1c7.9-35.2 1.2-52.3-20.6-52.4-5.1 0-9.8.7-14.9 2.3-6.5 2.1-8.3 3.2-13.7 8.6-11.7 11.7-18.9 30.1-37.3 95.8-8.9 31.6-22.8 87.6-29.2 117.8-2.8 13.5-3.2 31-.7 39 6.8 22 32.8 26.3 54.6 9 9.6-7.6 16.2-20 22.8-42.8 3.5-11.8 8.4-32.7 8.4-35.6 0-4.7-3-5.6-18.6-5.6h-14.2l6.9-27.1c3.8-14.9 7.1-27.5 7.5-28 .3-.5 25.1-.9 60-.9 46.9 0 59.4.3 59.4 1.2 0 .7-11.2 45.8-24.8 100.3l-24.7 99-29.3.3c-27.3.2-29.2.1-29.2-1.5 0-1 .7-5.9 1.5-10.8 2.1-12.8 2-16.1-.7-17.9-1.2-.9-2.8-1.6-3.5-1.6-.7 0-4.5 2.9-8.5 6.5-14.3 12.8-31.3 23.1-45.3 27.4-13.9 4.4-45 7.1-60 5.2-18.1-2.2-28.2-6.2-37.4-14.7-8.9-8.2-14.3-19.9-16.5-35.9l-1.2-8-6.2-.3-6.2-.3.5 2.8c.2 1.5.9 5.8 1.5 9.4 1.3 8.7 4.4 17.9 8.6 25.9 8.9 17 24.7 27.6 47 31.5 17.4 3 53.1 1.2 70.4-3.5 10-2.8 27.7-11.5 37.4-18.5l7.9-5.7-.7 4.4c-1.9 11.9-1.9 12.8-.1 14.8 1.7 1.9 3.2 2 39.6 2H585l1.4-2.3c1.6-2.5 53.8-210.7 53.9-215.1.1-5.8 2.4-5.6-71.5-5.6-63.8 0-67.9.1-69.6 1.8-2 2-19.5 68.7-19 72.4.5 3.9 4.2 4.8 19.1 4.8h13.9l-.7 3.2c-1.7 7.8-8.8 32.6-11.1 38.6-4.7 12.5-11.6 20.9-21.4 25.9-7.2 3.7-18.2 4-22.7.7-7.6-5.5-9.3-20.1-4.8-41.9 8.9-44.1 33.2-136.9 44.6-171 5.6-16.7 13-31.7 18.3-37 9.6-9.5 27.9-10.4 31.6-1.5 2.1 5.1.7 23.3-2.9 37.8-3.7 14.6-3.7 14.6-1.1 17.2 1.9 1.9 3.3 2 54.5 2h52.6l2.3-2.3c6.2-6.2 11.1-52.8 7.7-73.9-6.1-37.2-28.3-58.4-68.6-65.3-9-1.6-35.2-2.6-45.5-1.9z"/></svg>