<?xml version="1.0" standalone="no"?>
<!DOCTYPE svg PUBLIC "-//W3C//DTD SVG 20010904//EN"
 "http://www.w3.org/TR/2001/REC-SVG-20010904/DTD/svg10.dtd">
<svg version="1.0" xmlns="http://www.w3.org/2000/svg"
 width="700.000000pt" height="700.000000pt" viewBox="0 0 700.000000 700.000000"
 preserveAspectRatio="xMidYMid meet">
<metadata>
Created by potrace 1.11, written by Peter Selinger 2001-2013
</metadata>
<g transform="translate(0.000000,700.000000) scale(0.100000,-0.100000)"
fill="#000000" stroke="none">
<path d="M3305 6994 c-22 -2 -92 -9 -155 -15 -666 -61 -1303 -322 -1850 -758
-124 -99 -415 -389 -517 -516 -628 -783 -892 -1767 -738 -2747 58 -371 163
-697 336 -1038 495 -982 1437 -1680 2514 -1864 230 -40 358 -50 605 -50 247 0
375 10 605 50 785 134 1521 551 2044 1159 1028 1194 1132 2932 254 4237 -222
331 -558 674 -883 905 -478 339 -1030 549 -1625 619 -118 14 -512 26 -590 18z
m-608 -764 c39 -23 63 -67 63 -115 0 -19 -50 -234 -110 -476 -61 -243 -109
-443 -108 -444 2 -1 172 229 378 512 231 317 385 520 402 529 22 12 134 14
647 14 l620 0 36 -31 c47 -42 63 -96 43 -147 -8 -21 -221 -289 -479 -603 -256
-310 -581 -705 -722 -877 l-257 -312 129 -483 c71 -265 131 -475 134 -467 3 8
29 101 57 205 64 239 181 589 255 765 198 470 399 726 712 908 283 165 656
247 1123 247 258 0 333 -10 505 -66 295 -95 488 -317 551 -634 47 -233 1 -727
-78 -838 -42 -59 -26 -58 -633 -55 l-555 3 -36 36 c-51 51 -53 88 -14 250 24
99 32 158 33 233 l2 101 -28 3 c-15 2 -52 -4 -81 -12 -126 -37 -184 -172 -385
-886 -137 -484 -301 -1170 -316 -1322 -10 -94 2 -166 32 -196 21 -21 31 -24
69 -18 60 8 111 36 160 88 62 64 93 137 157 371 l25 87 -100 0 c-115 0 -157
14 -188 65 -12 19 -20 50 -20 74 0 45 160 683 185 739 8 17 29 41 47 52 32 19
52 20 736 20 638 0 707 -2 732 -17 32 -19 70 -80 70 -113 0 -39 -531 -2164
-549 -2195 -9 -16 -32 -38 -51 -50 -33 -19 -54 -20 -390 -23 -195 -2 -374 0
-398 3 -43 6 -112 55 -112 79 -1 37 -18 36 -113 -13 -178 -91 -305 -121 -586
-142 -583 -44 -927 180 -1000 651 -6 41 -14 90 -17 108 l-5 32 -422 0 c-393 0
-425 1 -457 19 -19 10 -43 31 -52 47 -9 16 -68 284 -134 609 -64 319 -120 584
-124 588 -4 5 -21 -9 -38 -31 -28 -34 -45 -96 -171 -596 -147 -590 -147 -587
-213 -622 -40 -21 -1152 -21 -1202 0 -40 17 -73 57 -81 100 -5 23 132 587 499
2066 279 1119 513 2058 521 2086 10 36 26 62 50 83 l36 31 592 0 c570 0 593
-1 624 -20z"/>
<path d="M1497 6156 c-16 -16 -33 -84 -628 -2480 -226 -907 -409 -1660 -407
-1674 6 -51 11 -52 595 -52 391 0 549 3 568 12 16 7 28 24 35 47 5 20 68 273
141 564 l132 527 88 110 c49 60 94 112 99 115 12 7 -2 70 146 -660 69 -341
130 -637 135 -658 7 -26 18 -41 35 -47 15 -6 271 -10 635 -10 l610 0 25 25
c15 15 23 33 20 43 -2 9 -141 526 -307 1149 l-302 1132 110 133 c1195 1451
1363 1659 1363 1681 0 13 -8 31 -18 40 -17 15 -74 17 -611 17 l-592 0 -22 -24
c-12 -13 -238 -321 -502 -684 -264 -364 -483 -661 -486 -661 -4 -1 68 296 158
659 159 635 165 661 149 685 l-16 25 -570 0 c-479 0 -571 -2 -583 -14z m1045
-101 c3 -3 -79 -344 -183 -758 -104 -414 -189 -766 -189 -782 0 -17 5 -36 12
-43 13 -13 57 -16 74 -4 6 4 271 364 588 800 l578 792 494 0 c272 0 494 -2
494 -5 0 -3 -317 -390 -705 -862 -408 -495 -705 -865 -705 -876 0 -11 133
-517 295 -1123 162 -607 295 -1108 295 -1114 0 -7 -184 -10 -545 -10 -300 0
-545 4 -545 8 0 11 -279 1383 -286 1405 -3 10 -16 25 -30 33 -22 15 -26 15
-48 0 -24 -15 -268 -307 -298 -356 -9 -14 -75 -265 -148 -557 l-132 -533 -484
0 c-266 0 -484 2 -484 5 0 3 169 686 376 1518 206 831 427 1721 490 1977 63
256 117 471 119 478 3 9 109 12 483 12 263 0 481 -2 484 -5z"/>
<path d="M5485 5373 c-458 -30 -771 -119 -1029 -290 -299 -199 -506 -530 -713
-1138 -64 -188 -171 -557 -204 -703 l-23 -102 29 -115 c16 -63 33 -115 36
-115 4 0 10 17 14 38 60 333 219 888 347 1212 275 697 600 972 1268 1071 207
30 518 37 664 14 340 -53 521 -199 598 -482 36 -134 30 -460 -14 -655 l-10
-48 -455 0 c-428 0 -454 1 -449 18 38 128 61 315 51 397 -9 62 -29 112 -58
143 -106 114 -356 82 -484 -63 -59 -67 -132 -217 -192 -400 -156 -469 -453
-1644 -476 -1880 -8 -89 8 -212 36 -268 25 -50 73 -103 112 -123 86 -46 216
-37 328 22 61 33 147 107 184 161 32 46 74 141 104 236 40 126 111 407 111
440 0 48 -29 57 -188 57 -132 0 -143 1 -138 18 3 9 33 125 66 257 33 132 65
250 70 263 l10 22 595 0 595 0 -1 -22 c0 -13 -112 -464 -247 -1003 l-247 -980
-292 -3 -293 -2 0 22 c0 13 7 64 15 113 19 114 19 149 0 165 -30 25 -64 14
-118 -37 -153 -143 -346 -256 -509 -297 -104 -26 -252 -40 -428 -39 -146 0
-188 4 -255 22 -222 59 -346 188 -395 409 -11 48 -22 104 -25 125 l-6 37 -58
0 -58 0 9 -67 c13 -101 54 -237 96 -317 75 -144 216 -247 407 -297 168 -44
567 -33 766 22 104 29 244 97 355 174 103 72 100 73 83 -36 -20 -116 -46 -109
402 -109 l379 0 13 23 c17 26 540 2115 540 2154 0 54 18 53 -713 53 -538 0
-680 -3 -694 -13 -26 -19 -202 -702 -189 -737 11 -33 36 -38 191 -39 72 -1
132 -4 132 -8 0 -23 -83 -321 -109 -392 -41 -112 -70 -159 -136 -219 -132
-121 -302 -124 -360 -7 -32 66 -33 212 -1 365 97 468 326 1342 446 1703 95
284 170 398 286 433 66 20 140 22 173 5 11 -6 28 -26 37 -43 26 -51 14 -231
-25 -391 -18 -70 -29 -136 -26 -148 4 -11 18 -24 32 -30 14 -5 240 -9 538 -9
474 0 514 1 533 18 80 68 121 619 63 837 -58 220 -183 376 -376 470 -176 86
-444 126 -720 108z"/>
</g>
</svg>
