<svg width="157" height="76" viewBox="0 0 157 76" fill="none" xmlns="http://www.w3.org/2000/svg">
<g id="branding">
<g id="branding/logo/svg">
<g id="BGvector">
<g id="Vector" filter="url(#filter0_d)">
<path fill-rule="evenodd" clip-rule="evenodd" d="M10.8568 34.484C17.2398 19.983 53.5028 10.176 91.7988 12.593C130.095 15.01 155.996 28.741 149.613 43.242C143.23 57.743 106.967 67.55 68.6708 65.133C30.3748 62.716 4.47379 48.985 10.8568 34.484Z" fill="white"/>
</g>
<path id="Vector_2" fill-rule="evenodd" clip-rule="evenodd" d="M68.8949 62.8489C31.2619 60.6109 5.81189 47.8979 12.0829 34.4719C18.3529 21.0459 53.9859 11.9669 91.6169 14.2049C112.888 15.4699 130.269 20.0829 140.227 26.2779C130.968 21.8079 116.859 18.5569 100.051 17.5789C66.1809 15.6099 34.1129 23.6059 28.4679 35.4309C22.8229 47.2559 45.7329 58.4539 79.6029 60.4229C98.7509 61.5379 117.406 59.6119 130.952 55.4639C115.673 61.3139 92.6389 64.2619 68.8949 62.8489Z" fill="black"/>
<path id="Vector_3" fill-rule="evenodd" clip-rule="evenodd" d="M71.3298 62.6048C34.6368 60.4058 9.81976 47.9108 15.9358 34.7168C22.0508 21.5228 56.7938 12.5998 93.4858 14.7988C114.226 16.0428 131.174 20.5758 140.884 26.6648C131.856 22.2708 118.099 19.0758 101.71 18.1148C68.6858 16.1788 37.4158 24.0378 31.9128 35.6588C26.4098 47.2798 48.7468 58.2848 81.7708 60.2208C100.441 61.3158 118.551 59.2798 131.761 55.2028C116.862 60.9518 94.4838 63.9928 71.3298 62.6048Z" fill="#00017F"/>
<g id="Vector_4" filter="url(#filter1_d)">
<path fill-rule="evenodd" clip-rule="evenodd" d="M70.6776 67.2909C43.4176 65.5719 22.4406 58.1199 14.9106 48.7379C23.7476 57.0879 43.5406 63.5459 68.6716 65.1319C106.968 67.5489 143.232 57.7409 149.615 43.2409C151.453 39.0629 150.612 34.9449 147.565 31.1469C152.192 35.5219 153.814 40.4149 151.619 45.3999C145.236 59.9009 108.973 69.7079 70.6776 67.2909Z" fill="black"/>
</g>
</g>
<g id="Roofing" filter="url(#filter2_d)">
<g id="Group 2">
<path id="Vector_5" d="M56.3838 49.189L61.9718 26.716H71.2128C74.4598 26.716 76.0828 28.058 76.0828 30.743C76.0828 31.721 75.8538 32.835 75.3948 34.083C74.7058 36.018 73.4038 37.288 71.4878 37.891L70.9578 38.047C71.7068 38.151 72.3048 38.479 72.7518 39.03C73.1998 39.582 73.4238 40.284 73.4238 41.137C73.4238 41.47 73.4028 41.74 73.3608 41.948C73.3198 42.156 73.2878 42.313 73.2678 42.417L72.1468 46.848L72.0848 47.254C72.0018 47.774 71.9598 48.221 71.9598 48.596C71.9598 48.866 71.9598 49.064 71.9598 49.189H66.1238C66.0828 48.898 66.0618 48.711 66.0618 48.628C66.0618 48.378 66.1678 47.744 66.3798 46.725L66.5068 46.163L67.4928 42.072C67.5138 42.03 67.5388 41.911 67.5698 41.713C67.6008 41.516 67.6168 41.365 67.6168 41.261C67.6168 40.409 67.1198 39.984 66.1258 39.984L64.6348 39.986L62.3458 49.189H56.3838ZM66.8348 36.174C67.2518 36.173 67.7318 36.038 68.2738 35.768C68.8168 35.455 69.2338 34.94 69.5258 34.222C69.8178 33.504 69.9638 32.906 69.9638 32.427C69.9638 31.47 69.3488 30.992 68.1178 30.991H66.8658L65.5828 36.171L66.8348 36.174Z" fill="black" stroke="white" stroke-width="0.5" stroke-miterlimit="79.8403" stroke-linecap="round"/>
<path id="Vector_6" d="M73.7407 45.069C73.9897 43.222 74.1237 42.256 74.1397 42.173C74.2227 41.74 74.4147 40.958 74.7147 39.826C75.3967 37.28 76.0377 35.466 76.6377 34.384C77.1867 33.369 77.9607 32.554 78.9597 31.938C79.8747 31.388 80.8327 31.064 81.8317 30.964C82.1307 30.947 82.4137 30.926 82.6807 30.901C82.9467 30.876 83.2387 30.864 83.5547 30.864C85.1857 30.864 86.3677 31.197 87.1007 31.863C87.8327 32.529 88.1997 33.619 88.1997 35.133C88.1997 36.298 87.9667 37.862 87.4997 39.826C86.8507 42.506 86.2057 44.449 85.5647 45.656C84.9237 46.862 84.0957 47.782 83.0797 48.414C82.1807 48.98 81.2157 49.313 80.1837 49.413C79.6837 49.463 79.2087 49.488 78.7597 49.488C77.0947 49.488 75.8337 49.155 74.9767 48.489C74.1187 47.823 73.6907 46.908 73.6907 45.743C73.6907 45.643 73.6987 45.523 73.7157 45.381C73.7317 45.24 73.7407 45.136 73.7407 45.069ZM78.5127 45.568C78.5627 46.1 78.8787 46.366 79.4607 46.366C79.6107 46.366 79.7607 46.341 79.9107 46.291C80.3427 46.175 80.7007 45.825 80.9837 45.243C81.2667 44.66 81.6667 43.421 82.1827 41.524C82.3317 40.924 82.5897 39.726 82.9557 37.929C83.3227 36.132 83.5057 35.108 83.5057 34.858C83.5057 34.292 83.1887 34.009 82.5567 34.009C82.4907 34.009 82.3567 34.026 82.1577 34.059C81.7077 34.193 81.3417 34.555 81.0587 35.146C80.7757 35.736 80.3757 36.972 79.8607 38.853C79.7437 39.252 79.4907 40.317 79.0997 42.048C78.7077 43.779 78.5127 44.71 78.5127 44.844V45.568Z" fill="black" stroke="white" stroke-width="0.5" stroke-miterlimit="79.8403" stroke-linecap="round"/>
<path id="Vector_7" d="M87.0539 45.069C87.3029 43.222 87.4369 42.256 87.4529 42.173C87.5359 41.74 87.7279 40.958 88.0279 39.826C88.7099 37.28 89.3509 35.466 89.9509 34.384C90.4999 33.369 91.2739 32.554 92.2729 31.938C93.1879 31.388 94.1459 31.064 95.1449 30.964C95.4439 30.947 95.7269 30.926 95.9939 30.901C96.2599 30.876 96.5519 30.864 96.8679 30.864C98.4989 30.864 99.6809 31.197 100.414 31.863C101.146 32.529 101.513 33.619 101.513 35.133C101.513 36.298 101.28 37.862 100.813 39.826C100.164 42.506 99.5189 44.449 98.8779 45.656C98.2369 46.862 97.4089 47.782 96.3929 48.414C95.4939 48.98 94.5289 49.313 93.4969 49.413C92.9969 49.463 92.5219 49.488 92.0729 49.488C90.4079 49.488 89.1469 49.155 88.2899 48.489C87.4319 47.823 87.0039 46.908 87.0039 45.743C87.0039 45.643 87.0119 45.523 87.0289 45.381C87.0449 45.24 87.0539 45.136 87.0539 45.069ZM91.8259 45.568C91.8759 46.1 92.1919 46.366 92.7739 46.366C92.9239 46.366 93.0739 46.341 93.2239 46.291C93.6559 46.175 94.0139 45.825 94.2969 45.243C94.5799 44.66 94.9799 43.421 95.4959 41.524C95.6449 40.924 95.9029 39.726 96.2689 37.929C96.6359 36.132 96.8189 35.108 96.8189 34.858C96.8189 34.292 96.5019 34.009 95.8699 34.009C95.8039 34.009 95.6699 34.026 95.4709 34.059C95.0209 34.193 94.6549 34.555 94.3719 35.146C94.0889 35.736 93.6889 36.972 93.1739 38.853C93.0569 39.252 92.8039 40.317 92.4129 42.048C92.0209 43.779 91.8259 44.71 91.8259 44.844V45.568Z" fill="black" stroke="white" stroke-width="0.5" stroke-miterlimit="79.8403" stroke-linecap="round"/>
<path id="Vector_8" d="M99.5178 49.189L103.987 31.211H114.649L113.726 34.985H107.833L107.034 38.179H112.527L111.628 41.776H106.135L104.287 49.189H99.5178Z" fill="black" stroke="white" stroke-width="0.5" stroke-miterlimit="79.8403" stroke-linecap="round"/>
<path id="Vector_9" d="M110.576 49.189L115.045 31.211H119.815L115.345 49.189H110.576Z" fill="black" stroke="white" stroke-width="0.5" stroke-miterlimit="79.8403" stroke-linecap="round"/>
<path id="Vector_10" d="M116.742 49.189L121.213 31.211H126.358L126.73 42.048L129.426 31.211H133.746L129.25 49.189H124.206L123.761 38.402L121.064 49.189H116.742Z" fill="black" stroke="white" stroke-width="0.5" stroke-miterlimit="79.8403" stroke-linecap="round"/>
<path id="Vector_11" d="M145.509 36.905H140.89L140.915 36.78L141.089 36.081C141.139 35.881 141.172 35.686 141.188 35.494C141.205 35.302 141.213 35.106 141.213 34.907C141.213 34.324 140.914 34.032 140.315 34.032C140.215 34.032 140.02 34.078 139.728 34.17C139.437 34.261 139.171 34.515 138.93 34.931C138.688 35.347 138.418 36.063 138.118 37.079L137.218 40.274L136.539 43.145C136.474 43.445 136.405 43.761 136.331 44.094C136.257 44.427 136.221 44.743 136.221 45.043C136.221 45.942 136.57 46.391 137.269 46.391C137.452 46.391 137.619 46.362 137.769 46.304C137.919 46.245 138.06 46.175 138.193 46.091C138.51 45.875 138.755 45.588 138.93 45.231C139.105 44.873 139.309 44.22 139.542 43.272L139.691 42.623L138.109 42.621L138.891 39.575H144.885L142.488 49.189H139.292L139.517 47.768L139.142 48.117C138.277 48.864 137.395 49.304 136.496 49.436C135.863 49.52 135.339 49.561 134.923 49.561C133.741 49.561 132.879 49.274 132.338 48.7C131.797 48.126 131.527 47.198 131.526 45.916C131.527 44.917 131.71 43.544 132.076 41.797L132.4 40.324C133.25 36.929 134.182 34.599 135.197 33.334C136.213 32.069 137.711 31.312 139.691 31.063C140.391 30.963 141.024 30.913 141.589 30.913C143.054 30.913 144.128 31.221 144.81 31.837C145.493 32.453 145.834 33.376 145.834 34.608C145.834 34.991 145.793 35.474 145.709 36.056C145.693 36.323 145.626 36.606 145.509 36.905Z" fill="black" stroke="white" stroke-width="0.5" stroke-miterlimit="79.8403" stroke-linecap="round"/>
</g>
</g>
<g id="G">
<g id="Group 4">
<g id="Group 5">
<g id="Vector_12" filter="url(#filter3_d)">
<path d="M56.5018 34.8159H46.3038L46.3588 34.5399L46.7438 32.9959C46.8528 32.5549 46.9258 32.1229 46.9628 31.6999C46.9988 31.2769 47.0178 30.8449 47.0178 30.4039C47.0178 29.1169 46.3568 28.4729 45.0338 28.4729C44.8138 28.4729 44.3828 28.5749 43.7388 28.7769C43.0968 28.9789 42.5088 29.5389 41.9758 30.4579C41.4428 31.3769 40.8468 32.9569 40.1858 35.1979L38.1978 42.2529L36.6998 48.5899C36.5558 49.2519 36.4028 49.9499 36.2398 50.6849C36.0768 51.4199 35.9958 52.1179 35.9958 52.7799C35.9958 54.7639 36.7678 55.7559 38.3108 55.7559C38.7158 55.7559 39.0828 55.6919 39.4138 55.5629C39.7448 55.4349 40.0568 55.2779 40.3508 55.0949C41.0488 54.6179 41.5908 53.9839 41.9768 53.1949C42.3638 52.4049 42.8138 50.9639 43.3278 48.8709L43.6578 47.4389L40.1638 47.4329L41.8908 40.7099H55.1238L49.8318 61.9329H42.7768L43.2718 58.7969L42.4458 59.5669C40.5348 61.2159 38.5878 62.1859 36.6028 62.4789C35.2068 62.6629 34.0488 62.7539 33.1308 62.7539C30.5208 62.7539 28.6198 62.1209 27.4248 60.8529C26.2308 59.5859 25.6338 57.5369 25.6328 54.7079C25.6338 52.5029 26.0378 49.4719 26.8458 45.6139L27.5618 42.3629C29.4368 34.8679 31.4948 29.7239 33.7358 26.9319C35.9788 24.1399 39.2858 22.4689 43.6578 21.9179C45.2028 21.6969 46.5988 21.5869 47.8478 21.5869C51.0818 21.5869 53.4528 22.2669 54.9578 23.6259C56.4658 24.9859 57.2188 27.0249 57.2188 29.7439C57.2188 30.5899 57.1268 31.6549 56.9428 32.9409C56.9068 33.5289 56.7598 34.1539 56.5018 34.8159Z" fill="white"/>
<path d="M56.5018 34.8159H46.3038L46.3588 34.5399L46.7438 32.9959C46.8528 32.5549 46.9258 32.1229 46.9628 31.6999C46.9988 31.2769 47.0178 30.8449 47.0178 30.4039C47.0178 29.1169 46.3568 28.4729 45.0338 28.4729C44.8138 28.4729 44.3828 28.5749 43.7388 28.7769C43.0968 28.9789 42.5088 29.5389 41.9758 30.4579C41.4428 31.3769 40.8468 32.9569 40.1858 35.1979L38.1978 42.2529L36.6998 48.5899C36.5558 49.2519 36.4028 49.9499 36.2398 50.6849C36.0768 51.4199 35.9958 52.1179 35.9958 52.7799C35.9958 54.7639 36.7678 55.7559 38.3108 55.7559C38.7158 55.7559 39.0828 55.6919 39.4138 55.5629C39.7448 55.4349 40.0568 55.2779 40.3508 55.0949C41.0488 54.6179 41.5908 53.9839 41.9768 53.1949C42.3638 52.4049 42.8138 50.9639 43.3278 48.8709L43.6578 47.4389L40.1638 47.4329L41.8908 40.7099H55.1238L49.8318 61.9329H42.7768L43.2718 58.7969L42.4458 59.5669C40.5348 61.2159 38.5878 62.1859 36.6028 62.4789C35.2068 62.6629 34.0488 62.7539 33.1308 62.7539C30.5208 62.7539 28.6198 62.1209 27.4248 60.8529C26.2308 59.5859 25.6338 57.5369 25.6328 54.7079C25.6338 52.5029 26.0378 49.4719 26.8458 45.6139L27.5618 42.3629C29.4368 34.8679 31.4948 29.7239 33.7358 26.9319C35.9788 24.1399 39.2858 22.4689 43.6578 21.9179C45.2028 21.6969 46.5988 21.5869 47.8478 21.5869C51.0818 21.5869 53.4528 22.2669 54.9578 23.6259C56.4658 24.9859 57.2188 27.0249 57.2188 29.7439C57.2188 30.5899 57.1268 31.6549 56.9428 32.9409C56.9068 33.5289 56.7598 34.1539 56.5018 34.8159Z" stroke="white" stroke-width="4" stroke-miterlimit="79.8403" stroke-linecap="round" stroke-linejoin="round"/>
</g>
</g>
</g>
</g>
<g id="KG" filter="url(#filter4_d)">
<path id="Vector_13" fill-rule="evenodd" clip-rule="evenodd" d="M27.1078 61.151C25.8028 59.766 25.1988 57.583 25.1978 54.708C25.1988 52.459 25.6098 49.394 26.4208 45.523L27.1378 42.264C29.0168 34.757 31.0918 29.532 33.3968 26.66C35.7258 23.761 39.1468 22.049 43.5998 21.488C45.1568 21.265 46.5738 21.153 47.8478 21.153C51.1278 21.153 53.6278 21.841 55.2488 23.304C56.8758 24.772 57.6528 26.946 57.6528 29.744C57.6528 30.619 57.5578 31.706 57.3708 33.003L57.2278 33.951C57.1488 34.286 57.0408 34.627 56.9058 34.974C56.8408 35.141 56.6808 35.251 56.5018 35.251H46.3038C46.0298 35.251 45.8238 35 45.8768 34.732L45.9348 34.441L46.3218 32.892C46.4258 32.472 46.4948 32.062 46.5298 31.663C46.5648 31.253 46.5828 30.833 46.5828 30.404C46.5828 29.368 46.1278 28.908 45.0338 28.908C44.8918 28.908 44.5258 28.986 43.8688 29.192C43.3758 29.347 42.8598 29.8 42.3508 30.676C41.8458 31.547 41.2618 33.084 40.6028 35.319L38.6178 42.362L37.1228 48.687C36.9798 49.345 36.8268 50.044 36.6638 50.78C36.5068 51.488 36.4298 52.154 36.4298 52.78C36.4298 54.632 37.1028 55.322 38.3108 55.322C38.6688 55.322 38.9818 55.265 39.2558 55.158C39.5618 55.04 39.8488 54.896 40.1128 54.732C40.7388 54.304 41.2318 53.729 41.5858 53.004C41.9498 52.261 42.3908 50.862 42.9048 48.771L43.1118 47.873L40.1628 47.868C39.8798 47.868 39.6718 47.6 39.7428 47.325L41.4698 40.602C41.5188 40.41 41.6918 40.276 41.8908 40.276H55.1238C55.4058 40.276 55.6128 40.542 55.5448 40.816L50.2528 62.039C50.2048 62.232 50.0308 62.368 49.8318 62.368H42.7768C42.5098 62.368 42.3058 62.129 42.3468 61.866L42.6478 59.959L41.2518 61.035C39.7568 62.05 38.2288 62.679 36.6628 62.91C35.2528 63.096 34.0738 63.189 33.1308 63.189C30.4598 63.189 28.4188 62.542 27.1078 61.151ZM36.5418 62.049C38.4238 61.771 40.2968 60.847 42.1548 59.244L42.9748 58.48C43.2758 58.199 43.7648 58.459 43.7008 58.865L43.2848 61.499H49.4918L54.5668 41.145H42.2268L40.7228 47L43.6578 47.005C43.9368 47.005 44.1438 47.265 44.0808 47.537L43.7498 48.972C43.2358 51.067 42.7768 52.55 42.3668 53.387C41.9488 54.24 41.3578 54.933 40.5878 55.459C40.2638 55.661 39.9268 55.831 39.5708 55.969C39.1828 56.12 38.7618 56.191 38.3108 56.191C36.4318 56.191 35.5608 54.897 35.5608 52.78C35.5608 52.083 35.6458 51.353 35.8148 50.591C35.9778 49.857 36.1308 49.16 36.2758 48.494L37.7768 42.145L39.7678 35.078C40.4308 32.831 41.0388 31.208 41.5998 30.241C42.1568 29.279 42.8168 28.612 43.6078 28.363C44.2388 28.165 44.7348 28.039 45.0338 28.039C46.5848 28.039 47.4518 28.867 47.4518 30.404C47.4518 30.858 47.4318 31.302 47.3948 31.738C47.3558 32.185 47.2788 32.639 47.1648 33.101L46.8458 34.382H56.1838L56.3818 33.752C56.4498 33.462 56.4918 33.183 56.5088 32.915L56.5118 32.88C56.6948 31.605 56.7838 30.562 56.7838 29.744C56.7838 27.105 56.0548 25.201 54.6658 23.949C53.2768 22.694 51.0348 22.022 47.8478 22.022C46.6228 22.022 45.2478 22.13 43.7148 22.349C39.4238 22.89 36.2308 24.52 34.0738 27.205C31.8968 29.917 29.8558 34.98 27.9848 42.463L27.2698 45.706C26.4648 49.551 26.0678 52.548 26.0668 54.709C26.0678 57.492 26.6578 59.407 27.7408 60.556C28.8198 61.701 30.5808 62.32 33.1308 62.32C34.0228 62.32 35.1598 62.231 36.5418 62.049Z" fill="#191919"/>
<g id="Group 7">
<g id="Group 8">
<path id="Vector_14" d="M27.4238 60.8519C26.2318 59.5849 25.6338 57.5369 25.6338 54.7079C25.6338 52.5019 26.0368 49.4719 26.8458 45.6149L27.5608 42.3619C27.6408 42.0419 27.7228 41.7249 27.8028 41.4129L27.8068 41.4079L29.5498 35.4299L38.1268 42.5469L36.6998 48.5909C36.5558 49.2519 36.4028 49.9499 36.2388 50.6849C36.0768 51.4199 35.9968 52.1189 35.9968 52.7799C35.9968 54.7629 36.7678 55.7559 38.3108 55.7559C38.7148 55.7559 39.0818 55.6909 39.4138 55.5629C39.7438 55.4339 40.0578 55.2779 40.3508 55.0939C41.0498 54.6179 41.5898 53.9829 41.9758 53.1949C42.3638 52.4039 42.8118 50.9639 43.3268 48.8709L43.6578 47.4389L40.1638 47.4329L40.8428 44.7839L51.8468 53.8479L49.8318 61.9329H42.7768L43.2708 58.7969L42.4448 59.5669C40.5348 61.2149 38.5868 62.1859 36.6028 62.4789C35.2068 62.6619 34.0478 62.7529 33.1308 62.7529C30.5208 62.7529 28.6198 62.1199 27.4238 60.8519Z" fill="#E5E5E5"/>
</g>
</g>
<path id="Vector_15" fill-rule="evenodd" clip-rule="evenodd" d="M26.9698 61.2819C25.6148 59.8449 25.0088 57.6019 25.0068 54.7079C25.0088 52.4389 25.4228 49.3589 26.2338 45.4829L26.9528 42.2199C28.8318 34.7079 30.9158 29.4469 33.2478 26.5409C35.6148 23.5949 39.0858 21.8649 43.5738 21.2989C45.1368 21.0759 46.5628 20.9619 47.8478 20.9619C51.1488 20.9619 53.7048 21.6529 55.3758 23.1629C57.0558 24.6769 57.8438 26.9119 57.8438 29.7439C57.8438 30.6309 57.7468 31.7279 57.5588 33.0299L57.4128 33.9949C57.3328 34.3389 57.2218 34.6879 57.0838 35.0429C56.9898 35.2829 56.7588 35.4409 56.5018 35.4409H46.3038C45.9098 35.4409 45.6138 35.0809 45.6908 34.6939L45.7498 34.3969L46.1368 32.8459C46.2388 32.4349 46.3058 32.0349 46.3398 31.6469C46.3738 31.2419 46.3928 30.8279 46.3928 30.4039C46.3928 29.4849 46.0268 29.0979 45.0338 29.0979C44.9258 29.0979 44.5888 29.1659 43.9258 29.3739C43.4978 29.5079 43.0138 29.9139 42.5158 30.7719C42.0238 31.6209 41.4448 33.1389 40.7858 35.3719L38.8028 42.4099L37.3088 48.7289C37.1658 49.3859 37.0128 50.0849 36.8498 50.8209C36.6948 51.5169 36.6208 52.1689 36.6208 52.7799C36.6208 54.5479 37.2158 55.1309 38.3108 55.1309C38.6488 55.1309 38.9378 55.0779 39.1868 54.9809C39.4818 54.8669 39.7588 54.7279 40.0088 54.5719C40.6028 54.1659 41.0748 53.6169 41.4148 52.9209C41.7688 52.1979 42.2058 50.8169 42.7188 48.7269L42.8708 48.0629L40.1618 48.0579C39.7548 48.0579 39.4568 47.6729 39.5578 47.2779L41.2848 40.5549C41.3558 40.2789 41.6048 40.0849 41.8908 40.0849H55.1238C55.5298 40.0849 55.8278 40.4679 55.7298 40.8619L50.4378 62.0849C50.3688 62.3629 50.1178 62.5579 49.8318 62.5579H42.7768C42.3928 62.5579 42.0988 62.2149 42.1588 61.8359L42.3848 60.4009L41.3598 61.1909C39.8438 62.2209 38.2888 62.8629 36.6888 63.0989C35.2728 63.2849 34.0858 63.3789 33.1308 63.3789C30.4338 63.3789 28.3308 62.7269 26.9698 61.2819ZM36.5158 61.8599C38.3518 61.5889 40.1928 60.6859 42.0278 59.1019L42.8448 58.3399C43.2778 57.9369 43.9808 58.3099 43.8888 58.8949L43.5078 61.3079H49.3428L54.3238 41.3349H42.3748L40.9688 46.8099L43.6588 46.8149C44.0598 46.8149 44.3568 47.1889 44.2668 47.5799L43.9358 49.0159C43.4208 51.1119 42.9578 52.6129 42.5378 53.4699C42.1058 54.3519 41.4938 55.0709 40.6918 55.6189C40.3538 55.8289 40.0068 56.0039 39.6398 56.1459C39.2268 56.3069 38.7818 56.3809 38.3108 56.3809C36.3018 56.3809 35.3708 54.9549 35.3708 52.7799C35.3708 52.0679 35.4578 51.3239 35.6288 50.5499C35.7918 49.8159 35.9448 49.1189 36.0898 48.4519L37.5918 42.0969L39.5848 35.0249C40.2478 32.7759 40.8608 31.1339 41.4348 30.1449C42.0028 29.1649 42.6948 28.4509 43.5508 28.1809C44.1758 27.9849 44.7008 27.8479 45.0338 27.8479C46.6928 27.8479 47.6428 28.7569 47.6428 30.4039C47.6428 30.8629 47.6228 31.3129 47.5848 31.7539C47.5448 32.2119 47.4658 32.6759 47.3498 33.1469L47.0898 34.1909H56.0438L56.1958 33.7089C56.2618 33.4279 56.3028 33.1589 56.3188 32.9029L56.3238 32.8529C56.5058 31.5829 56.5938 30.5499 56.5938 29.7439C56.5938 27.1389 55.8748 25.2959 54.5388 24.0899C53.1998 22.8819 51.0138 22.2119 47.8478 22.2119C46.6338 22.2119 45.2678 22.3189 43.7408 22.5379C39.4848 23.0739 36.3418 24.6859 34.2228 27.3239C32.0728 30.0019 30.0408 35.0289 28.1698 42.5069L27.4568 45.7459C26.6518 49.5859 26.2578 52.5679 26.2578 54.7089C26.2578 57.4729 26.8458 59.3279 27.8788 60.4249C28.9078 61.5159 30.6068 62.1289 33.1308 62.1289C34.0108 62.1289 35.1398 62.0419 36.5158 61.8599Z" fill="black"/>
<path id="Vector_16" fill-rule="evenodd" clip-rule="evenodd" d="M5.07893 41.0828L14.9459 1.39582C14.9939 1.20182 15.1679 1.06582 15.3679 1.06582H25.8959C26.1779 1.06582 26.3849 1.33183 26.3169 1.60582L22.9959 14.9368L32.9859 1.24382C33.0679 1.13182 33.1989 1.06582 33.3379 1.06582H44.4179C44.7839 1.06582 44.9859 1.49383 44.7529 1.77683L30.5629 19.0218L36.4579 41.0748C36.5319 41.3508 36.3239 41.6218 36.0389 41.6218H24.2979C24.0909 41.6218 23.9129 41.4758 23.8719 41.2738L21.1879 28.0608L19.1279 30.5828L16.4499 41.2928C16.4019 41.4858 16.2279 41.6218 16.0289 41.6218H5.50093C5.21793 41.6218 5.01093 41.3558 5.07893 41.0828ZM15.6889 40.7528L18.3089 30.2778C18.3239 30.2158 18.3539 30.1578 18.3939 30.1088L21.0949 26.8018C21.3259 26.5188 21.7849 26.6318 21.8569 26.9898L24.6529 40.7528H35.4729L29.6659 19.0308C29.6299 18.8948 29.6609 18.7508 29.7499 18.6418L43.4969 1.93483H33.5579L22.3889 17.2448C22.1089 17.6278 21.5009 17.3428 21.6159 16.8828L25.3389 1.93483H15.7069L6.05593 40.7528H15.6889Z" fill="#191919"/>
<g id="Group 9">
<g id="Group 10" filter="url(#filter5_d)">
<path id="Vector_17" d="M5.50098 41.187L15.368 1.50002H25.896L22.038 16.988L33.338 1.50002H44.418L30.086 18.918L36.039 41.187H24.298L21.432 27.076L18.731 30.383L16.029 41.187H5.50098Z" fill="white" stroke="white" stroke-width="3" stroke-miterlimit="79.8403" stroke-linecap="round" stroke-linejoin="round"/>
</g>
</g>
<g id="Group 11">
<g id="Group 12">
<path id="Vector_18" d="M27.863 41.187H24.3L21.851 29.14L36.527 41.229H27.85C27.854 41.214 27.859 41.202 27.863 41.187ZM5.50098 41.187L10.768 20.011L20.593 28.103L18.73 30.383L16.03 41.187H5.50098Z" fill="#E5E5E5"/>
</g>
</g>
<path id="Vector_19" fill-rule="evenodd" clip-rule="evenodd" d="M5.01486 41.067L14.8819 1.38001C14.9379 1.15701 15.1379 1.00002 15.3679 1.00002H25.8959C26.2199 1.00002 26.4589 1.30601 26.3809 1.62101L23.1409 14.628L32.9339 1.20602C33.0279 1.07701 33.1779 1.00002 33.3379 1.00002H44.4179C44.8389 1.00002 45.0709 1.49302 44.8039 1.81802L30.6349 19.038L36.5219 41.058C36.6059 41.376 36.3669 41.687 36.0389 41.687H24.2979C24.0599 41.687 23.8549 41.52 23.8079 41.287L21.1509 28.21L19.1879 30.613L16.5139 41.309C16.4579 41.531 16.2579 41.687 16.0289 41.687H5.50086C5.17586 41.687 4.93686 41.382 5.01486 41.067ZM15.6379 40.687L18.2449 30.262C18.2629 30.191 18.2969 30.124 18.3429 30.067L21.0439 26.76C21.3099 26.434 21.8379 26.565 21.9209 26.977L24.7059 40.687H35.3869L29.6019 19.048C29.5609 18.892 29.5969 18.725 29.6989 18.601L43.3589 2.00002H33.5919L22.4409 17.283C22.1199 17.724 21.4199 17.397 21.5519 16.868L25.2559 2.00002H15.7579L6.13986 40.687H15.6379Z" fill="black"/>
</g>
<g id="K">
<g id="Group 14">
<path id="Vector_20" d="M5.50098 41.187L15.368 1.50002H25.896L22.038 16.988L33.338 1.50002H44.418L30.086 18.918L36.039 41.187H24.298L21.432 27.076L18.731 30.383L16.029 41.187H5.50098Z" stroke="black" stroke-width="1.25" stroke-miterlimit="79.8403" stroke-linecap="round" stroke-linejoin="round"/>
</g>
</g>
</g>
</g>
<defs>
<filter id="filter0_d" x="5.89014" y="12.2268" width="148.689" height="61.2721" filterUnits="userSpaceOnUse" color-interpolation-filters="sRGB">
<feFlood flood-opacity="0" result="BackgroundImageFix"/>
<feColorMatrix in="SourceAlpha" type="matrix" values="0 0 0 0 0 0 0 0 0 0 0 0 0 0 0 0 0 0 127 0"/>
<feOffset dy="4"/>
<feGaussianBlur stdDeviation="2"/>
<feColorMatrix type="matrix" values="0 0 0 0 0 0 0 0 0 0 0 0 0 0 0 0 0 0 0.25 0"/>
<feBlend mode="normal" in2="BackgroundImageFix" result="effect1_dropShadow"/>
<feBlend mode="normal" in="SourceGraphic" in2="effect1_dropShadow" result="shape"/>
</filter>
<filter id="filter1_d" x="10.9106" y="31.147" width="145.675" height="44.5101" filterUnits="userSpaceOnUse" color-interpolation-filters="sRGB">
<feFlood flood-opacity="0" result="BackgroundImageFix"/>
<feColorMatrix in="SourceAlpha" type="matrix" values="0 0 0 0 0 0 0 0 0 0 0 0 0 0 0 0 0 0 127 0"/>
<feOffset dy="4"/>
<feGaussianBlur stdDeviation="2"/>
<feColorMatrix type="matrix" values="0 0 0 0 0 0 0 0 0 0 0 0 0 0 0 0 0 0 0.25 0"/>
<feBlend mode="normal" in2="BackgroundImageFix" result="effect1_dropShadow"/>
<feBlend mode="normal" in="SourceGraphic" in2="effect1_dropShadow" result="shape"/>
</filter>
<filter id="filter2_d" x="52.064" y="26.4661" width="98.0199" height="31.345" filterUnits="userSpaceOnUse" color-interpolation-filters="sRGB">
<feFlood flood-opacity="0" result="BackgroundImageFix"/>
<feColorMatrix in="SourceAlpha" type="matrix" values="0 0 0 0 0 0 0 0 0 0 0 0 0 0 0 0 0 0 127 0"/>
<feOffset dy="4"/>
<feGaussianBlur stdDeviation="2"/>
<feColorMatrix type="matrix" values="0 0 0 0 0 0 0 0 0 0 0 0 0 0 0 0 0 0 0.25 0"/>
<feBlend mode="normal" in2="BackgroundImageFix" result="effect1_dropShadow"/>
<feBlend mode="normal" in="SourceGraphic" in2="effect1_dropShadow" result="shape"/>
</filter>
<filter id="filter3_d" x="19.6328" y="19.5869" width="43.586" height="53.167" filterUnits="userSpaceOnUse" color-interpolation-filters="sRGB">
<feFlood flood-opacity="0" result="BackgroundImageFix"/>
<feColorMatrix in="SourceAlpha" type="matrix" values="0 0 0 0 0 0 0 0 0 0 0 0 0 0 0 0 0 0 127 0"/>
<feOffset dy="4"/>
<feGaussianBlur stdDeviation="2"/>
<feColorMatrix type="matrix" values="0 0 0 0 0 0 0 0 0 0 0 0 0 0 0 0 0 0 0.25 0"/>
<feBlend mode="normal" in2="BackgroundImageFix" result="effect1_dropShadow"/>
<feBlend mode="normal" in="SourceGraphic" in2="effect1_dropShadow" result="shape"/>
</filter>
<filter id="filter4_d" x="0.000976562" y="0" width="61.8429" height="71.3789" filterUnits="userSpaceOnUse" color-interpolation-filters="sRGB">
<feFlood flood-opacity="0" result="BackgroundImageFix"/>
<feColorMatrix in="SourceAlpha" type="matrix" values="0 0 0 0 0 0 0 0 0 0 0 0 0 0 0 0 0 0 127 0"/>
<feOffset dy="4"/>
<feGaussianBlur stdDeviation="2"/>
<feColorMatrix type="matrix" values="0 0 0 0 0 0 0 0 0 0 0 0 0 0 0 0 0 0 0.25 0"/>
<feBlend mode="normal" in2="BackgroundImageFix" result="effect1_dropShadow"/>
<feBlend mode="normal" in="SourceGraphic" in2="effect1_dropShadow" result="shape"/>
</filter>
<filter id="filter5_d" x="0.000976562" y="0" width="49.917" height="50.687" filterUnits="userSpaceOnUse" color-interpolation-filters="sRGB">
<feFlood flood-opacity="0" result="BackgroundImageFix"/>
<feColorMatrix in="SourceAlpha" type="matrix" values="0 0 0 0 0 0 0 0 0 0 0 0 0 0 0 0 0 0 127 0"/>
<feOffset dy="4"/>
<feGaussianBlur stdDeviation="2"/>
<feColorMatrix type="matrix" values="0 0 0 0 0 0 0 0 0 0 0 0 0 0 0 0 0 0 0.25 0"/>
<feBlend mode="normal" in2="BackgroundImageFix" result="effect1_dropShadow"/>
<feBlend mode="normal" in="SourceGraphic" in2="effect1_dropShadow" result="shape"/>
</filter>
</defs>
</svg>
