<svg width="136" height="67" viewBox="0 0 136 67" fill="none" xmlns="http://www.w3.org/2000/svg">
<g id="branding/logo/svg">
<g id="BGvector">
<g id="Vector" filter="url(#filter0_d)">
<path fill-rule="evenodd" clip-rule="evenodd" d="M11.0003 30.633C16.4497 18.2328 47.4089 9.84665 80.1038 11.9135C112.799 13.9803 134.911 25.722 129.462 38.1222C124.013 50.5223 93.0533 58.9085 60.3585 56.8417C27.6636 54.7748 5.5509 43.0331 11.0003 30.633Z" fill="white"/>
</g>
<path id="Vector_2" fill-rule="evenodd" clip-rule="evenodd" d="M60.5496 54.8885C28.4208 52.9747 6.6931 42.1035 12.0469 30.6227C17.3999 19.1418 47.8212 11.3781 79.9483 13.2919C98.1082 14.3736 112.947 18.3183 121.449 23.6158C113.544 19.7934 101.498 17.0134 87.1488 16.1771C58.2326 14.4933 30.8548 21.3309 26.0354 31.4427C21.2161 41.5546 40.7753 51.1302 69.6915 52.814C86.0389 53.7674 101.965 52.1205 113.53 48.5734C100.486 53.5759 80.8208 56.0968 60.5496 54.8885Z" fill="black"/>
<path id="Vector_3" fill-rule="evenodd" clip-rule="evenodd" d="M62.6285 54.6798C31.3022 52.7993 10.1149 42.1146 15.3364 30.8321C20.557 19.5496 50.2186 11.9193 81.544 13.7997C99.2506 14.8635 113.72 18.7398 122.01 23.9466C114.302 20.1892 102.557 17.4571 88.5652 16.6353C60.3712 14.9798 33.6748 21.7002 28.9766 31.6376C24.2785 41.575 43.3485 50.9856 71.5424 52.6412C87.4818 53.5775 102.943 51.8365 114.221 48.3501C101.501 53.2662 82.396 55.8667 62.6285 54.6798Z" fill="#00017F"/>
<g id="Vector_4" filter="url(#filter1_d)">
<path fill-rule="evenodd" clip-rule="evenodd" d="M62.072 58.687C38.799 57.217 20.8901 50.8446 14.4614 42.8219C22.0059 49.9622 38.904 55.4845 60.3594 56.8408C93.0542 58.9076 124.014 50.5205 129.464 38.1213C131.033 34.5486 130.315 31.0272 127.714 27.7794C131.664 31.5206 133.049 35.7047 131.175 39.9675C125.725 52.3676 94.766 60.7538 62.072 58.687Z" fill="black"/>
</g>
</g>
<g id="Roofing" filter="url(#filter2_d)">
<g id="Group 2">
<path id="Vector_5" d="M49.8685 43.2076L54.6392 23.9905H62.5286C65.3007 23.9905 66.6864 25.138 66.6864 27.434C66.6864 28.2703 66.4909 29.223 66.099 30.2901C65.5108 31.9448 64.3992 33.0308 62.7634 33.5465L62.3109 33.6799C62.9504 33.7688 63.4609 34.0493 63.8426 34.5204C64.225 34.9925 64.4163 35.5928 64.4163 36.3222C64.4163 36.6069 64.3983 36.8378 64.3625 37.0157C64.3275 37.1936 64.3002 37.3278 64.2831 37.4167L63.326 41.2058L63.2731 41.553C63.2023 41.9976 63.1664 42.3799 63.1664 42.7006C63.1664 42.9314 63.1664 43.1008 63.1664 43.2076H58.184C58.149 42.9588 58.131 42.7989 58.131 42.7279C58.131 42.5141 58.2215 41.972 58.4025 41.1006L58.5109 40.62L59.3527 37.1217C59.3707 37.0858 59.392 36.9841 59.4185 36.8147C59.4449 36.6463 59.4586 36.5172 59.4586 36.4282C59.4586 35.6997 59.0343 35.3362 58.1857 35.3362L56.9127 35.3379L54.9585 43.2076H49.8685ZM58.791 32.0782C59.147 32.0774 59.5568 31.9619 60.0195 31.731C60.4831 31.4634 60.8391 31.023 61.0884 30.409C61.3377 29.795 61.4623 29.2837 61.4623 28.8741C61.4623 28.0557 60.9373 27.647 59.8863 27.6461H58.8174L57.7221 32.0756L58.791 32.0782Z" fill="black" stroke="white" stroke-width="0.5" stroke-miterlimit="79.8403" stroke-linecap="round"/>
<path id="Vector_6" d="M64.687 39.6845C64.8996 38.1051 65.014 37.2791 65.0276 37.2081C65.0985 36.8378 65.2624 36.1691 65.5185 35.2011C66.1008 33.024 66.648 31.4728 67.1603 30.5475C67.629 29.6796 68.2898 28.9827 69.1426 28.4559C69.9238 27.9856 70.7417 27.7085 71.5946 27.623C71.8499 27.6085 72.0915 27.5905 72.3194 27.5691C72.5465 27.5478 72.7958 27.5375 73.0656 27.5375C74.458 27.5375 75.4672 27.8223 76.0929 28.3918C76.7179 28.9613 77.0312 29.8934 77.0312 31.188C77.0312 32.1842 76.8323 33.5217 76.4336 35.2011C75.8795 37.4928 75.3289 39.1544 74.7816 40.1865C74.2344 41.2178 73.5275 42.0045 72.6601 42.5449C71.8925 43.0289 71.0687 43.3137 70.1876 43.3992C69.7608 43.4419 69.3552 43.4633 68.9719 43.4633C67.5504 43.4633 66.4738 43.1786 65.7422 42.6091C65.0097 42.0395 64.6443 41.2571 64.6443 40.2609C64.6443 40.1754 64.6511 40.0728 64.6656 39.9513C64.6793 39.8308 64.687 39.7418 64.687 39.6845ZM68.761 40.1112C68.8037 40.5662 69.0735 40.7936 69.5704 40.7936C69.6984 40.7936 69.8265 40.7722 69.9546 40.7295C70.3234 40.6303 70.629 40.331 70.8706 39.8333C71.1122 39.3348 71.4537 38.2753 71.8943 36.6531C72.0215 36.14 72.2417 35.1156 72.5542 33.5789C72.8675 32.0423 73.0237 31.1666 73.0237 30.9529C73.0237 30.4689 72.7531 30.2269 72.2136 30.2269C72.1572 30.2269 72.0428 30.2414 71.8729 30.2696C71.4887 30.3842 71.1763 30.6938 70.9346 31.1991C70.693 31.7037 70.3515 32.7606 69.9119 34.3691C69.812 34.7103 69.596 35.621 69.2622 37.1012C68.9275 38.5814 68.761 39.3775 68.761 39.4921V40.1112Z" fill="black" stroke="white" stroke-width="0.5" stroke-miterlimit="79.8403" stroke-linecap="round"/>
<path id="Vector_7" d="M76.0527 39.6845C76.2653 38.1051 76.3797 37.2791 76.3933 37.2081C76.4642 36.8378 76.6281 36.1691 76.8842 35.2011C77.4665 33.024 78.0137 31.4728 78.526 30.5475C78.9947 29.6796 79.6555 28.9827 80.5084 28.4559C81.2895 27.9856 82.1074 27.7085 82.9603 27.623C83.2156 27.6085 83.4572 27.5905 83.6851 27.5691C83.9122 27.5478 84.1615 27.5375 84.4313 27.5375C85.8238 27.5375 86.8329 27.8223 87.4587 28.3918C88.0836 28.9613 88.3969 29.8934 88.3969 31.188C88.3969 32.1842 88.198 33.5217 87.7993 35.2011C87.2452 37.4928 86.6946 39.1544 86.1473 40.1865C85.6001 41.2178 84.8932 42.0045 84.0258 42.5449C83.2583 43.0289 82.4344 43.3137 81.5534 43.3992C81.1265 43.4419 80.721 43.4633 80.3376 43.4633C78.9161 43.4633 77.8396 43.1786 77.1079 42.6091C76.3754 42.0395 76.01 41.2571 76.01 40.2609C76.01 40.1754 76.0168 40.0728 76.0314 39.9513C76.045 39.8308 76.0527 39.7418 76.0527 39.6845ZM80.1267 40.1112C80.1694 40.5662 80.4392 40.7936 80.9361 40.7936C81.0642 40.7936 81.1922 40.7722 81.3203 40.7295C81.6891 40.6303 81.9947 40.331 82.2363 39.8333C82.478 39.3348 82.8195 38.2753 83.26 36.6531C83.3872 36.14 83.6075 35.1156 83.9199 33.5789C84.2332 32.0423 84.3895 31.1666 84.3895 30.9529C84.3895 30.4689 84.1188 30.2269 83.5793 30.2269C83.5229 30.2269 83.4085 30.2414 83.2386 30.2696C82.8545 30.3842 82.542 30.6938 82.3004 31.1991C82.0588 31.7037 81.7173 32.7606 81.2776 34.3691C81.1777 34.7103 80.9617 35.621 80.6279 37.1012C80.2932 38.5814 80.1267 39.3775 80.1267 39.4921V40.1112Z" fill="black" stroke="white" stroke-width="0.5" stroke-miterlimit="79.8403" stroke-linecap="round"/>
<path id="Vector_8" d="M86.6937 43.2076L90.5091 27.8342H99.6117L98.8237 31.0615H93.7926L93.1104 33.7927H97.8L97.0325 36.8686H92.3429L90.7652 43.2076H86.6937Z" fill="black" stroke="white" stroke-width="0.5" stroke-miterlimit="79.8403" stroke-linecap="round"/>
<path id="Vector_9" d="M96.1345 43.2076L99.9499 27.8342H104.022L100.206 43.2076H96.1345Z" fill="black" stroke="white" stroke-width="0.5" stroke-miterlimit="79.8403" stroke-linecap="round"/>
<path id="Vector_10" d="M101.399 43.2076L105.216 27.8342H109.608L109.926 37.1012L112.228 27.8342H115.916L112.077 43.2076H107.771L107.391 33.9834L105.089 43.2076H101.399Z" fill="black" stroke="white" stroke-width="0.5" stroke-miterlimit="79.8403" stroke-linecap="round"/>
<path id="Vector_11" d="M125.958 32.7033H122.015L122.036 32.5964L122.185 31.9987C122.227 31.8277 122.255 31.6609 122.269 31.4967C122.284 31.3325 122.29 31.1649 122.29 30.9948C122.29 30.4962 122.035 30.2465 121.524 30.2465C121.438 30.2465 121.272 30.2859 121.023 30.3645C120.774 30.4424 120.547 30.6596 120.341 31.0153C120.135 31.371 119.904 31.9833 119.648 32.8521L118.88 35.5842L118.3 38.0393C118.245 38.2958 118.186 38.566 118.122 38.8508C118.059 39.1355 118.029 39.4058 118.029 39.6623C118.029 40.4311 118.327 40.815 118.923 40.815C119.08 40.815 119.222 40.7902 119.35 40.7406C119.478 40.6902 119.599 40.6303 119.712 40.5585C119.983 40.3738 120.192 40.1283 120.341 39.8231C120.491 39.5169 120.665 38.9585 120.864 38.1479L120.991 37.5929L119.64 37.5912L120.308 34.9865H125.425L123.379 43.2076H120.65L120.843 41.9925L120.522 42.2909C119.784 42.9297 119.031 43.306 118.263 43.4189C117.723 43.4907 117.276 43.5257 116.92 43.5257C115.911 43.5257 115.175 43.2803 114.714 42.7895C114.252 42.2986 114.021 41.5051 114.02 40.4088C114.021 39.5545 114.177 38.3805 114.49 36.8866L114.766 35.627C115.492 32.7238 116.288 30.7314 117.154 29.6497C118.022 28.5679 119.301 27.9206 120.991 27.7077C121.589 27.6222 122.129 27.5794 122.611 27.5794C123.862 27.5794 124.779 27.8428 125.361 28.3695C125.944 28.8963 126.236 29.6856 126.236 30.7391C126.236 31.0666 126.201 31.4796 126.129 31.9773C126.115 32.2056 126.058 32.4476 125.958 32.7033Z" fill="black" stroke="white" stroke-width="0.5" stroke-miterlimit="79.8403" stroke-linecap="round"/>
</g>
</g>
<g id="G">
<g id="Group 4">
<g id="Group 5">
<g id="Vector_12" filter="url(#filter3_d)">
<path d="M49.9692 30.9168H41.2628L41.3097 30.6808L41.6384 29.3605C41.7315 28.9834 41.7938 28.614 41.8254 28.2523C41.8561 27.8906 41.8724 27.5212 41.8724 27.144C41.8724 26.0435 41.308 25.4928 40.1785 25.4928C39.9907 25.4928 39.6227 25.58 39.0729 25.7528C38.5248 25.9255 38.0228 26.4044 37.5678 27.1902C37.1128 27.9761 36.6039 29.3272 36.0396 31.2435L34.3424 37.2764L33.0635 42.6953C32.9405 43.2614 32.8099 43.8583 32.6707 44.4868C32.5316 45.1153 32.4624 45.7122 32.4624 46.2783C32.4624 47.9748 33.1215 48.8231 34.4388 48.8231C34.7846 48.8231 35.0979 48.7684 35.3805 48.6581C35.6631 48.5486 35.9295 48.4144 36.1805 48.2579C36.7764 47.85 37.2391 47.3079 37.5687 46.6332C37.899 45.9576 38.2832 44.7254 38.7221 42.9356L39.0038 41.7111L36.0208 41.7059L37.4952 35.9569H48.7928L44.2748 54.1052H38.2516L38.6742 51.4236L37.9691 52.082C36.3376 53.4921 34.6753 54.3216 32.9806 54.5721C31.7888 54.7295 30.8002 54.8073 30.0165 54.8073C27.7882 54.8073 26.1652 54.266 25.145 53.1817C24.1256 52.0983 23.616 50.3461 23.6151 47.927C23.616 46.0414 23.9609 43.4495 24.6507 40.1505L25.262 37.3705C26.8627 30.9613 28.6197 26.5626 30.533 24.1751C32.4479 21.7876 35.2712 20.3586 39.0038 19.8875C40.3228 19.6985 41.5146 19.6044 42.581 19.6044C45.342 19.6044 47.3662 20.1859 48.6511 21.348C49.9385 22.511 50.5814 24.2546 50.5814 26.5797C50.5814 27.3031 50.5028 28.2138 50.3457 29.3135C50.315 29.8163 50.1895 30.3508 49.9692 30.9168Z" fill="white"/>
<path d="M49.9692 30.9168H41.2628L41.3097 30.6808L41.6384 29.3605C41.7315 28.9834 41.7938 28.614 41.8254 28.2523C41.8561 27.8906 41.8724 27.5212 41.8724 27.144C41.8724 26.0435 41.308 25.4928 40.1785 25.4928C39.9907 25.4928 39.6227 25.58 39.0729 25.7528C38.5248 25.9255 38.0228 26.4044 37.5678 27.1902C37.1128 27.9761 36.6039 29.3272 36.0396 31.2435L34.3424 37.2764L33.0635 42.6953C32.9405 43.2614 32.8099 43.8583 32.6707 44.4868C32.5316 45.1153 32.4624 45.7122 32.4624 46.2783C32.4624 47.9748 33.1215 48.8231 34.4388 48.8231C34.7846 48.8231 35.0979 48.7684 35.3805 48.6581C35.6631 48.5486 35.9295 48.4144 36.1805 48.2579C36.7764 47.85 37.2391 47.3079 37.5687 46.6332C37.899 45.9576 38.2832 44.7254 38.7221 42.9356L39.0038 41.7111L36.0208 41.7059L37.4952 35.9569H48.7928L44.2748 54.1052H38.2516L38.6742 51.4236L37.9691 52.082C36.3376 53.4921 34.6753 54.3216 32.9806 54.5721C31.7888 54.7295 30.8002 54.8073 30.0165 54.8073C27.7882 54.8073 26.1652 54.266 25.145 53.1817C24.1256 52.0983 23.616 50.3461 23.6151 47.927C23.616 46.0414 23.9609 43.4495 24.6507 40.1505L25.262 37.3705C26.8627 30.9613 28.6197 26.5626 30.533 24.1751C32.4479 21.7876 35.2712 20.3586 39.0038 19.8875C40.3228 19.6985 41.5146 19.6044 42.581 19.6044C45.342 19.6044 47.3662 20.1859 48.6511 21.348C49.9385 22.511 50.5814 24.2546 50.5814 26.5797C50.5814 27.3031 50.5028 28.2138 50.3457 29.3135C50.315 29.8163 50.1895 30.3508 49.9692 30.9168Z" stroke="white" stroke-width="4" stroke-miterlimit="79.8403" stroke-linecap="round" stroke-linejoin="round"/>
</g>
</g>
</g>
</g>
<g id="KG" filter="url(#filter4_d)">
<path id="Vector_13" fill-rule="evenodd" clip-rule="evenodd" d="M24.8744 53.4365C23.7603 52.2522 23.2446 50.3854 23.2438 47.927C23.2446 46.0038 23.5955 43.3828 24.2879 40.0727L24.9 37.2858C26.5042 30.8664 28.2757 26.3984 30.2436 23.9425C32.232 21.4635 35.1526 19.9995 38.9543 19.5198C40.2836 19.3291 41.4933 19.2333 42.581 19.2333C45.3813 19.2333 47.5156 19.8216 48.8995 21.0727C50.2886 22.328 50.9519 24.187 50.9519 26.5797C50.9519 27.3279 50.8708 28.2574 50.7112 29.3665L50.5891 30.1772C50.5216 30.4636 50.4294 30.7552 50.3142 31.052C50.2587 31.1948 50.1221 31.2888 49.9693 31.2888H41.2628C41.0289 31.2888 40.853 31.0742 40.8983 30.845L40.9478 30.5962L41.2782 29.2716C41.367 28.9124 41.4259 28.5618 41.4558 28.2206C41.4857 27.87 41.501 27.5109 41.501 27.144C41.501 26.2581 41.1126 25.8648 40.1786 25.8648C40.0573 25.8648 39.7449 25.9315 39.184 26.1076C38.7631 26.2402 38.3225 26.6276 37.888 27.3766C37.4568 28.1215 36.9583 29.4358 36.3957 31.347L34.701 37.3696L33.4246 42.7783C33.3025 43.3409 33.1719 43.9387 33.0328 44.568C32.8987 45.1735 32.833 45.743 32.833 46.2783C32.833 47.862 33.4076 48.452 34.4389 48.452C34.7445 48.452 35.0117 48.4033 35.2457 48.3118C35.5069 48.2109 35.7519 48.0877 35.9773 47.9475C36.5118 47.5815 36.9327 47.0898 37.2349 46.4698C37.5456 45.8345 37.9221 44.6382 38.361 42.8501L38.5377 42.0822L36.02 42.0779C35.7784 42.0779 35.6008 41.8487 35.6614 41.6136L37.1358 35.8646C37.1777 35.7004 37.3254 35.5858 37.4953 35.5858H48.7928C49.0336 35.5858 49.2103 35.8133 49.1522 36.0476L44.6342 54.1959C44.5933 54.3609 44.4447 54.4772 44.2748 54.4772H38.2517C38.0237 54.4772 37.8496 54.2728 37.8846 54.0479L38.1415 52.4172L36.9497 53.3373C35.6734 54.2053 34.3689 54.7431 33.0319 54.9407C31.8281 55.0997 30.8216 55.1793 30.0165 55.1793C27.7362 55.1793 25.9937 54.626 24.8744 53.4365ZM32.9286 54.2044C34.5353 53.9667 36.1344 53.1766 37.7207 51.8058L38.4207 51.1525C38.6777 50.9122 39.0952 51.1345 39.0405 51.4817L38.6854 53.7341H43.9846L48.3173 36.3289H37.7821L36.4981 41.3357L39.0038 41.3399C39.242 41.3399 39.4187 41.5623 39.365 41.7949L39.0824 43.022C38.6435 44.8135 38.2517 46.0816 37.9016 46.7973C37.5448 47.5268 37.0402 48.1194 36.3828 48.5692C36.1062 48.7419 35.8185 48.8873 35.5146 49.0053C35.1833 49.1344 34.8239 49.1951 34.4389 49.1951C32.8347 49.1951 32.0911 48.0886 32.0911 46.2783C32.0911 45.6823 32.1637 45.058 32.3079 44.4064C32.4471 43.7788 32.5777 43.1827 32.7015 42.6132L33.983 37.184L35.6828 31.1409C36.2488 29.2194 36.7679 27.8316 37.2468 27.0047C37.7224 26.182 38.2858 25.6117 38.9611 25.3987C39.4999 25.2294 39.9233 25.1217 40.1786 25.1217C41.5027 25.1217 42.2429 25.8297 42.2429 27.144C42.2429 27.5323 42.2258 27.9119 42.1943 28.2848C42.161 28.667 42.0952 29.0552 41.9979 29.4503L41.7256 30.5457H49.6978L49.8668 30.007C49.9249 29.759 49.9607 29.5204 49.9753 29.2913L49.9778 29.2613C50.134 28.1711 50.21 27.2792 50.21 26.5797C50.21 24.323 49.5877 22.6948 48.4018 21.6242C47.216 20.551 45.3019 19.9764 42.581 19.9764C41.5352 19.9764 40.3613 20.0688 39.0525 20.256C35.3891 20.7187 32.6631 22.1125 30.8216 24.4085C28.963 26.7276 27.2205 31.0571 25.6231 37.456L25.0127 40.2291C24.3255 43.5171 23.9865 46.0799 23.9857 47.9278C23.9865 50.3076 24.4902 51.9452 25.4148 52.9277C26.336 53.9068 27.8395 54.4362 30.0165 54.4362C30.778 54.4362 31.7487 54.3601 32.9286 54.2044Z" fill="#191919"/>
<g id="Group 7">
<g id="Group 8">
<path id="Vector_14" d="M25.1442 53.1808C24.1265 52.0974 23.616 50.3461 23.616 47.927C23.616 46.0406 23.96 43.4495 24.6507 40.1513L25.2611 37.3696C25.3294 37.096 25.3994 36.8249 25.4677 36.5581L25.4711 36.5538L26.9592 31.4419L34.2817 37.5278L33.0635 42.6962C32.9405 43.2614 32.8099 43.8583 32.6699 44.4868C32.5316 45.1153 32.4633 45.713 32.4633 46.2783C32.4633 47.974 33.1215 48.8231 34.4388 48.8231C34.7837 48.8231 35.0971 48.7675 35.3805 48.6581C35.6622 48.5478 35.9303 48.4144 36.1805 48.257C36.7772 47.85 37.2383 47.307 37.5678 46.6332C37.899 45.9568 38.2815 44.7254 38.7212 42.9356L39.0038 41.7111L36.0208 41.7059L36.6005 39.4407L45.9951 47.1916L44.2748 54.1052H38.2516L38.6734 51.4236L37.9682 52.082C36.3376 53.4912 34.6745 54.3216 32.9806 54.5721C31.7888 54.7286 30.7993 54.8064 30.0165 54.8064C27.7882 54.8064 26.1652 54.2651 25.1442 53.1808Z" fill="#E5E5E5"/>
</g>
</g>
<path id="Vector_15" fill-rule="evenodd" clip-rule="evenodd" d="M24.7566 53.5485C23.5998 52.3197 23.0824 50.4017 23.0807 47.927C23.0824 45.9867 23.4358 43.3529 24.1282 40.0385L24.7421 37.2482C26.3462 30.8245 28.1254 26.3257 30.1164 23.8407C32.1372 21.3215 35.1005 19.8422 38.9321 19.3582C40.2665 19.1675 41.4839 19.07 42.581 19.07C45.3992 19.07 47.5813 19.6609 49.0079 20.9521C50.4422 22.2468 51.115 24.158 51.115 26.5797C51.115 27.3382 51.0322 28.2762 50.8717 29.3896L50.747 30.2148C50.6787 30.509 50.584 30.8074 50.4661 31.111C50.3859 31.3162 50.1887 31.4513 49.9693 31.4513H41.2628C40.9264 31.4513 40.6737 31.1435 40.7395 30.8125L40.7898 30.5586L41.1202 29.2323C41.2073 28.8808 41.2645 28.5388 41.2935 28.207C41.3226 27.8606 41.3388 27.5066 41.3388 27.1441C41.3388 26.3582 41.0263 26.0273 40.1786 26.0273C40.0864 26.0273 39.7986 26.0854 39.2326 26.2633C38.8672 26.3779 38.454 26.725 38.0288 27.4587C37.6088 28.1847 37.1145 29.4828 36.5519 31.3923L34.8589 37.4107L33.5834 42.8142C33.4613 43.376 33.3307 43.9737 33.1915 44.6031C33.0592 45.1983 32.996 45.7558 32.996 46.2783C32.996 47.7901 33.504 48.2887 34.4389 48.2887C34.7274 48.2887 34.9742 48.2434 35.1867 48.1604C35.4386 48.0629 35.6751 47.9441 35.8885 47.8107C36.3956 47.4635 36.7986 46.994 37.0889 46.3989C37.3911 45.7806 37.7642 44.5997 38.2021 42.8125L38.3319 42.2447L36.0191 42.2404C35.6717 42.2404 35.4172 41.9112 35.5035 41.5734L36.9779 35.8244C37.0385 35.5884 37.2511 35.4225 37.4952 35.4225H48.7928C49.1394 35.4225 49.3938 35.75 49.3102 36.0869L44.7922 54.2352C44.7333 54.4729 44.519 54.6397 44.2748 54.6397H38.2517C37.9238 54.6397 37.6728 54.3464 37.7241 54.0223L37.917 52.7952L37.0419 53.4707C35.7476 54.3515 34.4201 54.9005 33.0541 55.1023C31.8452 55.2614 30.8318 55.3417 30.0165 55.3417C27.7139 55.3417 25.9185 54.7842 24.7566 53.5485ZM32.9064 54.0428C34.4739 53.8111 36.0456 53.0389 37.6122 51.6844L38.3097 51.0328C38.6794 50.6882 39.2796 51.0071 39.201 51.5074L38.8757 53.5708H43.8573L48.1098 36.4914H37.9085L36.7081 41.1732L39.0047 41.1775C39.347 41.1775 39.6006 41.4973 39.5237 41.8316L39.2412 43.0596C38.8015 44.8519 38.4062 46.1355 38.0476 46.8683C37.6788 47.6225 37.1563 48.2374 36.4716 48.706C36.1831 48.8856 35.8868 49.0352 35.5735 49.1566C35.2209 49.2943 34.841 49.3576 34.4389 49.3576C32.7237 49.3576 31.9289 48.1382 31.9289 46.2783C31.9289 45.6694 32.0031 45.0332 32.1491 44.3714C32.2883 43.7437 32.4189 43.1477 32.5427 42.5773L33.825 37.143L35.5265 31.0956C36.0926 29.1724 36.6159 27.7683 37.1059 26.9226C37.5909 26.0846 38.1817 25.474 38.9125 25.2431C39.446 25.0755 39.8943 24.9584 40.1786 24.9584C41.5949 24.9584 42.406 25.7357 42.406 27.1441C42.406 27.5366 42.3889 27.9214 42.3565 28.2985C42.3223 28.6901 42.2549 29.0869 42.1558 29.4897L41.9338 30.3824H49.5782L49.708 29.9702C49.7644 29.7299 49.7994 29.4999 49.813 29.281L49.8173 29.2382C49.9727 28.1522 50.0478 27.2689 50.0478 26.5797C50.0478 24.3521 49.434 22.7761 48.2934 21.7448C47.1502 20.7118 45.2839 20.1389 42.581 20.1389C41.5445 20.1389 40.3783 20.2304 39.0747 20.4177C35.4412 20.876 32.7578 22.2545 30.9488 24.5103C29.1132 26.8003 27.3784 31.099 25.7811 37.4936L25.1724 40.2633C24.4851 43.547 24.1487 46.097 24.1487 47.9278C24.1487 50.2914 24.6507 51.8776 25.5326 52.8157C26.4111 53.7486 27.8616 54.2728 30.0165 54.2728C30.7678 54.2728 31.7316 54.1984 32.9064 54.0428Z" fill="black"/>
<path id="Vector_16" fill-rule="evenodd" clip-rule="evenodd" d="M6.06726 36.2759L14.4911 2.33865C14.5321 2.17275 14.6807 2.05645 14.8514 2.05645H23.8396C24.0803 2.05645 24.2571 2.28392 24.199 2.51822L21.3637 13.9179L29.8926 2.20867C29.9626 2.11289 30.0745 2.05645 30.1931 2.05645H39.6526C39.965 2.05645 40.1375 2.42245 39.9386 2.66445L27.824 17.411L32.8568 36.2691C32.92 36.5051 32.7424 36.7368 32.4991 36.7368H22.4753C22.2986 36.7368 22.1466 36.612 22.1116 36.4392L19.8202 25.1405L18.0615 27.2971L15.7752 36.4555C15.7342 36.6205 15.5856 36.7368 15.4157 36.7368H6.42754C6.18593 36.7368 6.00921 36.5094 6.06726 36.2759ZM15.1255 35.9937L17.3623 27.0363C17.3751 26.9833 17.4007 26.9337 17.4348 26.8918L19.7408 24.0639C19.938 23.8219 20.3299 23.9185 20.3913 24.2247L22.7784 35.9937H32.0159L27.0582 17.4187C27.0275 17.3024 27.0539 17.1793 27.1299 17.0861L38.8663 2.79956H30.3809L20.8455 15.8915C20.6065 16.219 20.0874 15.9753 20.1856 15.5819L23.364 2.79956H15.1408L6.90137 35.9937H15.1255Z" fill="#191919"/>
<g id="Group 9">
<g id="Group 10" filter="url(#filter5_d)">
<path id="Vector_17" d="M6.42761 36.3648L14.8515 2.42755H23.8397L20.5459 15.6717L30.1932 2.42755H39.6526L27.4168 17.3221L32.4991 36.3648H22.4754L20.0286 24.2982L17.7226 27.1261L15.4158 36.3648H6.42761Z" fill="white" stroke="white" stroke-width="3" stroke-miterlimit="79.8403" stroke-linecap="round" stroke-linejoin="round"/>
</g>
</g>
<g id="Group 11">
<g id="Group 12">
<path id="Vector_18" d="M25.519 36.3648H22.4771L20.3863 26.0632L32.9158 36.4007H25.5079C25.5113 36.3879 25.5155 36.3777 25.519 36.3648ZM6.42761 36.3648L10.9243 18.2567L19.3123 25.1764L17.7217 27.1261L15.4166 36.3648H6.42761Z" fill="#E5E5E5"/>
</g>
</g>
<path id="Vector_19" fill-rule="evenodd" clip-rule="evenodd" d="M6.01268 36.2622L14.4365 2.32493C14.4844 2.13424 14.6551 1.99999 14.8515 1.99999H23.8396C24.1163 1.99999 24.3203 2.26165 24.2537 2.53102L21.4876 13.6536L29.8483 2.17614C29.9285 2.06583 30.0566 1.99999 30.1932 1.99999H39.6526C40.0121 1.99999 40.2101 2.42157 39.9822 2.69948L27.8855 17.4247L32.9115 36.2545C32.9832 36.5264 32.7792 36.7924 32.4991 36.7924H22.4754C22.2722 36.7924 22.0972 36.6496 22.057 36.4503L19.7886 25.2679L18.1128 27.3228L15.8298 36.4692C15.782 36.659 15.6113 36.7924 15.4158 36.7924H6.4276C6.15014 36.7924 5.94609 36.5316 6.01268 36.2622ZM15.082 35.9373L17.3077 27.0226C17.323 26.9619 17.3521 26.9046 17.3913 26.8559L19.6973 24.028C19.9244 23.7492 20.3752 23.8612 20.446 24.2135L22.8237 35.9373H31.9425L27.0036 17.4333C26.9686 17.2999 26.9993 17.157 27.0864 17.051L38.7485 2.85511H30.41L20.89 15.924C20.6159 16.3011 20.0183 16.0214 20.131 15.5691L23.2932 2.85511H15.1844L6.97314 35.9373H15.082Z" fill="black"/>
</g>
<g id="K">
<g id="Group 14">
<path id="Vector_20" d="M6.42761 36.3648L14.8515 2.42755H23.8397L20.5459 15.6717L30.1932 2.42755H39.6526L27.4168 17.3221L32.4991 36.3648H22.4754L20.0286 24.2982L17.7226 27.1261L15.4158 36.3648H6.42761Z" stroke="black" stroke-width="1.25" stroke-miterlimit="79.8403" stroke-linecap="round" stroke-linejoin="round"/>
</g>
</g>
</g>
<defs>
<filter id="filter0_d" x="6.17505" y="11.6005" width="128.112" height="53.5542" filterUnits="userSpaceOnUse" color-interpolation-filters="sRGB">
<feFlood flood-opacity="0" result="BackgroundImageFix"/>
<feColorMatrix in="SourceAlpha" type="matrix" values="0 0 0 0 0 0 0 0 0 0 0 0 0 0 0 0 0 0 127 0"/>
<feOffset dy="4"/>
<feGaussianBlur stdDeviation="2"/>
<feColorMatrix type="matrix" values="0 0 0 0 0 0 0 0 0 0 0 0 0 0 0 0 0 0 0.25 0"/>
<feBlend mode="normal" in2="BackgroundImageFix" result="effect1_dropShadow"/>
<feBlend mode="normal" in="SourceGraphic" in2="effect1_dropShadow" result="shape"/>
</filter>
<filter id="filter1_d" x="10.4614" y="27.7794" width="125.539" height="39.2206" filterUnits="userSpaceOnUse" color-interpolation-filters="sRGB">
<feFlood flood-opacity="0" result="BackgroundImageFix"/>
<feColorMatrix in="SourceAlpha" type="matrix" values="0 0 0 0 0 0 0 0 0 0 0 0 0 0 0 0 0 0 127 0"/>
<feOffset dy="4"/>
<feGaussianBlur stdDeviation="2"/>
<feColorMatrix type="matrix" values="0 0 0 0 0 0 0 0 0 0 0 0 0 0 0 0 0 0 0.25 0"/>
<feBlend mode="normal" in2="BackgroundImageFix" result="effect1_dropShadow"/>
<feBlend mode="normal" in="SourceGraphic" in2="effect1_dropShadow" result="shape"/>
</filter>
<filter id="filter2_d" x="45.5488" y="23.7404" width="84.9367" height="28.0353" filterUnits="userSpaceOnUse" color-interpolation-filters="sRGB">
<feFlood flood-opacity="0" result="BackgroundImageFix"/>
<feColorMatrix in="SourceAlpha" type="matrix" values="0 0 0 0 0 0 0 0 0 0 0 0 0 0 0 0 0 0 127 0"/>
<feOffset dy="4"/>
<feGaussianBlur stdDeviation="2"/>
<feColorMatrix type="matrix" values="0 0 0 0 0 0 0 0 0 0 0 0 0 0 0 0 0 0 0.25 0"/>
<feBlend mode="normal" in2="BackgroundImageFix" result="effect1_dropShadow"/>
<feBlend mode="normal" in="SourceGraphic" in2="effect1_dropShadow" result="shape"/>
</filter>
<filter id="filter3_d" x="17.6151" y="17.6044" width="38.9662" height="47.2029" filterUnits="userSpaceOnUse" color-interpolation-filters="sRGB">
<feFlood flood-opacity="0" result="BackgroundImageFix"/>
<feColorMatrix in="SourceAlpha" type="matrix" values="0 0 0 0 0 0 0 0 0 0 0 0 0 0 0 0 0 0 127 0"/>
<feOffset dy="4"/>
<feGaussianBlur stdDeviation="2"/>
<feColorMatrix type="matrix" values="0 0 0 0 0 0 0 0 0 0 0 0 0 0 0 0 0 0 0.25 0"/>
<feBlend mode="normal" in2="BackgroundImageFix" result="effect1_dropShadow"/>
<feBlend mode="normal" in="SourceGraphic" in2="effect1_dropShadow" result="shape"/>
</filter>
<filter id="filter4_d" x="0.927612" y="0.927551" width="54.1874" height="62.4142" filterUnits="userSpaceOnUse" color-interpolation-filters="sRGB">
<feFlood flood-opacity="0" result="BackgroundImageFix"/>
<feColorMatrix in="SourceAlpha" type="matrix" values="0 0 0 0 0 0 0 0 0 0 0 0 0 0 0 0 0 0 127 0"/>
<feOffset dy="4"/>
<feGaussianBlur stdDeviation="2"/>
<feColorMatrix type="matrix" values="0 0 0 0 0 0 0 0 0 0 0 0 0 0 0 0 0 0 0.25 0"/>
<feBlend mode="normal" in2="BackgroundImageFix" result="effect1_dropShadow"/>
<feBlend mode="normal" in="SourceGraphic" in2="effect1_dropShadow" result="shape"/>
</filter>
<filter id="filter5_d" x="0.927612" y="0.927551" width="44.2251" height="44.9373" filterUnits="userSpaceOnUse" color-interpolation-filters="sRGB">
<feFlood flood-opacity="0" result="BackgroundImageFix"/>
<feColorMatrix in="SourceAlpha" type="matrix" values="0 0 0 0 0 0 0 0 0 0 0 0 0 0 0 0 0 0 127 0"/>
<feOffset dy="4"/>
<feGaussianBlur stdDeviation="2"/>
<feColorMatrix type="matrix" values="0 0 0 0 0 0 0 0 0 0 0 0 0 0 0 0 0 0 0.25 0"/>
<feBlend mode="normal" in2="BackgroundImageFix" result="effect1_dropShadow"/>
<feBlend mode="normal" in="SourceGraphic" in2="effect1_dropShadow" result="shape"/>
</filter>
</defs>
</svg>
