<svg width="150" height="150" viewBox="0 0 150 150" fill="none" xmlns="http://www.w3.org/2000/svg">
<circle cx="75" cy="75" r="73" fill="#171696" stroke="white" stroke-width="4"/>
<g filter="url(#filter0_d)">
<path d="M125.197 41.4958H107.165L107.263 41.0077L107.943 38.2777C108.136 37.4979 108.265 36.7341 108.331 35.9862C108.394 35.2382 108.428 34.4744 108.428 33.6946C108.428 31.419 107.259 30.2803 104.92 30.2803C104.531 30.2803 103.769 30.4607 102.63 30.8178C101.495 31.175 100.455 32.1652 99.5127 33.7901C98.5703 35.4151 97.5165 38.2087 96.3477 42.1712L92.8326 54.6455L90.1839 65.8504C89.9293 67.0209 89.6588 68.255 89.3706 69.5546C89.0824 70.8542 88.9391 72.0884 88.9391 73.2589C88.9391 76.767 90.3042 78.521 93.0324 78.521C93.7485 78.521 94.3974 78.4078 94.9827 78.1797C95.568 77.9534 96.1196 77.6758 96.6395 77.3522C97.8736 76.5088 98.832 75.3878 99.5145 73.9927C100.199 72.5959 100.994 70.048 101.903 66.3472L102.487 63.8152L96.3088 63.8046L99.3624 51.9173H122.76L113.403 89.4429H100.929L101.804 83.8979L100.344 85.2594C96.9648 88.1751 93.5222 89.8902 90.0124 90.4083C87.5441 90.7336 85.4965 90.8945 83.8734 90.8945C79.2585 90.8945 75.8972 89.7753 73.7843 87.5333C71.6731 85.293 70.6175 81.6701 70.6157 76.6679C70.6175 72.7691 71.3318 67.4099 72.7605 60.5883L74.0265 54.84C77.3418 41.5877 80.9807 32.4923 84.9431 27.5556C88.9091 22.6189 94.7564 19.6643 102.487 18.6901C105.219 18.2993 107.687 18.1048 109.895 18.1048C115.614 18.1048 119.806 19.3071 122.467 21.7101C125.133 24.1148 126.465 27.72 126.465 32.5277C126.465 34.0235 126.302 35.9066 125.977 38.1805C125.913 39.2201 125.653 40.3252 125.197 41.4958Z" fill="white"/>
<path d="M125.197 41.4958H107.165L107.263 41.0077L107.943 38.2777C108.136 37.4979 108.265 36.7341 108.331 35.9862C108.394 35.2382 108.428 34.4744 108.428 33.6946C108.428 31.419 107.259 30.2803 104.92 30.2803C104.531 30.2803 103.769 30.4607 102.63 30.8178C101.495 31.175 100.455 32.1652 99.5127 33.7901C98.5703 35.4151 97.5165 38.2087 96.3477 42.1712L92.8326 54.6455L90.1839 65.8504C89.9293 67.0209 89.6588 68.255 89.3706 69.5546C89.0824 70.8542 88.9391 72.0884 88.9391 73.2589C88.9391 76.767 90.3042 78.521 93.0324 78.521C93.7485 78.521 94.3974 78.4078 94.9827 78.1797C95.568 77.9534 96.1196 77.6758 96.6395 77.3522C97.8736 76.5088 98.832 75.3878 99.5145 73.9927C100.199 72.5959 100.994 70.048 101.903 66.3472L102.487 63.8152L96.3088 63.8046L99.3624 51.9173H122.76L113.403 89.4429H100.929L101.804 83.8979L100.344 85.2594C96.9648 88.1751 93.5222 89.8902 90.0124 90.4083C87.5441 90.7336 85.4965 90.8945 83.8734 90.8945C79.2585 90.8945 75.8972 89.7753 73.7843 87.5333C71.6731 85.293 70.6175 81.6701 70.6157 76.6679C70.6175 72.7691 71.3318 67.4099 72.7605 60.5883L74.0265 54.84C77.3418 41.5877 80.9807 32.4923 84.9431 27.5556C88.9091 22.6189 94.7564 19.6643 102.487 18.6901C105.219 18.2993 107.687 18.1048 109.895 18.1048C115.614 18.1048 119.806 19.3071 122.467 21.7101C125.133 24.1148 126.465 27.72 126.465 32.5277C126.465 34.0235 126.302 35.9066 125.977 38.1805C125.913 39.2201 125.653 40.3252 125.197 41.4958Z" stroke="white" stroke-width="6" stroke-miterlimit="79.8403" stroke-linecap="round" stroke-linejoin="round"/>
</g>
<path d="M73.7829 87.5316C71.6753 85.2913 70.6179 81.6701 70.6179 76.668C70.6179 72.7674 71.3305 67.4099 72.7609 60.5901L74.0252 54.8383C74.1666 54.2725 74.3116 53.712 74.4531 53.1603L74.4601 53.1515L77.542 42.5815L92.7075 55.1654L90.1844 65.8522C89.9297 67.0209 89.6592 68.2551 89.3692 69.5547C89.0828 70.8543 88.9413 72.0902 88.9413 73.259C88.9413 76.7652 90.3046 78.521 93.0329 78.521C93.7472 78.521 94.3961 78.4061 94.9831 78.1798C95.5666 77.9517 96.1218 77.6758 96.6399 77.3505C97.8758 76.5089 98.8306 75.3861 99.5131 73.9928C100.199 72.5942 100.991 70.048 101.902 66.3473L102.487 63.8153L96.3092 63.8046L97.5098 59.1208L116.967 75.1474L113.404 89.4429H100.929L101.803 83.898L100.342 85.2595C96.9652 88.1734 93.5209 89.8903 90.0128 90.4083C87.5445 90.7319 85.4952 90.8928 83.8738 90.8928C79.2589 90.8928 75.8976 89.7736 73.7829 87.5316Z" fill="#E5E5E5"/>
<path d="M102.86 31.5509L102.86 31.5513L102.86 31.5509Z" fill="#171696" stroke="#171696" stroke-width="11"/>
<path d="M72.9799 88.2922C70.5841 85.7513 69.5126 81.7854 69.509 76.6683C69.5126 72.6564 70.2446 67.2104 71.6786 60.3571L72.9499 54.5876C76.2722 41.3052 79.9571 32.0029 84.0804 26.8646C88.2656 21.6556 94.4029 18.5967 102.338 17.5959C105.102 17.2016 107.623 17.0001 109.896 17.0001C115.732 17.0001 120.252 18.2219 123.206 20.8918C126.177 23.5688 127.57 27.5206 127.57 32.528C127.57 34.0964 127.399 36.0361 127.066 38.3382L126.808 40.0445C126.666 40.6527 126.47 41.2698 126.226 41.8975C126.06 42.3219 125.652 42.6012 125.197 42.6012H107.165C106.469 42.6012 105.945 41.9647 106.082 41.2804L106.186 40.7553L106.87 38.0128C107.051 37.2861 107.169 36.5789 107.229 35.8928C107.289 35.1767 107.323 34.4447 107.323 33.695C107.323 32.0701 106.676 31.3858 104.92 31.3858C104.729 31.3858 104.133 31.506 102.961 31.8738C102.204 32.1107 101.348 32.8286 100.468 34.3457C99.5978 35.8469 98.574 38.5309 97.4088 42.4792L93.9025 54.9235L91.2609 66.0965C91.0081 67.2582 90.7375 68.4941 90.4493 69.7955C90.1753 71.0261 90.0444 72.179 90.0444 73.2593C90.0444 76.3854 91.0965 77.4162 93.0326 77.4162C93.6302 77.4162 94.1412 77.3225 94.5815 77.151C95.1031 76.9494 95.5929 76.7037 96.0349 76.4278C97.0852 75.71 97.9198 74.7392 98.521 73.5086C99.1469 72.2302 99.9196 69.7884 100.827 66.093L101.095 64.9189L96.3055 64.9101C95.5858 64.9101 95.0589 64.2293 95.2375 63.5309L98.2911 51.6436C98.4166 51.1556 98.8569 50.8125 99.3626 50.8125H122.761C123.479 50.8125 124.005 51.4897 123.832 52.1864L114.475 89.712C114.353 90.2036 113.909 90.5483 113.404 90.5483H100.929C100.25 90.5483 99.7304 89.9419 99.8365 89.2717L100.236 86.7344L98.4237 88.1313C95.7432 89.9525 92.9937 91.0876 90.1646 91.5049C87.6609 91.8338 85.5621 92 83.8735 92C79.1048 92 75.3864 90.8472 72.9799 88.2922ZM89.8588 89.3142C93.1051 88.835 96.3603 87.2384 99.6048 84.4376L101.049 83.0903C101.815 82.3777 103.058 83.0372 102.895 84.0716L102.222 88.3381H112.539L121.346 53.0227H100.218L97.7324 62.7034L102.489 62.7122C103.198 62.7122 103.723 63.3735 103.564 64.0649L102.978 66.604C102.068 70.31 101.249 72.964 100.507 74.4793C99.7428 76.0388 98.6606 77.3101 97.2426 78.2791C96.6449 78.6504 96.0314 78.9598 95.3825 79.2109C94.6522 79.4956 93.8654 79.6264 93.0326 79.6264C89.4804 79.6264 87.8342 77.105 87.8342 73.2593C87.8342 72.0004 87.988 70.6849 88.2904 69.3163C88.5786 68.0185 88.8491 66.7861 89.1055 65.6067L91.7613 54.3701L95.2852 41.8657C96.4575 37.8891 97.5414 34.9858 98.5563 33.2371C99.5606 31.5043 100.784 30.2418 102.298 29.7644C103.403 29.4178 104.331 29.1756 104.92 29.1756C107.853 29.1756 109.533 30.7829 109.533 33.695C109.533 34.5066 109.498 35.3023 109.43 36.082C109.36 36.8918 109.22 37.7123 109.015 38.5451L108.555 40.391H124.387L124.656 39.5388C124.773 39.0419 124.845 38.5663 124.874 38.1136L124.882 38.0252C125.204 35.7797 125.36 33.9532 125.36 32.528C125.36 27.922 124.089 24.6633 121.726 22.5309C119.359 20.3949 115.494 19.2103 109.896 19.2103C107.749 19.2103 105.334 19.3995 102.634 19.7867C95.1084 20.7344 89.5511 23.5847 85.8044 28.2491C82.0028 32.9842 78.4099 41.8727 75.1017 55.095L73.841 60.8221C72.4177 67.6118 71.721 72.8845 71.721 76.6701C71.721 81.5573 72.7607 84.8372 74.5872 86.7769C76.4066 88.7059 79.4107 89.7898 83.8735 89.7898C85.4295 89.7898 87.4258 89.636 89.8588 89.3142Z" fill="#171696"/>
<path d="M72.9799 88.2922C70.5841 85.7513 69.5126 81.7854 69.509 76.6683C69.5126 72.6564 70.2446 67.2104 71.6786 60.3571L72.9499 54.5876C76.2722 41.3052 79.9571 32.0029 84.0804 26.8646C88.2656 21.6556 94.4029 18.5967 102.338 17.5959C105.102 17.2016 107.623 17.0001 109.896 17.0001C115.732 17.0001 120.252 18.2219 123.206 20.8918C126.177 23.5688 127.57 27.5206 127.57 32.528C127.57 34.0964 127.399 36.0361 127.066 38.3382L126.808 40.0445C126.666 40.6527 126.47 41.2698 126.226 41.8975C126.06 42.3219 125.652 42.6012 125.197 42.6012H107.165C106.469 42.6012 105.945 41.9647 106.082 41.2804L106.186 40.7553L106.87 38.0128C107.051 37.2861 107.169 36.5789 107.229 35.8928C107.289 35.1767 107.323 34.4447 107.323 33.695C107.323 32.0701 106.676 31.3858 104.92 31.3858C104.729 31.3858 104.133 31.506 102.961 31.8738C102.204 32.1107 101.348 32.8286 100.468 34.3457C99.5978 35.8469 98.574 38.5309 97.4088 42.4792L93.9025 54.9235L91.2609 66.0965C91.0081 67.2582 90.7375 68.4941 90.4493 69.7955C90.1753 71.0261 90.0444 72.179 90.0444 73.2593C90.0444 76.3854 91.0965 77.4162 93.0326 77.4162C93.6302 77.4162 94.1412 77.3225 94.5815 77.151C95.1031 76.9494 95.5929 76.7037 96.0349 76.4278C97.0852 75.71 97.9198 74.7392 98.521 73.5086C99.1469 72.2302 99.9196 69.7884 100.827 66.093L101.095 64.9189L96.3055 64.9101C95.5858 64.9101 95.0589 64.2293 95.2375 63.5309L98.2911 51.6436C98.4166 51.1556 98.8569 50.8125 99.3626 50.8125H122.761C123.479 50.8125 124.005 51.4897 123.832 52.1864L114.475 89.712C114.353 90.2036 113.909 90.5483 113.404 90.5483H100.929C100.25 90.5483 99.7304 89.9419 99.8365 89.2717L100.236 86.7344L98.4237 88.1313C95.7432 89.9525 92.9937 91.0876 90.1646 91.5049C87.6609 91.8338 85.5621 92 83.8735 92C79.1048 92 75.3864 90.8472 72.9799 88.2922ZM89.8588 89.3142C93.1051 88.835 96.3603 87.2384 99.6048 84.4376L101.049 83.0903C101.815 82.3777 103.058 83.0372 102.895 84.0716L102.222 88.3381H112.539L121.346 53.0227H100.218L97.7324 62.7034L102.489 62.7122C103.198 62.7122 103.723 63.3735 103.564 64.0649L102.978 66.604C102.068 70.31 101.249 72.964 100.507 74.4793C99.7428 76.0388 98.6606 77.3101 97.2426 78.2791C96.6449 78.6504 96.0314 78.9598 95.3825 79.2109C94.6522 79.4956 93.8654 79.6264 93.0326 79.6264C89.4804 79.6264 87.8342 77.105 87.8342 73.2593C87.8342 72.0004 87.988 70.6849 88.2904 69.3163C88.5786 68.0185 88.8491 66.7861 89.1055 65.6067L91.7613 54.3701L95.2852 41.8657C96.4575 37.8891 97.5414 34.9858 98.5563 33.2371C99.5606 31.5043 100.784 30.2418 102.298 29.7644C103.403 29.4178 104.331 29.1756 104.92 29.1756C107.853 29.1756 109.533 30.7829 109.533 33.695C109.533 34.5066 109.498 35.3023 109.43 36.082C109.36 36.8918 109.22 37.7123 109.015 38.5451L108.555 40.391H124.387L124.656 39.5388C124.773 39.0419 124.845 38.5663 124.874 38.1136L124.882 38.0252C125.204 35.7797 125.36 33.9532 125.36 32.528C125.36 27.922 124.089 24.6633 121.726 22.5309C119.359 20.3949 115.494 19.2103 109.896 19.2103C107.749 19.2103 105.334 19.3995 102.634 19.7867C95.1084 20.7344 89.5511 23.5847 85.8044 28.2491C82.0028 32.9842 78.4099 41.8727 75.1017 55.095L73.841 60.8221C72.4177 67.6118 71.721 72.8845 71.721 76.6701C71.721 81.5573 72.7607 84.8372 74.5872 86.7769C76.4066 88.7059 79.4107 89.7898 83.8735 89.7898C85.4295 89.7898 87.4258 89.636 89.8588 89.3142Z" stroke="#828282"/>
<g filter="url(#filter1_d)">
<g filter="url(#filter2_d)">
<path d="M13.8855 89.0369L31.3319 18.864H49.9471L43.1255 46.2492L63.1057 18.864H82.6969L57.3556 49.6618L67.8815 89.0369H47.1216L42.054 64.0864L37.2782 69.9337L32.5007 89.0369H13.8855Z" fill="white"/>
<path d="M13.8855 89.0369L31.3319 18.864H49.9471L43.1255 46.2492L63.1057 18.864H82.6969L57.3556 49.6618L67.8815 89.0369H47.1216L42.054 64.0864L37.2782 69.9337L32.5007 89.0369H13.8855Z" stroke="white" stroke-width="6" stroke-miterlimit="79.8403" stroke-linecap="round" stroke-linejoin="round"/>
</g>
<path d="M53.425 89.0376H47.1251L42.7949 67.7366L68.7444 89.1118H53.4021C53.4091 89.0853 53.418 89.0641 53.425 89.0376ZM13.8855 89.0376L23.1984 51.595L40.5705 65.903L37.2765 69.9344L32.5024 89.0376H13.8855Z" fill="#E5E5E5"/>
<path d="M13.8855 89.0371L31.3319 18.8642H49.9471L43.1255 46.2495L63.1057 18.8642H82.6969L57.3556 49.662L67.8815 89.0371H47.1216L42.054 64.0866L37.2782 69.9339L32.5007 89.0371H13.8855Z" stroke="#171696" stroke-width="2" stroke-miterlimit="79.8403" stroke-linecap="round" stroke-linejoin="round"/>
</g>
<g filter="url(#filter3_d)">
<path d="M20 122.39L27.0592 94H38.7331C42.835 94 44.8853 95.6954 44.8853 99.0873C44.8853 100.323 44.596 101.73 44.0161 103.307C43.1457 105.751 41.501 107.355 39.0805 108.117L38.411 108.314C39.3572 108.446 40.1126 108.86 40.6773 109.556C41.2433 110.253 41.5262 111.14 41.5262 112.218C41.5262 112.638 41.4997 112.98 41.4466 113.242C41.3948 113.505 41.3544 113.703 41.3292 113.835L39.913 119.432L39.8347 119.945C39.7298 120.602 39.6768 121.167 39.6768 121.641C39.6768 121.982 39.6768 122.232 39.6768 122.39H32.3043C32.2525 122.022 32.226 121.786 32.226 121.681C32.226 121.365 32.3599 120.564 32.6277 119.277L32.7881 118.567L34.0337 113.399C34.0603 113.346 34.0918 113.196 34.131 112.945C34.1702 112.697 34.1904 112.506 34.1904 112.374C34.1904 111.298 33.5625 110.761 32.3068 110.761L30.4233 110.764L27.5317 122.39H20ZM33.2025 105.948C33.7293 105.947 34.3357 105.776 35.0204 105.435C35.7063 105.04 36.2331 104.389 36.602 103.482C36.9709 102.575 37.1553 101.82 37.1553 101.215C37.1553 100.006 36.3784 99.4018 34.8233 99.4006H33.2417L31.6209 105.944L33.2025 105.948Z" fill="#171696" stroke="white" stroke-width="1.87" stroke-miterlimit="79.8403" stroke-linecap="round"/>
<path d="M41.9267 117.185C42.2412 114.852 42.4105 113.631 42.4307 113.526C42.5356 112.979 42.7781 111.992 43.1571 110.562C44.0187 107.345 44.8284 105.054 45.5864 103.687C46.2799 102.405 47.2577 101.375 48.5197 100.597C49.6756 99.902 50.8858 99.4927 52.1479 99.3664C52.5256 99.3449 52.8831 99.3184 53.2204 99.2868C53.5564 99.2552 53.9253 99.2401 54.3245 99.2401C56.3849 99.2401 57.8781 99.6608 58.8041 100.502C59.7288 101.343 60.1924 102.72 60.1924 104.633C60.1924 106.105 59.8981 108.08 59.3081 110.562C58.4882 113.947 57.6734 116.402 56.8637 117.926C56.0539 119.45 55.0079 120.612 53.7244 121.411C52.5887 122.126 51.3697 122.546 50.066 122.673C49.4343 122.736 48.8343 122.767 48.2671 122.767C46.1637 122.767 44.5707 122.347 43.4881 121.505C42.4042 120.664 41.8635 119.508 41.8635 118.036C41.8635 117.91 41.8736 117.758 41.8951 117.579C41.9153 117.401 41.9267 117.27 41.9267 117.185ZM47.955 117.815C48.0182 118.487 48.4174 118.823 49.1526 118.823C49.3421 118.823 49.5316 118.792 49.7211 118.729C50.2668 118.582 50.7191 118.14 51.0766 117.405C51.4341 116.668 51.9394 115.103 52.5913 112.707C52.7795 111.949 53.1054 110.435 53.5678 108.165C54.0314 105.895 54.2626 104.601 54.2626 104.286C54.2626 103.571 53.8621 103.213 53.0637 103.213C52.9804 103.213 52.8111 103.235 52.5597 103.276C51.9912 103.446 51.5288 103.903 51.1713 104.649C50.8138 105.395 50.3085 106.956 49.6579 109.332C49.5101 109.836 49.1905 111.182 48.6966 113.369C48.2014 115.555 47.955 116.731 47.955 116.901V117.815Z" fill="#171696" stroke="white" stroke-width="1.87" stroke-miterlimit="79.8403" stroke-linecap="round"/>
<path d="M58.7448 117.185C59.0594 114.852 59.2286 113.631 59.2489 113.526C59.3537 112.979 59.5963 111.992 59.9752 110.562C60.8368 107.345 61.6465 105.054 62.4045 103.687C63.0981 102.405 64.0758 101.375 65.3378 100.597C66.4937 99.902 67.704 99.4927 68.966 99.3664C69.3437 99.3449 69.7012 99.3184 70.0385 99.2868C70.3745 99.2552 70.7434 99.2401 71.1426 99.2401C73.203 99.2401 74.6962 99.6608 75.6222 100.502C76.5469 101.343 77.0105 102.72 77.0105 104.633C77.0105 106.105 76.7162 108.08 76.1262 110.562C75.3064 113.947 74.4915 116.402 73.6818 117.926C72.872 119.45 71.826 120.612 70.5425 121.411C69.4069 122.126 68.1878 122.546 66.8841 122.673C66.2525 122.736 65.6524 122.767 65.0852 122.767C62.9818 122.767 61.3888 122.347 60.3062 121.505C59.2223 120.664 58.6816 119.508 58.6816 118.036C58.6816 117.91 58.6917 117.758 58.7132 117.579C58.7334 117.401 58.7448 117.27 58.7448 117.185ZM64.7732 117.815C64.8363 118.487 65.2355 118.823 65.9707 118.823C66.1602 118.823 66.3497 118.792 66.5392 118.729C67.085 118.582 67.5372 118.14 67.8947 117.405C68.2522 116.668 68.7575 115.103 69.4094 112.707C69.5976 111.949 69.9235 110.435 70.3859 108.165C70.8495 105.895 71.0807 104.601 71.0807 104.286C71.0807 103.571 70.6802 103.213 69.8819 103.213C69.7985 103.213 69.6292 103.235 69.3778 103.276C68.8093 103.446 68.347 103.903 67.9895 104.649C67.632 105.395 67.1266 106.956 66.4761 109.332C66.3282 109.836 66.0086 111.182 65.5147 113.369C65.0195 115.555 64.7732 116.731 64.7732 116.901V117.815Z" fill="#171696" stroke="white" stroke-width="1.87" stroke-miterlimit="79.8403" stroke-linecap="round"/>
<path d="M74.4902 122.39L80.1358 99.6785H93.6049L92.4389 104.446H84.9944L83.985 108.481H90.9242L89.7885 113.025H82.8493L80.5148 122.39H74.4902Z" fill="#171696" stroke="white" stroke-width="1.87" stroke-miterlimit="79.8403" stroke-linecap="round"/>
<path d="M88.4597 122.39L94.1053 99.6785H100.131L94.4843 122.39H88.4597Z" fill="#171696" stroke="white" stroke-width="1.87" stroke-miterlimit="79.8403" stroke-linecap="round"/>
<path d="M96.2488 122.39L101.897 99.6785H108.396L108.866 113.369L112.272 99.6785H117.73L112.05 122.39H105.678L105.116 108.763L101.709 122.39H96.2488Z" fill="#171696" stroke="white" stroke-width="1.87" stroke-miterlimit="79.8403" stroke-linecap="round"/>
<path d="M132.589 106.872H126.754L126.786 106.714L127.006 105.831C127.069 105.578 127.111 105.332 127.131 105.089C127.152 104.847 127.162 104.599 127.162 104.348C127.162 103.611 126.785 103.242 126.028 103.242C125.902 103.242 125.655 103.3 125.286 103.417C124.919 103.531 124.583 103.852 124.278 104.378C123.973 104.903 123.632 105.808 123.253 107.091L122.116 111.128L121.258 114.754C121.176 115.133 121.089 115.533 120.995 115.953C120.902 116.374 120.856 116.773 120.856 117.152C120.856 118.288 121.297 118.855 122.18 118.855C122.411 118.855 122.622 118.818 122.812 118.745C123.001 118.671 123.179 118.582 123.347 118.476C123.748 118.203 124.057 117.841 124.278 117.39C124.499 116.937 124.757 116.112 125.051 114.915L125.24 114.095L123.241 114.092L124.229 110.245H131.801L128.773 122.39H124.736L125.02 120.595L124.546 121.035C123.453 121.979 122.339 122.535 121.204 122.702C120.404 122.808 119.742 122.86 119.216 122.86C117.723 122.86 116.634 122.497 115.951 121.772C115.267 121.047 114.926 119.874 114.925 118.255C114.926 116.993 115.157 115.258 115.62 113.052L116.029 111.191C117.103 106.902 118.28 103.958 119.563 102.36C120.846 100.762 122.738 99.8061 125.24 99.4915C126.124 99.3652 126.924 99.302 127.637 99.302C129.488 99.302 130.845 99.6911 131.706 100.469C132.569 101.247 133 102.413 133 103.97C133 104.454 132.948 105.064 132.842 105.799C132.822 106.136 132.737 106.494 132.589 106.872Z" fill="#171696" stroke="white" stroke-width="1.87" stroke-miterlimit="79.8403" stroke-linecap="round"/>
</g>
<defs>
<filter id="filter0_d" x="65.6157" y="15.1047" width="69.849" height="86.7897" filterUnits="userSpaceOnUse" color-interpolation-filters="sRGB">
<feFlood flood-opacity="0" result="BackgroundImageFix"/>
<feColorMatrix in="SourceAlpha" type="matrix" values="0 0 0 0 0 0 0 0 0 0 0 0 0 0 0 0 0 0 127 0"/>
<feOffset dx="2" dy="4"/>
<feGaussianBlur stdDeviation="2"/>
<feColorMatrix type="matrix" values="0 0 0 0 0 0 0 0 0 0 0 0 0 0 0 0 0 0 0.25 0"/>
<feBlend mode="normal" in2="BackgroundImageFix" result="effect1_dropShadow"/>
<feBlend mode="normal" in="SourceGraphic" in2="effect1_dropShadow" result="shape"/>
</filter>
<filter id="filter1_d" x="6.8855" y="15.864" width="82.8114" height="84.1729" filterUnits="userSpaceOnUse" color-interpolation-filters="sRGB">
<feFlood flood-opacity="0" result="BackgroundImageFix"/>
<feColorMatrix in="SourceAlpha" type="matrix" values="0 0 0 0 0 0 0 0 0 0 0 0 0 0 0 0 0 0 127 0"/>
<feOffset dy="4"/>
<feGaussianBlur stdDeviation="2"/>
<feColorMatrix type="matrix" values="0 0 0 0 0 0 0 0 0 0 0 0 0 0 0 0 0 0 0.25 0"/>
<feBlend mode="normal" in2="BackgroundImageFix" result="effect1_dropShadow"/>
<feBlend mode="normal" in="SourceGraphic" in2="effect1_dropShadow" result="shape"/>
</filter>
<filter id="filter2_d" x="10.8855" y="15.864" width="82.8114" height="84.1729" filterUnits="userSpaceOnUse" color-interpolation-filters="sRGB">
<feFlood flood-opacity="0" result="BackgroundImageFix"/>
<feColorMatrix in="SourceAlpha" type="matrix" values="0 0 0 0 0 0 0 0 0 0 0 0 0 0 0 0 0 0 127 0"/>
<feOffset dx="4" dy="4"/>
<feGaussianBlur stdDeviation="2"/>
<feColorMatrix type="matrix" values="0 0 0 0 0 0 0 0 0 0 0 0 0 0 0 0 0 0 0.25 0"/>
<feBlend mode="normal" in2="BackgroundImageFix" result="effect1_dropShadow"/>
<feBlend mode="normal" in="SourceGraphic" in2="effect1_dropShadow" result="shape"/>
</filter>
<filter id="filter3_d" x="14.804" y="93.0649" width="123.131" height="38.7296" filterUnits="userSpaceOnUse" color-interpolation-filters="sRGB">
<feFlood flood-opacity="0" result="BackgroundImageFix"/>
<feColorMatrix in="SourceAlpha" type="matrix" values="0 0 0 0 0 0 0 0 0 0 0 0 0 0 0 0 0 0 127 0"/>
<feOffset dy="4"/>
<feGaussianBlur stdDeviation="2"/>
<feColorMatrix type="matrix" values="0 0 0 0 0 0 0 0 0 0 0 0 0 0 0 0 0 0 0.25 0"/>
<feBlend mode="normal" in2="BackgroundImageFix" result="effect1_dropShadow"/>
<feBlend mode="normal" in="SourceGraphic" in2="effect1_dropShadow" result="shape"/>
</filter>
</defs>
</svg>
