<svg width="150" height="150" viewBox="0 0 150 150" fill="none" xmlns="http://www.w3.org/2000/svg">
<circle cx="75" cy="75" r="73" fill="#171696" stroke="#171696" stroke-width="4"/>
<g filter="url(#filter0_d)">
<g filter="url(#filter1_d)">
<path d="M138.987 64.2788H117.187L117.305 63.6888L118.128 60.3883C118.361 59.4456 118.517 58.5221 118.596 57.6179C118.673 56.7137 118.713 55.7902 118.713 54.8475C118.713 52.0964 117.3 50.7198 114.472 50.7198C114.002 50.7198 113.081 50.9378 111.704 51.3696C110.332 51.8014 109.075 52.9985 107.935 54.963C106.796 56.9274 105.522 60.3049 104.109 65.0953L99.8594 80.1764L96.6572 93.7225C96.3494 95.1377 96.0223 96.6297 95.6739 98.2009C95.3255 99.772 95.1523 101.264 95.1523 102.679C95.1523 106.92 96.8026 109.041 100.101 109.041C100.967 109.041 101.751 108.904 102.459 108.628C103.166 108.355 103.833 108.019 104.462 107.628C105.954 106.608 107.112 105.253 107.938 103.566C108.765 101.878 109.727 98.7973 110.825 94.3232L111.531 91.2621L104.062 91.2493L107.754 76.878H136.041L124.729 122.245H109.648L110.706 115.541L108.94 117.187C104.855 120.712 100.693 122.786 96.4499 123.412C93.4657 123.805 90.9903 124 89.028 124C83.4488 124 79.3851 122.647 76.8306 119.936C74.2783 117.228 73.0021 112.848 73 106.801C73.0021 102.087 73.8657 95.6079 75.5929 87.3609L77.1235 80.4115C81.1316 64.3899 85.5308 53.3939 90.3213 47.4257C95.116 41.4574 102.185 37.8854 111.531 36.7076C114.834 36.2351 117.818 36 120.488 36C127.401 36 132.469 37.4536 135.686 40.3586C138.91 43.2658 140.519 47.6245 140.519 53.4367C140.519 55.2451 140.323 57.5217 139.929 60.2707C139.852 61.5276 139.538 62.8637 138.987 64.2788Z" fill="white"/>
<path d="M138.987 64.2788H117.187L117.305 63.6888L118.128 60.3883C118.361 59.4456 118.517 58.5221 118.596 57.6179C118.673 56.7137 118.713 55.7902 118.713 54.8475C118.713 52.0964 117.3 50.7198 114.472 50.7198C114.002 50.7198 113.081 50.9378 111.704 51.3696C110.332 51.8014 109.075 52.9985 107.935 54.963C106.796 56.9274 105.522 60.3049 104.109 65.0953L99.8594 80.1764L96.6572 93.7225C96.3494 95.1377 96.0223 96.6297 95.6739 98.2009C95.3255 99.772 95.1523 101.264 95.1523 102.679C95.1523 106.92 96.8026 109.041 100.101 109.041C100.967 109.041 101.751 108.904 102.459 108.628C103.166 108.355 103.833 108.019 104.462 107.628C105.954 106.608 107.112 105.253 107.938 103.566C108.765 101.878 109.727 98.7973 110.825 94.3232L111.531 91.2621L104.062 91.2493L107.754 76.878H136.041L124.729 122.245H109.648L110.706 115.541L108.94 117.187C104.855 120.712 100.693 122.786 96.4499 123.412C93.4657 123.805 90.9903 124 89.028 124C83.4488 124 79.3851 122.647 76.8306 119.936C74.2783 117.228 73.0021 112.848 73 106.801C73.0021 102.087 73.8657 95.6079 75.5929 87.3609L77.1235 80.4115C81.1316 64.3899 85.5308 53.3939 90.3213 47.4257C95.116 41.4574 102.185 37.8854 111.531 36.7076C114.834 36.2351 117.818 36 120.488 36C127.401 36 132.469 37.4536 135.686 40.3586C138.91 43.2658 140.519 47.6245 140.519 53.4367C140.519 55.2451 140.323 57.5217 139.929 60.2707C139.852 61.5276 139.538 62.8637 138.987 64.2788Z" stroke="white" stroke-width="6" stroke-miterlimit="79.8403" stroke-linecap="round" stroke-linejoin="round"/>
</g>
<path d="M76.8293 119.934C74.2812 117.226 73.0029 112.848 73.0029 106.801C73.0029 102.085 73.8644 95.6081 75.5937 87.3633L77.1222 80.4095C77.2932 79.7255 77.4685 79.0479 77.6395 78.3809L77.648 78.3702L81.3739 65.5914L99.7084 80.805L96.658 93.7249C96.3502 95.1378 96.0231 96.6299 95.6725 98.2011C95.3263 99.7722 95.1552 101.266 95.1552 102.679C95.1552 106.918 96.8034 109.041 100.102 109.041C100.965 109.041 101.75 108.902 102.46 108.628C103.165 108.353 103.836 108.019 104.462 107.626C105.957 106.608 107.111 105.251 107.936 103.567C108.766 101.876 109.723 98.7975 110.824 94.3234L111.532 91.2623L104.063 91.2495L105.514 85.5869L129.037 104.962L124.729 122.245H109.648L110.704 115.542L108.939 117.188C104.856 120.71 100.692 122.786 96.4506 123.412C93.4665 123.804 90.989 123.998 89.0288 123.998C83.4496 123.998 79.3859 122.645 76.8293 119.934Z" fill="#E0E0E0"/>
<path d="M138.987 64.2788H117.187L117.305 63.6888L118.128 60.3883C118.361 59.4456 118.517 58.5221 118.596 57.6179C118.673 56.7137 118.713 55.7902 118.713 54.8475C118.713 52.0964 117.3 50.7198 114.472 50.7198C114.002 50.7198 113.081 50.9378 111.704 51.3696C110.332 51.8014 109.075 52.9985 107.935 54.963C106.796 56.9274 105.522 60.3049 104.109 65.0953L99.8594 80.1764L96.6572 93.7225C96.3494 95.1377 96.0223 96.6297 95.6739 98.2009C95.3255 99.772 95.1523 101.264 95.1523 102.679C95.1523 106.92 96.8026 109.041 100.101 109.041C100.967 109.041 101.751 108.904 102.459 108.628C103.166 108.355 103.833 108.019 104.462 107.628C105.954 106.608 107.112 105.253 107.938 103.566C108.765 101.878 109.727 98.7973 110.825 94.3232L111.531 91.2621L104.062 91.2493L107.754 76.878H136.041L124.729 122.245H109.648L110.706 115.541L108.94 117.187C104.855 120.712 100.693 122.786 96.4499 123.412C93.4657 123.805 90.9903 124 89.028 124C83.4488 124 79.3851 122.647 76.8306 119.936C74.2783 117.228 73.0021 112.848 73 106.801C73.0021 102.087 73.8657 95.6079 75.5929 87.3609L77.1235 80.4115C81.1316 64.3899 85.5308 53.3939 90.3213 47.4257C95.116 41.4574 102.185 37.8854 111.531 36.7076C114.834 36.2351 117.818 36 120.488 36C127.401 36 132.469 37.4536 135.686 40.3586C138.91 43.2658 140.519 47.6245 140.519 53.4367C140.519 55.2451 140.323 57.5217 139.929 60.2707C139.852 61.5276 139.538 62.8637 138.987 64.2788Z" stroke="#171696" stroke-width="2.5" stroke-miterlimit="79.8403" stroke-linecap="round" stroke-linejoin="round"/>
</g>
<g filter="url(#filter2_d)">
<path d="M11 106.908L32.8556 19.0001H56.1754L47.6298 53.3064L72.6596 19.0001H97.2021L65.4564 57.5814L78.6424 106.908H52.6358L46.2875 75.6515L40.3048 82.9766L34.3198 106.908H11Z" fill="white" stroke="white" stroke-width="6" stroke-miterlimit="79.8403" stroke-linecap="round" stroke-linejoin="round"/>
<path d="M60.5324 106.907H52.6402L47.2156 80.2226L79.7233 107H60.5036C60.5124 106.967 60.5235 106.94 60.5324 106.907ZM11 106.907L22.6665 60.0016L44.4291 77.9256L40.3026 82.9758L34.322 106.907H11Z" fill="#E0E0E0"/>
<path d="M11 106.908L32.8556 19.0003H56.1754L47.6298 53.3066L72.6596 19.0003H97.2021L65.4564 57.5816L78.6424 106.908H52.6358L46.2875 75.6518L40.3048 82.9768L34.3198 106.908H11Z" stroke="#171696" stroke-width="2.5" stroke-miterlimit="79.8403" stroke-linecap="round" stroke-linejoin="round"/>
</g>
<defs>
<filter id="filter0_d" x="66" y="33" width="81.5193" height="102" filterUnits="userSpaceOnUse" color-interpolation-filters="sRGB">
<feFlood flood-opacity="0" result="BackgroundImageFix"/>
<feColorMatrix in="SourceAlpha" type="matrix" values="0 0 0 0 0 0 0 0 0 0 0 0 0 0 0 0 0 0 127 0"/>
<feOffset dy="4"/>
<feGaussianBlur stdDeviation="2"/>
<feColorMatrix type="matrix" values="0 0 0 0 0 0 0 0 0 0 0 0 0 0 0 0 0 0 0.25 0"/>
<feBlend mode="normal" in2="BackgroundImageFix" result="effect1_dropShadow"/>
<feBlend mode="normal" in="SourceGraphic" in2="effect1_dropShadow" result="shape"/>
</filter>
<filter id="filter1_d" x="66" y="33" width="81.5193" height="102" filterUnits="userSpaceOnUse" color-interpolation-filters="sRGB">
<feFlood flood-opacity="0" result="BackgroundImageFix"/>
<feColorMatrix in="SourceAlpha" type="matrix" values="0 0 0 0 0 0 0 0 0 0 0 0 0 0 0 0 0 0 127 0"/>
<feOffset dy="4"/>
<feGaussianBlur stdDeviation="2"/>
<feColorMatrix type="matrix" values="0 0 0 0 0 0 0 0 0 0 0 0 0 0 0 0 0 0 0.25 0"/>
<feBlend mode="normal" in2="BackgroundImageFix" result="effect1_dropShadow"/>
<feBlend mode="normal" in="SourceGraphic" in2="effect1_dropShadow" result="shape"/>
</filter>
<filter id="filter2_d" x="8" y="16" width="100.202" height="101.908" filterUnits="userSpaceOnUse" color-interpolation-filters="sRGB">
<feFlood flood-opacity="0" result="BackgroundImageFix"/>
<feColorMatrix in="SourceAlpha" type="matrix" values="0 0 0 0 0 0 0 0 0 0 0 0 0 0 0 0 0 0 127 0"/>
<feOffset dx="4" dy="4"/>
<feGaussianBlur stdDeviation="2"/>
<feColorMatrix type="matrix" values="0 0 0 0 0 0 0 0 0 0 0 0 0 0 0 0 0 0 0.25 0"/>
<feBlend mode="normal" in2="BackgroundImageFix" result="effect1_dropShadow"/>
<feBlend mode="normal" in="SourceGraphic" in2="effect1_dropShadow" result="shape"/>
</filter>
</defs>
</svg>
