<?xml version="1.0" standalone="no"?>
<!DOCTYPE svg PUBLIC "-//W3C//DTD SVG 20010904//EN"
 "http://www.w3.org/TR/2001/REC-SVG-20010904/DTD/svg10.dtd">
<svg version="1.0" xmlns="http://www.w3.org/2000/svg"
 width="700.000000pt" height="700.000000pt" viewBox="0 0 700.000000 700.000000"
 preserveAspectRatio="xMidYMid meet">
<metadata>
Created by potrace 1.11, written by Peter Selinger 2001-2013
</metadata>
<g transform="translate(0.000000,700.000000) scale(0.100000,-0.100000)"
fill="#000000" stroke="none">
<path d="M3278 6995 c-2 -1 -39 -5 -83 -9 -89 -7 -144 -13 -225 -26 -30 -5
-75 -12 -100 -15 -24 -4 -47 -8 -51 -10 -3 -2 -21 -7 -40 -10 -84 -15 -254
-60 -361 -96 -840 -280 -1520 -834 -1958 -1594 -47 -83 -170 -327 -170 -340 0
-3 -9 -24 -20 -48 -57 -123 -157 -435 -186 -582 -2 -11 -10 -54 -19 -95 -29
-147 -36 -200 -52 -370 -15 -165 -8 -592 12 -711 2 -13 6 -46 9 -74 9 -78 22
-152 51 -285 21 -96 91 -339 114 -395 5 -11 25 -65 46 -120 50 -132 181 -398
250 -508 30 -49 55 -92 55 -97 0 -4 3 -10 8 -12 4 -2 33 -41 64 -88 49 -73
124 -173 185 -246 48 -57 141 -161 166 -185 16 -16 26 -33 22 -38 -3 -7 0 -8
9 -5 11 4 16 0 16 -10 0 -9 4 -15 8 -13 4 1 19 -9 33 -23 55 -55 179 -163 269
-235 92 -74 370 -265 386 -265 4 0 15 -6 23 -14 29 -25 304 -161 431 -213 269
-110 577 -194 835 -228 22 -2 56 -7 75 -10 186 -26 698 -27 838 0 16 3 104 15
147 20 119 15 387 83 565 143 206 70 560 232 639 293 13 11 28 19 33 19 5 0
14 4 21 10 7 5 64 44 127 86 97 65 265 190 306 229 6 5 40 35 74 65 35 30 76
67 90 82 15 15 31 24 35 20 3 -4 5 -2 4 3 -4 13 109 131 122 128 5 -2 8 1 6 6
-1 5 9 21 23 37 29 34 121 144 133 159 4 5 28 37 53 70 120 156 279 419 364
600 111 238 213 532 256 740 16 79 54 301 59 350 4 33 9 71 11 85 9 47 11 525
4 605 -16 169 -22 220 -25 225 -2 3 -6 30 -10 60 -9 75 -69 337 -98 435 -176
575 -476 1077 -895 1492 -51 50 -118 113 -149 140 -32 26 -73 62 -92 79 -49
42 -186 144 -241 180 -25 16 -47 31 -50 35 -15 16 -234 142 -359 206 -218 110
-462 203 -684 259 -109 27 -272 62 -327 69 -19 3 -46 7 -60 10 -13 2 -52 7
-86 11 -33 3 -74 8 -90 10 -32 5 -540 14 -546 9z"/>
</g>
</svg>
